Garamondia_wght2.glyphspackage
{
glyphname = exclam;
kernLeft = exclam;
layers = (
{
background = {
shapes = (
{
closed = 1;
nodes = (
(248,312,qs),
(256,552,ls),
(258,651,o),
(297,983,qs),
(317,1156,o),
(317,1202,qs),
(317,1252,o),
(263,1307,o),
(224,1307,qs),
(188,1307,o),
(138,1252,o),
(138,1198,qs),
(138,1144,o),
(158,1020,qs),
(172,927,o),
(175,867,qs),
(207,291,l),
(221,288,o),
(228,288,qs),
(233,288,o),
(243,290,q),
(247,304,o)
);
},
{
closed = 1;
nodes = (
(194,-25,o),
(230,-25,qs),
(263,-25,o),
(329,47,o),
(329,85,qs),
(329,123,o),
(272,182,o),
(230,182,qs),
(186,182,o),
(125,121,o),
(125,79,qs),
(125,45,o)
);
}
);
};
layerId = m01;
shapes = (
{
closed = 1;
nodes = (
(262,402,o),
(273,436,o),
(276,478,c),
(299,670,o),
(335,1057,o),
(335,1164,cs),
(335,1221,o),
(299,1272,o),
(247,1272,cs),
(195,1272,o),
(155,1221,o),
(155,1164,cs),
(155,1019,o),
(183,719,o),
(206,478,cs),
(209,449,o),
(213,430,o),
(219,419,cs),
(225,407,o),
(232,402,o),
(241,402,cs)
);
},
{
closed = 1;
nodes = (
(310,-27,o),
(363,25,o),
(363,90,cs),
(363,155,o),
(310,208,o),
(245,208,cs),
(180,208,o),
(127,155,o),
(127,90,cs),
(127,25,o),
(180,-27,o),
(245,-27,cs)
);
}
);
width = 448;
},
{
layerId = "088BD936-56BA-4CBD-9590-2DD048370D9B";
shapes = (
{
closed = 1;
nodes = (
(301,360,o),
(316,400,o),
(324,454,cs),
(343,587,o),
(365,717,o),
(381,831,cs),
(396,944,o),
(408,1043,o),
(408,1118,cs),
(408,1200,o),
(357,1272,o),
(280,1272,cs),
(202,1272,o),
(143,1196,o),
(145,1115,cs),
(146,1041,o),
(154,944,o),
(166,831,cs),
(179,715,o),
(199,591,o),
(217,454,cs),
(222,420,o),
(229,395,o),
(237,381,cs),
(245,368,o),
(257,360,o),
(271,360,cs)
);
},
{
closed = 1;
nodes = (
(346,-27,o),
(407,34,o),
(407,109,cs),
(407,184,o),
(346,246,o),
(270,246,cs),
(194,246,o),
(133,184,o),
(133,109,cs),
(133,34,o),
(194,-27,o),
(270,-27,cs)
);
}
);
width = 533;
}
);
note = exclam;
unicode = 33;
}
{
glyphname = quotedbl;
layers = (
{
background = {
shapes = (
{
closed = 1;
nodes = (
(307,1098,ls),
(333,1239,o),
(333,1281,qs),
(333,1328,o),
(274,1387,o),
(231,1387,qs),
(186,1387,o),
(133,1329,o),
(133,1265,qs),
(133,1221,o),
(155,1099,qs),
(210,803,l),
(253,803,l)
);
},
{
closed = 1;
nodes = (
(681,1096,ls),
(700,1195,o),
(700,1282,qs),
(700,1329,o),
(643,1387,o),
(600,1387,qs),
(554,1387,o),
(498,1329,o),
(498,1266,qs),
(498,1241,o),
(500,1216,q),
(522,1095,l),
(576,803,l),
(624,803,l)
);
}
);
};
layerId = m01;
shapes = (
{
alignment = -1;
ref = quotesingle;
},
{
alignment = -1;
pos = (255,0);
ref = quotesingle;
}
);
width = 832;
},
{
layerId = "088BD936-56BA-4CBD-9590-2DD048370D9B";
shapes = (
{
alignment = -1;
ref = quotesingle;
},
{
alignment = -1;
pos = (303,0);
ref = quotesingle;
}
);
width = 1131;
}
);
note = quotedbl;
unicode = 34;
}
{
glyphname = numbersign;
layers = (
{
background = {
shapes = (
{
closed = 1;
nodes = (
(410,861,l),
(325,455,l),
(94,455,l),
(94,367,l),
(306,367,l),
(220,-47,l),
(309,-47,l),
(393,367,l),
(851,367,l),
(764,-47,l),
(853,-47,l),
(938,367,l),
(1271,367,l),
(1271,455,l),
(956,455,l),
(1041,861,l),
(1271,861,l),
(1271,949,l),
(1058,949,l),
(1146,1365,l),
(1058,1365,l),
(971,949,l),
(516,949,l),
(604,1365,l),
(517,1365,l),
(429,949,l),
(94,949,l),
(94,861,l)
);
},
{
closed = 1;
nodes = (
(869,457,l),
(412,457,l),
(497,861,l),
(954,861,l)
);
}
);
};
layerId = m01;
shapes = (
{
closed = 1;
nodes = (
(143,-155,o),
(171,-151,o),
(176,-125,c),
(263,225,l),
(486,237,l),
(402,-104,l),
(402,-110,ls),
(402,-121,o),
(412,-133,o),
(421,-133,cs),
(448,-133,o),
(475,-129,o),
(480,-104,cs),
(564,241,l),
(678,247,ls),
(720,251,o),
(739,311,o),
(739,341,cs),
(739,354,o),
(726,365,o),
(713,365,cs),
(594,359,l),
(660,629,l),
(770,635,ls),
(810,639,o),
(831,697,o),
(831,731,cs),
(831,744,o),
(818,753,o),
(805,753,cs),
(690,747,l),
(772,1084,l),
(772,1087,o),
(772,1088,o),
(773,1090,cs),
(774,1092,o),
(774,1093,o),
(774,1094,cs),
(774,1106,o),
(769,1117,o),
(758,1117,cs),
(733,1117,o),
(699,1111,o),
(694,1084,c),
(610,743,l),
(388,731,l),
(468,1062,l),
(468,1065,o),
(468,1066,o),
(469,1068,cs),
(470,1070,o),
(470,1071,o),
(470,1072,cs),
(470,1085,o),
(466,1096,o),
(455,1096,cs),
(428,1096,o),
(395,1091,o),
(390,1062,c),
(308,727,l),
(172,721,ls),
(134,721,o),
(125,656,o),
(125,627,cs),
(125,614,o),
(140,604,o),
(153,604,cs),
(278,610,l),
(212,339,l),
(80,333,ls),
(42,333,o),
(33,268,o),
(33,239,cs),
(33,226,o),
(48,216,o),
(61,216,cs),
(184,221,l),
(98,-125,l),
(98,-131,ls),
(98,-142,o),
(107,-155,o),
(118,-155,cs)
);
},
{
closed = 1;
nodes = (
(580,625,l),
(515,355,l),
(292,343,l),
(359,613,l)
);
}
);
width = 1365;
},
{
layerId = "088BD936-56BA-4CBD-9590-2DD048370D9B";
shapes = (
{
closed = 1;
nodes = (
(168,-176,o),
(191,-172,o),
(200,-135,cs),
(280,191,l),
(503,200,l),
(427,-108,l),
(427,-116,ls),
(427,-131,o),
(439,-148,o),
(454,-148,cs),
(491,-148,o),
(513,-144,o),
(522,-108,cs),
(598,206,l),
(737,212,l),
(778,216,o),
(812,285,o),
(812,336,cs),
(812,358,o),
(796,374,o),
(769,372,cs),
(638,366,l),
(694,598,l),
(819,604,ls),
(860,608,o),
(894,677,o),
(894,728,cs),
(894,750,o),
(878,766,o),
(851,764,cs),
(735,758,l),
(809,1060,l),
(809,1062,o),
(809,1064,o),
(810,1066,cs),
(812,1069,o),
(812,1070,o),
(812,1073,cs),
(812,1090,o),
(804,1105,o),
(789,1105,cs),
(752,1105,o),
(722,1098,o),
(715,1060,c),
(640,753,l),
(417,744,l),
(489,1038,l),
(489,1041,o),
(489,1043,o),
(490,1045,cs),
(491,1047,o),
(492,1049,o),
(492,1052,cs),
(492,1068,o),
(484,1084,o),
(470,1084,cs),
(432,1084,o),
(402,1077,o),
(395,1038,c),
(321,739,l),
(178,733,ls),
(139,733,o),
(113,682,o),
(113,607,cs),
(113,590,o),
(127,571,o),
(152,573,cs),
(281,579,l),
(224,348,l),
(97,342,ls),
(57,342,o),
(30,292,o),
(30,217,cs),
(30,200,o),
(46,180,o),
(69,182,cs),
(185,186,l),
(106,-135,l),
(106,-144,ls),
(106,-160,o),
(117,-176,o),
(133,-176,cs)
);
},
{
closed = 1;
nodes = (
(599,592,l),
(543,361,l),
(320,352,l),
(378,583,l)
);
}
);
width = 1365;
}
);
note = numbersign;
unicode = 35;
}
{
glyphname = dollar;
layers = (
{
background = {
shapes = (
{
closed = 1;
nodes = (
(253,134,qs),
(189,218,o),
(144,218,qs),
(121,218,o),
(85,185,o),
(85,162,qs),
(85,113,o),
(188,10,o),
(299,-15,qs),
(321,-20,o),
(335,-23,q),
(335,-192,o),
(332,-272,q),
(369,-272,l),
(371,-234,o),
(376,-73,o),
(384,-23,q),
(488,-21,o),
(515,-16,q),
(515,-33,o),
(519,-80,o),
(519,-96,qs),
(519,-110,o),
(518,-131,qs),
(515,-202,o),
(515,-217,qs),
(515,-235,o),
(517,-273,q),
(556,-273,l),
(562,-214,o),
(562,-202,qs),
(559,-63,ls),
(559,-54,o),
(569,-7,q),
(587,2,o),
(608,8,qs),
(704,39,o),
(829,201,o),
(829,307,qs),
(829,365,o),
(817,403,qs),
(799,457,o),
(751,525,qs),
(726,560,o),
(685,587,qs),
(591,649,l),
(581,654,o),
(575,660,q),
(577,858,ls),
(577,950,o),
(573,988,qs),
(571,1013,o),
(571,1023,qs),
(571,1052,o),
(578,1162,q),
(605,1155,o),
(632,1132,o),
(683,1059,q),
(703,1037,o),
(712,1025,q),
(744,1000,o),
(763,1000,qs),
(789,1000,o),
(825,1034,o),
(825,1059,qs),
(825,1085,o),
(816,1102,q),
(789,1138,o),
(779,1146,qs),
(741,1178,o),
(663,1217,o),
(585,1237,q),
(584,1258,o),
(584,1290,qs),
(584,1321,o),
(581,1340,q),
(538,1340,l),
(535,1277,o),
(535,1257,qs),
(535,1243,l),
(522,1244,o),
(502,1246,qs),
(470,1250,o),
(444,1250,qs),
(420,1250,o),
(381,1246,q),
(381,1278,o),
(376,1341,q),
(339,1342,l),
(333,1265,o),
(333,1257,qs),
(333,1243,l),
(315,1237,ls),
(206,1204,o),
(86,1046,o),
(86,945,qs),
(86,871,o),
(141,756,o),
(282,652,o),
(343,626,q),
(349,434,l),
(347,383,ls),
(346,128,o),
(335,59,q),
(300,72,o)
);
},
{
closed = 1;
nodes = (
(377,781,qs),
(378,827,ls),
(378,857,o),
(375,913,q),
(377,1047,l),
(375,1190,l),
(403,1200,o),
(437,1200,qs),
(480,1200,o),
(528,1191,q),
(536,1147,o),
(536,1104,qs),
(535,1075,l),
(536,1017,l),
(530,725,ls),
(530,719,o),
(529,683,q),
(518,686,o),
(507,694,q),
(409,741,o),
(378,759,q),
(377,776,o)
);
},
{
closed = 1;
nodes = (
(171,936,o),
(171,984,qs),
(171,1050,o),
(220,1115,qs),
(255,1162,o),
(332,1181,q),
(337,1140,o),
(337,1022,qs),
(337,988,o),
(335,898,qs),
(335,835,ls),
(335,823,o),
(332,780,q),
(259,813,o)
);
},
{
closed = 1;
nodes = (
(376,97,qs),
(376,145,l),
(375,163,l),
(387,578,ls),
(387,584,o),
(392,598,q),
(455,576,o),
(526,530,q),
(529,495,o),
(529,481,qs),
(529,409,l),
(530,280,l),
(527,119,l),
(526,51,l),
(524,35,l),
(502,28,o),
(477,28,qs),
(422,28,o),
(377,45,q),
(377,59,o)
);
},
{
closed = 1;
nodes = (
(565,84,l),
(572,253,l),
(574,459,ls),
(575,471,o),
(578,490,q),
(615,470,o),
(650,432,qs),
(674,407,o),
(703,341,qs),
(716,311,o),
(716,268,qs),
(716,191,o),
(643,83,o),
(569,52,q),
(566,75,l)
);
}
);
};
layerId = m01;
shapes = (
{
closed = 1;
nodes = (
(356,-161,o),
(381,-153,o),
(384,-131,cs),
(402,18,ls),
(403,26,o),
(409,31,o),
(419,31,cs),
(638,44,o),
(780,181,o),
(780,380,cs),
(780,497,o),
(722,577,o),
(641,637,cs),
(600,667,o),
(559,694,o),
(515,719,c),
(502,730,o),
(495,736,o),
(493,739,cs),
(491,742,o),
(491,748,o),
(492,755,cs),
(539,1143,l),
(539,1149,o),
(542,1152,o),
(547,1152,c),
(606,1127,o),
(651,1069,o),
(688,982,cs),
(693,969,o),
(717,958,o),
(741,958,cs),
(754,958,o),
(768,962,o),
(768,978,cs),
(768,1005,o),
(764,1035,o),
(755,1067,cs),
(746,1099,o),
(738,1127,o),
(731,1152,cs),
(726,1170,o),
(712,1191,o),
(692,1195,c),
(663,1208,o),
(622,1224,o),
(568,1235,cs),
(561,1236,o),
(557,1241,o),
(557,1248,c),
(564,1282,o),
(570,1332,o),
(570,1366,cs),
(570,1379,o),
(558,1395,o),
(545,1395,cs),
(518,1395,o),
(493,1388,o),
(488,1362,c),
(474,1250,l),
(474,1243,o),
(468,1239,o),
(455,1239,cs),
(303,1231,o),
(199,1166,o),
(148,1070,cs),
(123,1023,o),
(110,970,o),
(110,913,cs),
(110,814,o),
(163,741,o),
(241,684,cs),
(281,655,o),
(322,628,o),
(363,604,cs),
(385,591,o),
(389,581,o),
(386,570,c),
(333,122,ls),
(333,118,o),
(331,116,o),
(327,116,cs),
(323,116,o),
(319,117,o),
(316,118,cs),
(243,146,o),
(180,218,o),
(143,345,c),
(140,362,o),
(126,365,o),
(114,365,cs),
(90,365,o),
(78,357,o),
(78,341,c),
(81,316,o),
(83,285,o),
(84,248,cs),
(85,211,o),
(89,180,o),
(96,155,cs),
(101,142,o),
(112,129,o),
(120,120,c),
(171,78,o),
(237,48,o),
(310,35,c),
(315,35,o),
(326,31,o),
(323,18,c),
(306,-122,ls),
(303,-148,o),
(319,-161,o),
(335,-161,cs)
);
},
{
closed = 1;
nodes = (
(419,104,o),
(414,110,o),
(414,123,c),
(463,527,l),
(463,539,o),
(468,542,o),
(476,537,cs),
(569,479,o),
(625,430,o),
(625,310,cs),
(625,187,o),
(544,112,o),
(429,104,cs)
);
},
{
closed = 1;
nodes = (
(316,847,o),
(263,901,o),
(263,974,cs),
(263,1113,o),
(342,1158,o),
(445,1166,cs),
(454,1166,o),
(459,1161,o),
(459,1150,c),
(415,794,l),
(415,787,o),
(409,787,o),
(398,792,c)
);
}
);
width = 917;
},
{
layerId = "088BD936-56BA-4CBD-9590-2DD048370D9B";
shapes = (
{
closed = 1;
nodes = (
(370,-161,o),
(395,-154,o),
(398,-135,cs),
(414,12,ls),
(415,19,o),
(420,24,o),
(428,24,cs),
(662,36,o),
(820,160,o),
(820,385,cs),
(820,496,o),
(781,576,o),
(699,648,cs),
(659,683,o),
(609,718,o),
(549,753,c),
(529,767,o),
(516,777,o),
(511,783,cs),
(506,788,o),
(504,798,o),
(505,808,cs),
(543,1129,ls),
(544,1138,o),
(547,1141,o),
(556,1140,c),
(625,1114,o),
(674,1047,o),
(710,944,cs),
(716,927,o),
(740,918,o),
(761,918,cs),
(779,918,o),
(793,926,o),
(793,939,cs),
(793,1017,o),
(781,1091,o),
(768,1140,cs),
(759,1172,o),
(747,1185,o),
(722,1193,cs),
(688,1207,o),
(634,1227,o),
(572,1238,cs),
(564,1240,o),
(558,1245,o),
(558,1253,c),
(563,1284,o),
(566,1319,o),
(569,1350,cs),
(572,1374,o),
(562,1395,o),
(540,1395,cs),
(505,1395,o),
(476,1384,o),
(473,1359,cs),
(462,1255,l),
(462,1247,o),
(454,1241,o),
(442,1240,cs),
(231,1220,o),
(87,1083,o),
(87,898,cs),
(87,777,o),
(145,693,o),
(226,631,cs),
(267,600,o),
(310,571,o),
(355,545,cs),
(374,533,o),
(377,524,o),
(374,511,c),
(333,146,ls),
(331,134,o),
(324,134,o),
(315,137,c),
(232,175,o),
(164,265,o),
(126,393,c),
(118,409,o),
(109,415,o),
(90,415,cs),
(66,415,o),
(54,407,o),
(54,391,cs),
(53,307,o),
(59,211,o),
(81,149,cs),
(87,133,o),
(101,119,o),
(116,107,c),
(174,69,o),
(238,43,o),
(307,30,cs),
(317,28,o),
(320,24,o),
(319,15,cs),
(305,-112,ls),
(302,-138,o),
(316,-161,o),
(344,-161,cs)
);
},
{
closed = 1;
nodes = (
(434,116,o),
(428,122,o),
(429,137,cs),
(466,460,ls),
(467,473,o),
(471,476,o),
(481,470,cs),
(555,421,o),
(592,374,o),
(592,284,cs),
(592,198,o),
(542,129,o),
(448,116,c)
);
},
{
closed = 1;
nodes = (
(344,894,o),
(311,934,o),
(311,988,cs),
(311,1082,o),
(357,1130,o),
(433,1145,cs),
(444,1147,o),
(448,1142,o),
(446,1128,cs),
(414,856,l),
(414,846,o),
(410,844,o),
(401,851,cs)
);
}
);
width = 960;
}
);
note = dollar;
unicode = 36;
}
{
glyphname = percent;
layers = (
{
background = {
shapes = (
{
closed = 1;
nodes = (
(418,-65,o),
(423,-65,qs),
(430,-65,l),
(660,288,l),
(859,617,l),
(1296,1302,l),
(1290,1302,o),
(1243,1305,q),
(1233,1304,l),
(1033,1033,o),
(586,275,qs),
(561,234,o),
(426,31,o),
(419,20,qs),
(400,-12,o),
(376,-48,o),
(367,-67,q),
(375,-67,ls)
);
},
{
closed = 1;
nodes = (
(561,1121,qs),
(525,1212,o),
(402,1304,o),
(332,1304,qs),
(263,1304,o),
(143,1216,o),
(113,1146,qs),
(74,1052,o),
(74,944,qs),
(74,788,o),
(227,609,o),
(327,609,qs),
(425,609,o),
(584,796,o),
(584,954,qs),
(584,1060,o)
);
},
{
closed = 1;
nodes = (
(428,692,qs),
(394,644,o),
(326,644,qs),
(267,644,o),
(189,756,o),
(189,931,qs),
(189,1153,o),
(265,1268,o),
(332,1268,qs),
(382,1268,o),
(450,1204,o),
(464,1128,qs),
(472,1083,o),
(472,935,qs),
(472,755,o)
);
},
{
closed = 1;
nodes = (
(1593,496,qs),
(1558,588,o),
(1434,680,o),
(1364,680,qs),
(1295,680,o),
(1175,591,o),
(1146,522,qs),
(1106,428,o),
(1106,319,qs),
(1106,164,o),
(1260,-15,o),
(1359,-15,qs),
(1457,-15,o),
(1617,171,o),
(1617,329,qs),
(1617,436,o)
);
},
{
closed = 1;
nodes = (
(1460,67,qs),
(1426,19,o),
(1359,19,qs),
(1299,19,o),
(1221,131,o),
(1221,307,qs),
(1221,529,o),
(1298,643,o),
(1364,643,qs),
(1414,643,o),
(1482,580,o),
(1496,503,qs),
(1505,458,o),
(1505,311,qs),
(1505,130,o)
);
}
);
};
layerId = m01;
shapes = (
{
alignment = -1;
ref = zero.ordn;
},
{
alignment = -1;
pos = (557,0);
ref = fraction;
},
{
alignment = -1;
pos = (686,-549);
ref = zero.ordn;
}
);
width = 1685;
},
{
layerId = "088BD936-56BA-4CBD-9590-2DD048370D9B";
shapes = (
{
alignment = -1;
ref = zero.ordn;
},
{
alignment = -1;
pos = (635,0);
ref = fraction;
},
{
alignment = -1;
pos = (701,-549);
ref = zero.ordn;
}
);
width = 1707;
}
);
note = percent;
unicode = 37;
}
{
glyphname = ampersand;
layers = (
{
background = {
shapes = (
{
closed = 1;
nodes = (
(335,676,qs),
(253,635,o),
(232,621,qs),
(171,579,o),
(99,500,o),
(55,389,o),
(55,329,qs),
(55,251,o),
(132,79,o),
(303,-29,o),
(432,-29,qs),
(537,-29,o),
(700,29,o),
(769,80,qs),
(808,109,o),
(888,189,q),
(902,177,o),
(947,133,qs),
(1018,64,o),
(1048,42,qs),
(1100,5,o),
(1197,-30,o),
(1253,-30,qs),
(1344,-30,o),
(1420,33,qs),
(1439,48,o),
(1461,142,q),
(1449,146,o),
(1444,146,qs),
(1430,146,o),
(1398,121,qs),
(1350,82,o),
(1285,82,qs),
(1226,82,o),
(1123,151,o),
(996,303,q),
(1068,402,o),
(1269,637,o),
(1368,714,o),
(1438,744,q),
(1442,755,o),
(1442,761,q),
(1440,773,l),
(1326,764,o),
(1198,760,o),
(1163,755,qs),
(1048,744,l),
(1046,735,l),
(1046,730,o),
(1050,720,q),
(1095,708,o),
(1132,666,o),
(1132,637,qs),
(1132,595,o),
(1051,438,o),
(966,342,q),
(795,555,ls),
(782,572,o),
(756,601,qs),
(679,688,o),
(644,737,q),
(750,784,o),
(842,904,o),
(842,994,qs),
(842,1089,o),
(705,1217,o),
(580,1217,qs),
(445,1217,o),
(299,1085,o),
(299,997,qs),
(299,946,o),
(352,832,o),
(446,712,q),
(386,701,o)
);
},
{
closed = 1;
nodes = (
(474,933,qs),
(434,996,o),
(434,1049,qs),
(434,1100,o),
(510,1173,o),
(571,1173,qs),
(639,1173,o),
(727,1072,o),
(727,977,qs),
(727,913,o),
(663,799,o),
(607,775,q),
(531,845,o)
);
},
{
closed = 1;
nodes = (
(655,92,o),
(557,92,qs),
(472,92,o),
(340,144,o),
(254,237,o),
(221,335,o),
(221,362,qs),
(221,459,o),
(350,633,o),
(475,680,q),
(586,558,o),
(627,507,qs),
(850,241,l),
(853,237,l),
(861,226,l),
(814,169,o)
);
}
);
};
layerId = m01;
shapes = (
{
closed = 1;
nodes = (
(539,-29,o),
(618,23,o),
(693,102,cs),
(730,141,o),
(769,183,o),
(809,227,cs),
(821,239,l),
(847,198,ls),
(915,94,o),
(961,29,o),
(1027,-4,cs),
(1059,-20,o),
(1100,-29,o),
(1148,-29,cs),
(1254,-29,o),
(1401,67,o),
(1401,100,cs),
(1401,119,o),
(1395,123,o),
(1378,123,cs),
(1367,123,o),
(1354,119,o),
(1344,114,cs),
(1297,87,o),
(1247,78,o),
(1192,78,cs),
(1092,78,o),
(1017,156,o),
(933,276,cs),
(900,323,l),
(900,323,o),
(970,402,o),
(1116,554,cs),
(1150,589,o),
(1181,621,o),
(1206,647,cs),
(1231,673,o),
(1245,688,o),
(1250,692,cs),
(1282,720,o),
(1332,750,o),
(1393,753,c),
(1412,756,o),
(1442,774,o),
(1442,790,cs),
(1442,798,o),
(1424,807,o),
(1419,807,cs),
(1369,807,o),
(1296,778,o),
(1231,778,cs),
(1198,778,o),
(1119,788,o),
(1092,788,cs),
(1084,788,o),
(1048,787,o),
(1048,766,cs),
(1048,761,o),
(1066,748,o),
(1072,745,c),
(1105,740,o),
(1127,706,o),
(1127,690,cs),
(1127,667,o),
(1034,529,o),
(911,396,cs),
(876,359,l),
(853,394,ls),
(814,451,o),
(773,500,o),
(733,539,cs),
(693,578,o),
(647,625,o),
(598,678,cs),
(572,706,l),
(600,715,ls),
(731,763,o),
(808,834,o),
(805,935,cs),
(805,1003,o),
(769,1085,o),
(696,1136,cs),
(659,1162,o),
(613,1174,o),
(557,1174,cs),
(411,1174,o),
(284,1079,o),
(284,949,cs),
(284,873,o),
(323,815,o),
(364,773,cs),
(384,752,o),
(400,734,o),
(412,719,cs),
(441,688,l),
(402,670,ls),
(215,585,o),
(74,458,o),
(74,249,cs),
(74,142,o),
(136,55,o),
(239,7,cs),
(291,-17,o),
(349,-29,o),
(415,-29,cs)
);
},
{
closed = 1;
nodes = (
(323,98,o),
(225,193,o),
(225,314,cs),
(225,391,o),
(237,479,o),
(295,550,cs),
(325,587,o),
(370,616,o),
(429,639,cs),
(470,655,l),
(494,629,ls),
(550,569,o),
(603,514,o),
(652,463,cs),
(701,412,o),
(741,362,o),
(774,312,cs),
(798,274,l),
(780,257,ls),
(683,155,o),
(597,98,o),
(466,98,cs)
);
},
{
closed = 1;
nodes = (
(447,843,o),
(417,885,o),
(406,927,cs),
(401,947,o),
(398,971,o),
(398,998,cs),
(398,1067,o),
(468,1123,o),
(547,1123,cs),
(638,1123,o),
(680,1036,o),
(680,945,cs),
(680,866,o),
(645,782,o),
(572,749,cs),
(547,737,l),
(515,770,l),
(515,770,l)
);
}
);
width = 1493;
},
{
layerId = "088BD936-56BA-4CBD-9590-2DD048370D9B";
shapes = (
{
closed = 1;
nodes = (
(569,-30,o),
(697,55,o),
(813,188,cs),
(824,200,l),
(857,159,ls),
(925,75,o),
(979,19,o),
(1051,-8,cs),
(1088,-22,o),
(1130,-29,o),
(1181,-29,cs),
(1293,-29,o),
(1390,19,o),
(1445,71,cs),
(1474,98,o),
(1487,119,o),
(1487,135,cs),
(1487,158,o),
(1476,162,o),
(1456,162,cs),
(1449,162,o),
(1442,161,o),
(1434,158,cs),
(1426,155,o),
(1419,153,o),
(1413,151,cs),
(1361,129,o),
(1308,120,o),
(1259,120,cs),
(1176,120,o),
(1103,200,o),
(1021,304,cs),
(985,349,l),
(1019,380,o),
(1088,444,o),
(1174,527,cs),
(1224,575,o),
(1268,617,o),
(1294,641,cs),
(1335,681,o),
(1390,723,o),
(1466,734,cs),
(1500,740,o),
(1528,762,o),
(1528,784,cs),
(1528,795,o),
(1514,807,o),
(1498,807,cs),
(1429,807,o),
(1338,768,o),
(1259,768,cs),
(1200,768,o),
(1133,782,o),
(1082,782,cs),
(1057,782,o),
(1027,781,o),
(1027,755,cs),
(1027,738,o),
(1046,730,o),
(1063,722,c),
(1094,714,o),
(1119,691,o),
(1119,659,cs),
(1119,617,o),
(1051,504,o),
(974,430,cs),
(945,401,l),
(912,439,ls),
(877,480,o),
(841,520,o),
(802,560,cs),
(763,600,o),
(724,640,o),
(686,679,cs),
(649,718,l),
(689,733,ls),
(818,780,o),
(897,841,o),
(896,956,cs),
(896,1076,o),
(775,1175,o),
(605,1175,cs),
(415,1175,o),
(267,1074,o),
(267,936,cs),
(267,860,o),
(305,800,o),
(347,755,cs),
(368,733,o),
(384,715,o),
(398,700,cs),
(417,680,l),
(377,662,ls),
(185,571,o),
(64,422,o),
(64,254,cs),
(64,73,o),
(233,-30,o),
(409,-30,cs)
);
},
{
closed = 1;
nodes = (
(391,142,o),
(299,237,o),
(299,383,cs),
(299,477,o),
(327,564,o),
(420,608,cs),
(457,627,l),
(480,600,ls),
(579,490,o),
(669,390,o),
(749,288,cs),
(777,250,l),
(763,235,ls),
(691,162,o),
(613,142,o),
(531,142,cs)
);
},
{
closed = 1;
nodes = (
(543,836,o),
(514,868,o),
(499,915,cs),
(491,940,o),
(487,967,o),
(487,1000,cs),
(487,1064,o),
(540,1109,o),
(595,1109,cs),
(671,1109,o),
(703,1034,o),
(701,952,cs),
(701,884,o),
(680,809,o),
(635,779,c),
(614,762,l),
(576,799,l),
(576,799,l)
);
}
);
width = 1643;
}
);
note = ampersand;
unicode = 38;
}
{
glyphname = quotesingle;
layers = (
{
background = {
shapes = (
{
closed = 1;
nodes = (
(256,1098,ls),
(282,1242,o),
(282,1282,qs),
(282,1328,o),
(223,1387,o),
(178,1387,qs),
(133,1387,o),
(81,1329,o),
(81,1265,qs),
(81,1222,o),
(104,1099,qs),
(158,803,l),
(202,803,l)
);
}
);
};
layerId = m01;
shapes = (
{
closed = 1;
nodes = (
(152,870,o),
(169,897,o),
(178,919,cs),
(211,991,o),
(270,1161,o),
(270,1262,cs),
(270,1297,o),
(264,1325,o),
(243,1325,cs),
(211,1325,o),
(189,1309,o),
(159,1284,cs),
(142,1270,o),
(122,1244,o),
(122,1215,c),
(122,1215,o),
(129,1152,o),
(129,1027,cs),
(129,974,ls),
(129,956,o),
(128,936,o),
(127,915,cs),
(127,898,o),
(130,870,o),
(141,870,cs)
);
}
);
width = 363;
},
{
layerId = "088BD936-56BA-4CBD-9590-2DD048370D9B";
shapes = (
{
closed = 1;
nodes = (
(165,815,o),
(193,846,o),
(206,873,cs),
(250,959,o),
(327,1149,o),
(327,1266,cs),
(327,1303,o),
(311,1336,o),
(283,1336,cs),
(239,1336,o),
(212,1319,o),
(171,1290,cs),
(149,1276,o),
(121,1247,o),
(121,1211,cs),
(121,1161,o),
(130,1076,o),
(130,992,cs),
(132,933,ls),
(133,915,o),
(133,891,o),
(132,867,cs),
(132,848,o),
(137,815,o),
(153,815,cs)
);
}
);
width = 576;
}
);
note = quotesingle;
unicode = 39;
}
{
glyphname = parenleft;
layers = (
{
background = {
shapes = (
{
closed = 1;
nodes = (
(469,1199,qs),
(364,1084,o),
(309,985,qs),
(227,838,o),
(157,546,o),
(157,410,qs),
(157,328,o),
(191,141,qs),
(213,19,o),
(340,-237,o),
(454,-372,qs),
(520,-451,o),
(607,-502,q),
(628,-454,l),
(614,-440,ls),
(589,-415,o),
(579,-406,qs),
(522,-356,o),
(483,-299,qs),
(397,-176,o),
(292,58,o),
(251,266,o),
(251,377,qs),
(251,539,o),
(301,778,o),
(387,961,o),
(478,1092,qs),
(513,1143,o),
(579,1205,qs),
(623,1245,o),
(634,1256,q),
(619,1282,o),
(608,1309,q),
(535,1271,o)
);
}
);
};
layerId = m01;
shapes = (
{
closed = 1;
nodes = (
(491,-419,o),
(517,-403,o),
(517,-376,cs),
(517,-374,o),
(502,-353,o),
(488,-339,c),
(428,-268,o),
(367,-133,o),
(320,33,cs),
(272,199,o),
(241,383,o),
(241,551,cs),
(241,772,o),
(297,974,o),
(376,1129,cs),
(415,1205,o),
(454,1266,o),
(494,1313,c),
(488,1307,o),
(519,1345,o),
(519,1350,cs),
(519,1369,o),
(489,1382,o),
(476,1382,cs),
(459,1382,o),
(436,1373,o),
(423,1360,cs),
(278,1215,o),
(78,858,o),
(78,527,cs),
(78,334,o),
(147,95,o),
(247,-114,cs),
(310,-245,o),
(376,-351,o),
(431,-406,cs),
(441,-415,o),
(451,-419,o),
(464,-419,cs)
);
}
);
width = 597;
},
{
layerId = "088BD936-56BA-4CBD-9590-2DD048370D9B";
shapes = (
{
closed = 1;
nodes = (
(507,-420,o),
(547,-395,o),
(547,-354,cs),
(547,-349,o),
(531,-331,o),
(503,-296,cs),
(392,-161,o),
(288,243,o),
(288,537,cs),
(288,761,o),
(340,957,o),
(410,1103,cs),
(445,1176,o),
(480,1234,o),
(515,1278,c),
(514,1277,o),
(553,1327,o),
(553,1335,cs),
(553,1362,o),
(509,1383,o),
(488,1383,cs),
(457,1383,o),
(424,1368,o),
(406,1350,cs),
(263,1207,o),
(72,853,o),
(72,524,cs),
(72,323,o),
(144,89,o),
(236,-110,cs),
(296,-239,o),
(361,-345,o),
(416,-400,cs),
(431,-414,o),
(447,-420,o),
(467,-420,cs)
);
}
);
width = 725;
}
);
note = parenleft;
unicode = 40;
}
{
glyphname = parenright;
kernLeft = parenright;
layers = (
{
background = {
shapes = (
{
closed = 1;
nodes = (
(-18,-500,q),
(53,-462,o),
(104,-410,qs),
(222,-290,o),
(287,-172,qs),
(372,-18,o),
(438,273,o),
(438,389,qs),
(438,481,o),
(405,669,qs),
(384,791,o),
(248,1063,o),
(143,1184,qs),
(74,1263,o),
(-7,1311,q),
(-27,1262,l),
(90,1145,o),
(102,1128,qs),
(168,1041,o),
(291,792,o),
(345,563,o),
(345,409,qs),
(345,277,o),
(296,39,o),
(249,-62,qs),
(215,-135,o),
(121,-273,qs),
(76,-340,o),
(8,-399,qs),
(-13,-418,o),
(-44,-448,q),
(-28,-475,o)
);
}
);
};
layerId = m01;
shapes = (
{
closed = 1;
nodes = (
(166,-419,o),
(176,-415,o),
(186,-406,cs),
(270,-322,o),
(382,-117,o),
(456,95,cs),
(507,242,o),
(539,394,o),
(539,527,cs),
(539,858,o),
(339,1215,o),
(194,1360,c),
(183,1374,o),
(162,1382,o),
(141,1382,cs),
(128,1382,o),
(98,1369,o),
(98,1350,cs),
(98,1345,o),
(114,1331,o),
(123,1313,c),
(205,1220,o),
(287,1063,o),
(338,865,cs),
(363,767,o),
(376,662,o),
(376,551,cs),
(376,383,o),
(345,199,o),
(298,33,cs),
(251,-134,o),
(189,-268,o),
(129,-339,c),
(129,-343,o),
(100,-370,o),
(100,-376,cs),
(100,-403,o),
(126,-419,o),
(153,-419,cs)
);
}
);
width = 597;
},
{
layerId = "088BD936-56BA-4CBD-9590-2DD048370D9B";
shapes = (
{
closed = 1;
nodes = (
(154,-420,o),
(170,-414,o),
(185,-400,cs),
(266,-319,o),
(372,-122,o),
(447,97,cs),
(497,242,o),
(529,393,o),
(529,524,cs),
(529,853,o),
(338,1207,o),
(195,1350,cs),
(177,1369,o),
(144,1383,o),
(113,1383,cs),
(91,1383,o),
(48,1362,o),
(48,1335,cs),
(48,1326,o),
(77,1296,o),
(86,1278,c),
(157,1191,o),
(232,1040,o),
(278,849,cs),
(301,754,o),
(313,649,o),
(313,537,cs),
(313,244,o),
(210,-160,o),
(98,-296,c),
(94,-306,o),
(53,-346,o),
(53,-354,cs),
(53,-395,o),
(94,-420,o),
(134,-420,cs)
);
}
);
width = 725;
}
);
note = parenright;
unicode = 41;
}
{
glyphname = asterisk;
kernLeft = asterisk;
layers = (
{
background = {
shapes = (
{
closed = 1;
nodes = (
(194,709,o),
(360,818,o),
(400,838,q),
(398,793,l),
(393,560,l),
(393,533,ls),
(393,518,o),
(394,498,q),
(426,492,o),
(442,492,qs),
(471,493,l),
(471,523,o),
(466,557,qs),
(459,617,o),
(459,818,qs),
(460,846,l),
(508,826,o),
(585,771,qs),
(605,757,o),
(752,665,o),
(763,659,q),
(787,695,o),
(803,724,q),
(777,742,o),
(763,751,qs),
(753,756,o),
(713,775,q),
(610,832,ls),
(601,837,o),
(553,860,qs),
(520,876,o),
(490,895,q),
(499,901,o),
(604,955,qs),
(787,1049,o),
(805,1060,q),
(786,1095,o),
(767,1127,q),
(585,1031,o),
(495,964,qs),
(480,952,o),
(460,941,q),
(456,966,o),
(456,979,qs),
(456,987,o),
(458,1004,q),
(465,1152,ls),
(471,1252,o),
(471,1272,qs),
(471,1293,l),
(435,1294,o),
(394,1293,q),
(399,1235,o),
(399,1184,qs),
(397,1085,l),
(398,978,ls),
(398,972,o),
(397,942,q),
(344,971,o),
(105,1133,q),
(85,1101,o),
(68,1063,q),
(206,989,o),
(222,979,qs),
(305,930,o),
(311,927,qs),
(349,906,o),
(370,892,q),
(358,883,l),
(104,759,o),
(59,725,q),
(95,660,l)
);
}
);
};
layerId = m01;
shapes = (
{
closed = 1;
nodes = (
(384,729,o),
(394,751,o),
(394,772,cs),
(391,841,o),
(387,900,o),
(382,954,c),
(408,944,o),
(435,934,o),
(464,923,cs),
(493,912,o),
(522,900,o),
(553,886,cs),
(567,881,o),
(602,886,o),
(602,911,cs),
(602,924,o),
(591,942,o),
(578,947,c),
(518,983,o),
(470,1005,o),
(417,1029,c),
(561,1143,l),
(572,1154,o),
(578,1165,o),
(578,1176,cs),
(578,1197,o),
(559,1203,o),
(543,1203,cs),
(535,1203,o),
(526,1200,o),
(521,1195,c),
(464,1162,o),
(411,1129,o),
(366,1097,c),
(341,1278,ls),
(338,1297,o),
(325,1313,o),
(308,1313,cs),
(284,1313,o),
(274,1291,o),
(274,1270,cs),
(277,1201,o),
(281,1142,o),
(286,1088,c),
(261,1098,o),
(234,1109,o),
(206,1120,cs),
(178,1131,o),
(148,1143,o),
(116,1156,cs),
(101,1161,o),
(67,1159,o),
(67,1131,cs),
(67,1118,o),
(77,1100,o),
(90,1096,c),
(149,1062,o),
(202,1037,o),
(251,1013,c),
(108,900,l),
(96,888,o),
(90,877,o),
(90,866,cs),
(90,849,o),
(110,839,o),
(125,839,cs),
(133,839,o),
(142,842,o),
(147,847,c),
(207,883,o),
(257,913,o),
(302,945,c),
(327,764,ls),
(330,746,o),
(342,729,o),
(361,729,cs)
);
}
);
width = 875;
},
{
layerId = "088BD936-56BA-4CBD-9590-2DD048370D9B";
shapes = (
{
closed = 1;
nodes = (
(416,699,o),
(432,731,o),
(432,762,cs),
(431,791,o),
(430,820,o),
(428,849,cs),
(425,880,o),
(423,901,o),
(422,918,c),
(468,902,o),
(514,884,o),
(564,865,c),
(607,857,o),
(644,872,o),
(644,912,cs),
(644,936,o),
(629,956,o),
(604,967,c),
(581,980,o),
(555,993,o),
(530,1004,cs),
(503,1016,o),
(484,1025,o),
(469,1033,c),
(586,1129,ls),
(603,1144,o),
(611,1161,o),
(611,1180,cs),
(611,1211,o),
(587,1229,o),
(560,1229,cs),
(546,1229,o),
(533,1223,o),
(520,1214,cs),
(496,1199,o),
(473,1185,o),
(448,1168,cs),
(424,1152,o),
(405,1139,o),
(393,1131,c),
(372,1281,l),
(370,1310,o),
(349,1335,o),
(318,1337,c),
(280,1335,o),
(264,1302,o),
(264,1270,cs),
(265,1213,o),
(268,1167,o),
(271,1118,c),
(249,1126,o),
(227,1135,o),
(203,1145,cs),
(179,1155,o),
(156,1164,o),
(131,1174,cs),
(88,1189,o),
(49,1172,o),
(49,1132,cs),
(49,1109,o),
(65,1085,o),
(86,1075,cs),
(111,1062,o),
(137,1049,o),
(163,1036,cs),
(189,1023,o),
(208,1013,o),
(221,1005,c),
(103,911,ls),
(85,897,o),
(75,879,o),
(75,858,cs),
(75,831,o),
(100,813,o),
(125,813,cs),
(140,813,o),
(153,817,o),
(164,824,cs),
(190,839,o),
(215,854,o),
(240,870,cs),
(264,885,o),
(283,897,o),
(298,905,c),
(323,754,ls),
(327,723,o),
(352,699,o),
(380,699,cs)
);
}
);
width = 1003;
}
);
note = asterisk;
unicode = 42;
}
{
glyphname = plus;
layers = (
{
background = {
shapes = (
{
closed = 1;
nodes = (
(637,590,l),
(637,101,l),
(725,101,l),
(725,590,l),
(1220,590,l),
(1220,678,l),
(725,678,l),
(725,1173,l),
(637,1173,l),
(637,678,l),
(145,678,l),
(145,590,l)
);
}
);
};
layerId = m01;
shapes = (
{
closed = 1;
nodes = (
(581,-16,o),
(647,-7,o),
(647,31,cs),
(647,427,ls),
(647,432,o),
(650,435,o),
(655,435,cs),
(1017,435,ls),
(1054,435,o),
(1078,480,o),
(1078,513,cs),
(1078,526,o),
(1065,533,o),
(1052,533,cs),
(651,533,ls),
(648,533,o),
(647,537,o),
(647,545,cs),
(647,919,ls),
(647,932,o),
(632,945,o),
(619,945,cs),
(595,945,o),
(529,924,o),
(529,884,cs),
(529,549,ls),
(529,538,o),
(528,533,o),
(515,533,cs),
(145,533,ls),
(113,533,o),
(98,484,o),
(98,459,cs),
(98,448,o),
(113,435,o),
(125,435,cs),
(521,435,ls),
(526,435,o),
(529,432,o),
(529,425,cs),
(529,12,ls),
(529,-1,o),
(542,-16,o),
(553,-16,cs)
);
}
);
width = 1365;
},
{
layerId = "088BD936-56BA-4CBD-9590-2DD048370D9B";
shapes = (
{
closed = 1;
nodes = (
(598,-21,o),
(652,-1,o),
(652,32,cs),
(652,412,ls),
(652,425,o),
(658,431,o),
(671,431,cs),
(1043,431,ls),
(1081,431,o),
(1108,485,o),
(1108,518,cs),
(1108,537,o),
(1089,546,o),
(1070,546,cs),
(670,546,ls),
(658,546,o),
(652,553,o),
(652,567,cs),
(652,944,ls),
(652,964,o),
(640,982,o),
(622,982,cs),
(582,982,o),
(530,952,o),
(530,918,cs),
(530,569,ls),
(530,553,o),
(529,546,o),
(508,546,cs),
(126,546,ls),
(92,546,o),
(73,490,o),
(73,456,cs),
(73,446,o),
(88,431,o),
(104,431,cs),
(511,431,ls),
(524,431,o),
(530,425,o),
(530,412,cs),
(530,11,ls),
(530,-6,o),
(545,-21,o),
(556,-21,cs)
);
}
);
width = 1365;
}
);
note = plus;
unicode = 43;
}
{
glyphname = comma;
kernLeft = period;
kernRight = uniA72E;
layers = (
{
background = {
shapes = (
{
closed = 1;
nodes = (
(308,-267,o),
(388,-125,o),
(388,-64,qs),
(388,24,o),
(276,141,o),
(200,141,qs),
(157,141,o),
(117,106,qs),
(98,89,o),
(98,42,qs),
(98,23,o),
(108,2,q),
(123,-14,o),
(133,-18,qs),
(148,-24,o),
(245,-45,o),
(265,-66,qs),
(285,-87,o),
(285,-115,qs),
(285,-157,o),
(214,-264,o),
(109,-314,qs),
(97,-319,o),
(85,-325,q),
(84,-356,l),
(146,-355,o)
);
}
);
};
layerId = m01;
shapes = (
{
closed = 1;
nodes = (
(172,-288,o),
(357,-160,o),
(357,39,cs),
(357,150,o),
(289,229,o),
(194,229,cs),
(137,229,o),
(86,191,o),
(86,139,cs),
(86,98,o),
(121,62,o),
(178,57,cs),
(224,54,o),
(255,2,o),
(255,-29,cs),
(255,-121,o),
(210,-178,o),
(153,-209,cs),
(124,-225,o),
(96,-236,o),
(67,-243,cs),
(48,-246,o),
(39,-256,o),
(39,-267,cs),
(39,-281,o),
(51,-288,o),
(74,-288,cs)
);
}
);
width = 448;
},
{
layerId = "088BD936-56BA-4CBD-9590-2DD048370D9B";
shapes = (
{
closed = 1;
nodes = (
(235,-314,o),
(410,-173,o),
(410,33,cs),
(410,152,o),
(332,233,o),
(219,233,cs),
(151,233,o),
(89,183,o),
(89,119,cs),
(89,61,o),
(128,23,o),
(174,13,cs),
(220,3,o),
(255,-29,o),
(255,-73,cs),
(255,-169,o),
(187,-227,o),
(82,-256,c),
(58,-261,o),
(42,-268,o),
(42,-286,cs),
(42,-305,o),
(57,-314,o),
(88,-314,cs)
);
}
);
width = 533;
}
);
note = comma;
unicode = 44;
}
{
glyphname = hyphen;
layers = (
{
background = {
shapes = (
{
closed = 1;
nodes = (
(76,396,qs),
(78,367,l),
(125,356,o),
(250,356,qs),
(275,356,o),
(293,357,qs),
(335,358,ls),
(345,358,o),
(393,355,qs),
(429,352,o),
(464,352,qs),
(502,352,o),
(564,357,q),
(562,436,l),
(528,445,o),
(457,445,qs),
(406,443,l),
(308,446,l),
(174,441,l),
(96,442,l),
(82,442,l),
(76,413,o)
);
}
);
};
layerId = m01;
shapes = (
{
closed = 1;
nodes = (
(202,346,o),
(321,363,o),
(439,382,cs),
(470,387,o),
(480,439,o),
(480,488,cs),
(480,496,o),
(472,500,o),
(464,500,c),
(401,493,o),
(339,486,o),
(276,477,cs),
(213,468,o),
(151,460,o),
(88,451,cs),
(69,448,o),
(57,389,o),
(57,345,cs),
(57,337,o),
(61,333,o),
(69,333,c)
);
}
);
width = 640;
},
{
layerId = "088BD936-56BA-4CBD-9590-2DD048370D9B";
shapes = (
{
closed = 1;
nodes = (
(211,337,o),
(374,361,o),
(510,381,cs),
(526,384,o),
(536,394,o),
(541,410,cs),
(546,426,o),
(549,453,o),
(549,489,cs),
(549,506,o),
(544,517,o),
(522,515,cs),
(384,503,o),
(230,482,o),
(93,461,cs),
(79,459,o),
(70,447,o),
(63,427,cs),
(56,407,o),
(52,378,o),
(52,342,cs),
(52,329,o),
(57,323,o),
(70,324,cs)
);
}
);
width = 683;
}
);
note = hyphen;
unicode = 45;
}
{
glyphname = period;
kernLeft = period;
kernRight = uniA72E;
layers = (
{
background = {
shapes = (
{
closed = 1;
nodes = (
(182,-29,o),
(224,-29,qs),
(267,-29,o),
(328,35,o),
(328,82,qs),
(328,129,o),
(270,191,o),
(228,191,qs),
(185,191,o),
(120,125,o),
(120,81,qs),
(120,36,o)
);
}
);
};
layerId = m01;
shapes = (
{
closed = 1;
nodes = (
(285,-27,o),
(333,23,o),
(333,80,cs),
(333,140,o),
(285,188,o),
(225,188,cs),
(168,188,o),
(118,140,o),
(118,80,cs),
(118,23,o),
(168,-27,o),
(225,-27,cs)
);
}
);
width = 448;
},
{
layerId = "088BD936-56BA-4CBD-9590-2DD048370D9B";
shapes = (
{
closed = 1;
nodes = (
(321,-53,o),
(387,15,o),
(387,94,cs),
(387,179,o),
(321,245,o),
(237,245,cs),
(157,245,o),
(90,179,o),
(90,94,cs),
(90,15,o),
(157,-53,o),
(237,-53,cs)
);
}
);
width = 533;
}
);
note = period;
unicode = 46;
}
{
glyphname = one;
layers = (
{
background = {
shapes = (
{
closed = 1;
nodes = (
(727,34,o),
(717,43,qs),
(713,47,o),
(669,58,qs),
(601,72,l),
(570,83,o),
(564,90,qs),
(555,101,o),
(555,137,qs),
(555,152,o),
(557,217,o),
(557,249,qs),
(557,337,l),
(564,1228,ls),
(564,1281,o),
(551,1298,o),
(525,1298,qs),
(514,1298,o),
(494,1297,q),
(484,1291,o),
(394,1199,o),
(297,1118,qs),
(236,1068,o),
(228,1064,qs),
(175,1034,o),
(161,1021,qs),
(154,1015,o),
(154,1005,qs),
(154,997,o),
(172,980,o),
(180,980,qs),
(202,980,o),
(429,1142,q),
(427,983,o),
(427,953,qs),
(429,816,l),
(427,581,ls),
(426,321,o),
(425,287,qs),
(422,197,o),
(422,186,qs),
(422,124,ls),
(422,105,o),
(412,83,q),
(376,66,o),
(318,54,qs),
(281,47,o),
(267,34,o),
(267,17,qs),
(267,11,o),
(268,2,q),
(726,2,l),
(727,15,ls)
);
}
);
};
layerId = m01;
shapes = (
{
closed = 1;
nodes = (
(303,-6,o),
(387,4,o),
(504,4,cs),
(575,4,o),
(630,1,o),
(691,-3,cs),
(722,-5,o),
(755,-6,o),
(792,-6,cs),
(810,-6,o),
(819,1,o),
(819,16,cs),
(819,28,o),
(803,38,o),
(786,41,c),
(679,68,o),
(622,81,o),
(597,116,cs),
(585,132,o),
(578,157,o),
(578,190,cs),
(578,1092,ls),
(578,1147,o),
(581,1192,o),
(586,1231,c),
(589,1242,o),
(575,1248,o),
(562,1248,cs),
(561,1248,o),
(560,1248,o),
(558,1248,cs),
(556,1248,o),
(554,1247,o),
(553,1246,cs),
(464,1158,o),
(377,1144,o),
(259,1125,cs),
(232,1122,o),
(210,1107,o),
(210,1090,cs),
(210,1069,o),
(234,1059,o),
(261,1056,cs),
(319,1053,o),
(370,1046,o),
(402,1020,cs),
(417,1007,o),
(425,987,o),
(425,962,cs),
(425,214,ls),
(425,138,o),
(396,102,o),
(332,80,cs),
(300,69,o),
(259,56,o),
(210,43,cs),
(191,38,o),
(180,29,o),
(180,18,cs),
(180,7,o),
(191,-6,o),
(210,-6,cs)
);
}
);
width = 960;
},
{
layerId = "088BD936-56BA-4CBD-9590-2DD048370D9B";
shapes = (
{
closed = 1;
nodes = (
(314,-6,o),
(434,4,o),
(544,4,cs),
(655,4,o),
(772,-5,o),
(865,-5,cs),
(885,-5,o),
(895,4,o),
(895,22,cs),
(895,43,o),
(879,52,o),
(859,58,cs),
(778,80,o),
(719,96,o),
(688,128,cs),
(673,143,o),
(665,165,o),
(665,191,cs),
(665,1086,ls),
(665,1119,o),
(666,1147,o),
(669,1168,cs),
(672,1189,o),
(674,1209,o),
(675,1227,cs),
(676,1240,o),
(658,1247,o),
(639,1247,cs),
(632,1247,o),
(625,1245,o),
(620,1242,cs),
(506,1168,o),
(396,1137,o),
(251,1124,cs),
(219,1121,o),
(193,1106,o),
(193,1077,cs),
(193,1050,o),
(222,1039,o),
(244,1035,cs),
(302,1027,o),
(356,1016,o),
(387,985,cs),
(404,969,o),
(412,947,o),
(412,917,cs),
(412,199,ls),
(412,138,o),
(382,107,o),
(327,88,cs),
(298,78,o),
(266,69,o),
(226,58,cs),
(204,52,o),
(192,40,o),
(192,22,cs),
(192,6,o),
(208,-6,o),
(225,-6,cs)
);
}
);
width = 811;
}
);
note = one;
unicode = 49;
}
{
glyphname = two;
layers = (
{
background = {
shapes = (
{
closed = 1;
nodes = (
(888,139,qs),
(894,216,o),
(902,245,qs),
(904,253,l),
(904,258,o),
(899,268,q),
(889,269,o),
(884,269,qs),
(860,268,l),
(819,166,o),
(771,122,o),
(748,122,qs),
(609,125,ls),
(599,125,o),
(540,123,qs),
(508,121,o),
(481,121,qs),
(356,121,o),
(203,127,q),
(309,247,o),
(379,319,o),
(462,395,qs),
(714,627,o),
(854,852,o),
(854,961,qs),
(854,1099,o),
(649,1298,o),
(496,1298,qs),
(379,1298,o),
(202,1186,o),
(111,988,o),
(111,943,qs),
(111,930,o),
(126,913,o),
(134,913,qs),
(142,913,o),
(148,920,qs),
(152,924,o),
(173,972,qs),
(211,1059,o),
(234,1088,qs),
(270,1133,o),
(388,1192,o),
(451,1192,qs),
(556,1192,o),
(700,1048,o),
(700,942,qs),
(700,829,o),
(558,572,o),
(334,347,qs),
(174,186,o),
(91,84,qs),
(63,49,o),
(45,7,q),
(68,3,o),
(80,2,q),
(157,5,l),
(254,2,l),
(471,8,ls),
(723,8,o),
(873,2,q),
(884,94,o)
);
}
);
};
layerId = m01;
shapes = (
{
alignment = -1;
pos = (-8,0);
ref = two.lf;
}
);
width = 960;
},
{
layerId = "088BD936-56BA-4CBD-9590-2DD048370D9B";
shapes = (
{
alignment = -1;
pos = (-3,0);
ref = two.lf;
}
);
width = 960;
}
);
note = two;
unicode = 50;
}
{
glyphname = three;
layers = (
{
background = {
shapes = (
{
closed = 1;
nodes = (
(435,1201,qs),
(526,1201,o),
(638,1092,o),
(638,1013,qs),
(638,966,o),
(595,904,qs),
(535,818,o),
(413,729,qs),
(373,699,o),
(323,656,q),
(347,616,l),
(427,686,o),
(501,686,qs),
(600,686,o),
(729,517,o),
(729,385,qs),
(729,226,o),
(537,17,o),
(413,17,qs),
(331,17,o),
(220,102,qs),
(173,138,o),
(140,138,qs),
(114,138,o),
(79,104,o),
(79,83,qs),
(79,45,o),
(122,20,qs),
(201,-28,o),
(367,-28,qs),
(586,-28,o),
(869,247,o),
(869,440,qs),
(869,536,o),
(785,703,o),
(640,782,o),
(562,782,qs),
(538,781,l),
(662,873,o),
(761,1021,o),
(761,1094,qs),
(761,1184,o),
(664,1256,qs),
(599,1304,o),
(491,1304,qs),
(375,1304,o),
(201,1179,o),
(138,1026,q),
(171,1008,l),
(285,1201,o)
);
}
);
};
layerId = m01;
shapes = (
{
alignment = -1;
pos = (20,0);
ref = three.lf;
}
);
width = 960;
},
{
layerId = "088BD936-56BA-4CBD-9590-2DD048370D9B";
shapes = (
{
alignment = -1;
pos = (7,0);
ref = three.lf;
}
);
width = 960;
}
);
note = three;
unicode = 51;
}
{
glyphname = four;
layers = (
{
background = {
shapes = (
{
closed = 1;
nodes = (
(525,1095,o),
(427,969,o),
(355,862,qs),
(160,579,ls),
(85,466,o),
(57,429,q),
(55,407,o),
(55,396,qs),
(55,385,o),
(57,363,q),
(66,356,l),
(114,366,l),
(152,360,l),
(208,363,l),
(311,357,l),
(362,364,o),
(375,364,qs),
(388,364,o),
(489,359,qs),
(504,358,o),
(516,358,qs),
(539,358,o),
(581,363,q),
(579,325,o),
(579,307,qs),
(579,297,o),
(582,229,qs),
(584,192,o),
(584,147,qs),
(584,96,o),
(581,-22,q),
(622,-24,o),
(642,-24,qs),
(704,-22,l),
(711,-20,o),
(717,-14,q),
(715,221,o),
(717,363,q),
(760,361,o),
(776,361,qs),
(816,361,l),
(866,360,ls),
(871,360,o),
(933,363,q),
(935,394,o),
(935,409,qs),
(935,424,o),
(933,455,q),
(877,453,l),
(809,454,l),
(738,454,l),
(717,455,l),
(719,530,o),
(719,567,qs),
(717,725,l),
(717,841,l),
(713,988,l),
(719,1120,l),
(716,1267,ls),
(716,1273,o),
(717,1304,q),
(671,1304,l),
(621,1240,o)
);
},
{
closed = 1;
nodes = (
(495,453,qs),
(221,457,ls),
(199,457,o),
(155,455,q),
(186,507,o),
(353,757,qs),
(499,976,o),
(581,1084,q),
(581,749,l),
(582,619,l),
(581,455,l),
(525,453,o)
);
}
);
};
layerId = m01;
shapes = (
{
alignment = -1;
ref = four.lf;
}
);
width = 960;
},
{
layerId = "088BD936-56BA-4CBD-9590-2DD048370D9B";
shapes = (
{
alignment = -1;
ref = four.lf;
}
);
width = 960;
}
);
note = four;
unicode = 52;
}
{
glyphname = five;
layers = (
{
background = {
shapes = (
{
closed = 1;
nodes = (
(767,1184,qs),
(772,1251,l),
(780,1293,l),
(777,1305,l),
(761,1307,o),
(755,1307,qs),
(740,1307,o),
(712,1281,q),
(655,1268,o),
(561,1268,qs),
(520,1268,o),
(434,1273,q),
(307,1272,l),
(301,1273,ls),
(285,1275,o),
(278,1275,qs),
(261,1275,o),
(254,1259,qs),
(238,1225,o),
(235,995,qs),
(234,961,o),
(227,924,q),
(230,876,l),
(220,834,o),
(219,729,o),
(212,680,qs),
(209,660,o),
(209,652,qs),
(209,643,o),
(212,625,q),
(225,622,l),
(230,622,o),
(242,627,qs),
(257,633,l),
(274,656,o),
(371,694,o),
(428,694,qs),
(556,694,o),
(738,506,o),
(738,361,qs),
(738,280,o),
(673,147,o),
(583,60,o),
(477,24,o),
(455,24,qs),
(450,24,o),
(392,32,qs),
(368,36,o),
(362,39,qs),
(322,60,o),
(295,84,q),
(216,135,l),
(198,144,o),
(183,144,qs),
(150,144,o),
(105,106,o),
(105,90,qs),
(105,69,o),
(114,56,qs),
(129,35,o),
(219,-10,o),
(279,-20,q),
(424,-33,l),
(453,-32,o),
(624,18,o),
(750,113,o),
(814,201,o),
(857,332,o),
(857,408,qs),
(857,478,o),
(835,542,qs),
(804,631,o),
(731,723,o),
(673,759,qs),
(631,784,o),
(536,815,qs),
(517,821,o),
(468,821,qs),
(399,821,o),
(315,802,o),
(270,779,q),
(293,1120,o),
(296,1136,qs),
(297,1143,o),
(301,1145,qs),
(310,1150,o),
(432,1150,qs),
(438,1150,o),
(469,1148,qs),
(526,1145,o),
(577,1145,qs),
(646,1145,o),
(758,1154,q),
(766,1177,o)
);
}
);
};
layerId = m01;
shapes = (
{
alignment = -1;
pos = (39,0);
ref = five.lf;
}
);
width = 960;
},
{
layerId = "088BD936-56BA-4CBD-9590-2DD048370D9B";
shapes = (
{
alignment = -1;
pos = (14,0);
ref = five.lf;
}
);
width = 960;
}
);
note = five;
unicode = 53;
}
{
glyphname = seven;
layers = (
{
background = {
shapes = (
{
closed = 1;
nodes = (
(98,1241,qs),
(94,1216,o),
(94,1144,qs),
(97,1089,l),
(95,1059,ls),
(95,1047,o),
(94,1022,q),
(112,1014,o),
(123,1014,qs),
(128,1014,o),
(139,1017,q),
(146,1031,o),
(147,1046,qs),
(149,1106,o),
(178,1135,o),
(236,1134,qs),
(302,1132,l),
(349,1132,l),
(504,1131,ls),
(522,1131,o),
(594,1135,o),
(600,1135,qs),
(732,1131,l),
(743,1131,l),
(756,1132,l),
(756,1108,o),
(735,1071,qs),
(727,1056,o),
(711,1019,qs),
(665,908,o),
(616,776,qs),
(502,466,ls),
(474,387,o),
(416,181,o),
(404,146,qs),
(372,49,o),
(366,-10,q),
(383,-26,o),
(402,-26,qs),
(444,-26,o),
(456,-10,q),
(439,22,o),
(439,37,qs),
(439,56,o),
(453,97,q),
(476,190,ls),
(489,238,o),
(534,360,qs),
(660,715,ls),
(721,874,o),
(763,972,qs),
(849,1171,o),
(860,1191,qs),
(883,1237,o),
(883,1249,qs),
(883,1256,o),
(875,1264,q),
(852,1264,l),
(755,1263,ls),
(732,1263,o),
(658,1266,qs),
(536,1269,o),
(441,1269,qs),
(232,1269,o),
(109,1264,q),
(100,1251,o)
);
}
);
};
layerId = m01;
shapes = (
{
alignment = -1;
pos = (31,0);
ref = seven.lf;
}
);
width = 960;
},
{
layerId = "088BD936-56BA-4CBD-9590-2DD048370D9B";
shapes = (
{
alignment = -1;
pos = (11,0);
ref = seven.lf;
}
);
width = 960;
}
);
note = seven;
unicode = 55;
}
{
glyphname = nine;
layers = (
{
background = {
shapes = (
{
closed = 1;
nodes = (
(535,1307,o),
(468,1307,qs),
(313,1307,o),
(90,1074,o),
(90,900,qs),
(90,730,o),
(288,506,o),
(411,506,qs),
(446,506,o),
(503,516,o),
(525,526,q),
(536,535,l),
(536,551,o),
(524,566,qs),
(516,576,o),
(506,576,q),
(498,573,ls),
(484,567,o),
(452,567,qs),
(363,567,o),
(312,631,qs),
(240,722,o),
(240,880,qs),
(240,1080,o),
(317,1186,qs),
(373,1262,o),
(453,1262,qs),
(514,1262,o),
(646,1174,o),
(718,976,o),
(718,817,qs),
(718,626,o),
(613,318,o),
(506,196,qs),
(443,124,o),
(323,64,qs),
(235,21,o),
(198,18,qs),
(177,17,o),
(167,7,o),
(167,-8,qs),
(167,-21,o),
(179,-30,q),
(187,-30,ls),
(261,-30,o),
(481,70,o),
(631,191,o),
(768,378,o),
(864,634,o),
(864,798,qs),
(864,943,o),
(821,1053,qs),
(789,1131,o),
(715,1211,q),
(637,1269,o)
);
}
);
};
layerId = m01;
shapes = (
{
alignment = -1;
pos = (20,0);
ref = nine.lf;
}
);
width = 960;
},
{
layerId = "088BD936-56BA-4CBD-9590-2DD048370D9B";
shapes = (
{
alignment = -1;
pos = (7,0);
ref = nine.lf;
}
);
width = 960;
}
);
note = nine;
unicode = 57;
}
{
glyphname = semicolon;
kernLeft = colon;
layers = (
{
background = {
shapes = (
{
closed = 1;
nodes = (
(134,742,o),
(134,701,qs),
(134,658,o),
(195,597,o),
(238,597,qs),
(280,597,o),
(341,657,o),
(341,699,qs),
(341,741,o),
(280,802,o),
(235,802,qs),
(193,802,o)
);
},
{
closed = 1;
nodes = (
(211,-279,o),
(251,-248,qs),
(320,-196,o),
(387,-79,o),
(387,3,qs),
(387,93,o),
(303,182,o),
(235,182,qs),
(187,182,o),
(145,145,qs),
(115,119,o),
(115,79,qs),
(115,43,o),
(155,-1,o),
(180,-1,qs),
(242,1,ls),
(258,1,o),
(273,-15,qs),
(287,-31,o),
(287,-54,qs),
(287,-111,o),
(203,-214,o),
(87,-282,q),
(114,-321,l)
);
}
);
};
layerId = m01;
shapes = (
{
alignment = -1;
pos = (-20,543);
ref = period;
},
{
alignment = -1;
ref = comma;
}
);
width = 448;
},
{
layerId = "088BD936-56BA-4CBD-9590-2DD048370D9B";
shapes = (
{
alignment = -1;
pos = (-20,543);
ref = period;
},
{
alignment = -1;
ref = comma;
}
);
width = 533;
}
);
note = semicolon;
unicode = 59;
}
{
glyphname = less;
layers = (
{
background = {
shapes = (
{
closed = 1;
nodes = (
(263,638,l),
(1218,1035,l),
(1218,1130,l),
(147,678,l),
(147,599,l),
(1218,144,l),
(1218,240,l)
);
}
);
};
layerId = m01;
shapes = (
{
closed = 1;
nodes = (
(967,-9,o),
(994,-13,o),
(994,14,cs),
(994,31,o),
(982,90,o),
(947,108,cs),
(261,449,ls),
(255,452,o),
(253,456,o),
(259,459,cs),
(931,800,ls),
(970,820,o),
(992,876,o),
(992,900,cs),
(992,912,o),
(987,919,o),
(974,919,cs),
(970,919,o),
(965,917,o),
(958,913,cs),
(169,525,l),
(130,508,o),
(104,454,o),
(104,435,cs),
(104,424,o),
(151,398,o),
(184,382,cs),
(954,-4,l)
);
}
);
width = 1365;
},
{
layerId = "088BD936-56BA-4CBD-9590-2DD048370D9B";
shapes = (
{
closed = 1;
nodes = (
(961,-10,o),
(988,-3,o),
(988,33,cs),
(988,65,o),
(967,110,o),
(924,129,cs),
(265,449,ls),
(256,453,o),
(256,462,o),
(265,465,c),
(918,786,ls),
(961,807,o),
(987,851,o),
(987,885,cs),
(987,904,o),
(980,922,o),
(959,922,cs),
(955,922,o),
(951,920,o),
(945,917,cs),
(155,530,l),
(111,512,o),
(82,453,o),
(82,432,cs),
(82,418,o),
(133,393,o),
(173,373,cs),
(943,-1,ls)
);
}
);
width = 1365;
}
);
note = less;
unicode = 60;
}
{
glyphname = equal;
layers = (
{
background = {
shapes = (
{
closed = 1;
nodes = (
(1219,825,l),
(1219,913,l),
(147,913,l),
(147,825,l)
);
},
{
closed = 1;
nodes = (
(1219,361,l),
(1219,450,l),
(147,450,l),
(147,361,l)
);
}
);
};
layerId = m01;
shapes = (
{
closed = 1;
nodes = (
(980,615,o),
(1011,665,o),
(1011,692,cs),
(1011,705,o),
(997,713,o),
(984,713,cs),
(145,713,ls),
(114,713,o),
(98,667,o),
(98,639,cs),
(98,628,o),
(113,615,o),
(125,615,cs),
(949,615,ls)
);
},
{
closed = 1;
nodes = (
(980,280,o),
(1011,322,o),
(1011,357,cs),
(1011,369,o),
(997,378,o),
(984,378,cs),
(145,378,ls),
(114,378,o),
(98,332,o),
(98,304,cs),
(98,293,o),
(113,280,o),
(125,280,cs),
(949,280,ls)
);
}
);
width = 1365;
},
{
layerId = "088BD936-56BA-4CBD-9590-2DD048370D9B";
shapes = (
{
closed = 1;
nodes = (
(1085,618,o),
(1114,668,o),
(1114,698,cs),
(1114,714,o),
(1097,726,o),
(1076,726,cs),
(144,726,ls),
(109,726,o),
(92,678,o),
(92,643,cs),
(92,632,o),
(106,618,o),
(122,618,cs),
(1052,618,ls)
);
},
{
closed = 1;
nodes = (
(1085,268,o),
(1114,315,o),
(1114,348,cs),
(1114,364,o),
(1097,375,o),
(1076,375,cs),
(144,375,ls),
(109,375,o),
(92,327,o),
(92,292,cs),
(92,282,o),
(106,268,o),
(122,268,cs),
(1052,268,ls)
);
}
);
width = 1365;
}
);
note = equal;
unicode = 61;
}
{
glyphname = greater;
layers = (
{
background = {
shapes = (
{
closed = 1;
nodes = (
(1102,636,l),
(147,240,l),
(147,144,l),
(1218,596,l),
(1218,675,l),
(147,1130,l),
(147,1034,l)
);
}
);
};
layerId = m01;
shapes = (
{
closed = 1;
nodes = (
(130,920,o),
(104,923,o),
(104,898,cs),
(104,879,o),
(114,821,o),
(151,804,cs),
(837,463,ls),
(843,460,o),
(845,456,o),
(839,453,cs),
(167,112,ls),
(126,93,o),
(106,35,o),
(106,12,cs),
(106,1,o),
(114,-8,o),
(123,-8,cs),
(128,-8,o),
(134,-6,o),
(139,-2,c),
(929,386,l),
(967,407,o),
(994,459,o),
(994,476,cs),
(994,489,o),
(948,513,o),
(913,529,cs),
(143,915,l)
);
}
);
width = 1365;
},
{
layerId = "088BD936-56BA-4CBD-9590-2DD048370D9B";
shapes = (
{
closed = 1;
nodes = (
(107,923,o),
(82,915,o),
(82,879,cs),
(82,847,o),
(105,802,o),
(145,782,cs),
(803,463,ls),
(813,459,o),
(812,451,o),
(804,447,cs),
(150,125,l),
(109,107,o),
(82,61,o),
(82,27,cs),
(82,8,o),
(89,-11,o),
(110,-11,cs),
(114,-11,o),
(119,-9,o),
(124,-6,cs),
(914,381,ls),
(959,401,o),
(988,460,o),
(988,479,cs),
(988,494,o),
(935,520,o),
(896,538,cs),
(126,912,l)
);
}
);
width = 1365;
}
);
note = greater;
unicode = 62;
}
{
glyphname = question;
kernLeft = question;
layers = (
{
background = {
shapes = (
{
closed = 1;
nodes = (
(256,449,o),
(259,457,qs),
(269,481,o),
(310,509,o),
(360,516,qs),
(468,530,o),
(493,539,qs),
(546,558,o),
(617,621,o),
(677,746,o),
(677,816,qs),
(677,900,o),
(602,1087,o),
(535,1154,qs),
(443,1249,o),
(282,1311,o),
(218,1311,qs),
(150,1311,o),
(113,1283,qs),
(89,1264,o),
(89,1227,qs),
(89,1196,o),
(131,1158,o),
(168,1158,qs),
(184,1158,o),
(239,1170,qs),
(318,1188,o),
(346,1188,qs),
(432,1188,o),
(603,1004,o),
(603,884,qs),
(603,814,o),
(534,712,o),
(461,687,qs),
(410,669,o),
(258,661,qs),
(202,658,o),
(175,640,q),
(170,627,o),
(170,620,q),
(172,606,l),
(178,544,ls),
(193,399,o),
(197,374,qs),
(200,355,o),
(200,344,qs),
(202,325,o),
(205,314,q),
(247,314,l),
(248,329,o)
);
},
{
closed = 1;
nodes = (
(192,-30,o),
(227,-30,qs),
(276,-30,o),
(333,24,o),
(333,69,qs),
(333,115,o),
(273,179,o),
(236,179,qs),
(194,179,o),
(158,144,qs),
(131,117,o),
(131,69,qs),
(131,31,o)
);
}
);
};
layerId = m01;
shapes = (
{
closed = 1;
nodes = (
(287,355,o),
(296,381,o),
(296,400,cs),
(299,463,o),
(304,521,o),
(359,555,cs),
(400,583,o),
(424,597,o),
(459,617,cs),
(475,626,o),
(498,639,o),
(527,655,cs),
(567,675,o),
(610,723,o),
(610,819,cs),
(610,922,o),
(533,1093,o),
(427,1197,cs),
(362,1262,o),
(281,1295,o),
(216,1295,cs),
(181,1295,o),
(137,1261,o),
(137,1225,cs),
(137,1167,o),
(183,1115,o),
(219,1115,cs),
(240,1115,o),
(253,1116,o),
(267,1119,cs),
(280,1122,o),
(293,1123,o),
(312,1123,cs),
(446,1120,o),
(510,1029,o),
(510,898,cs),
(510,839,o),
(444,787,o),
(390,758,cs),
(267,695,o),
(192,650,o),
(192,582,cs),
(192,537,o),
(196,503,o),
(204,479,cs),
(212,455,o),
(218,433,o),
(223,412,cs),
(231,380,o),
(254,355,o),
(267,355,cs)
);
},
{
closed = 1;
nodes = (
(359,-27,o),
(412,25,o),
(412,90,cs),
(412,155,o),
(359,208,o),
(294,208,cs),
(229,208,o),
(176,155,o),
(176,90,cs),
(176,25,o),
(229,-27,o),
(294,-27,cs)
);
}
);
width = 747;
},
{
layerId = "088BD936-56BA-4CBD-9590-2DD048370D9B";
shapes = (
{
closed = 1;
nodes = (
(306,342,o),
(319,361,o),
(321,388,cs),
(329,462,o),
(340,499,o),
(396,529,cs),
(460,566,o),
(522,604,o),
(571,629,cs),
(618,652,o),
(664,708,o),
(664,811,cs),
(664,922,o),
(601,1065,o),
(507,1161,cs),
(426,1244,o),
(331,1295,o),
(236,1295,cs),
(173,1295,o),
(113,1250,o),
(113,1205,cs),
(113,1140,o),
(170,1050,o),
(222,1050,cs),
(248,1050,o),
(266,1054,o),
(283,1060,cs),
(299,1066,o),
(322,1076,o),
(369,1076,cs),
(461,1075,o),
(527,1023,o),
(527,933,cs),
(527,865,o),
(476,820,o),
(403,786,cs),
(255,716,o),
(179,661,o),
(179,574,cs),
(179,495,o),
(204,444,o),
(222,402,cs),
(240,365,o),
(265,342,o),
(282,342,cs)
);
},
{
closed = 1;
nodes = (
(362,-27,o),
(423,34,o),
(423,109,cs),
(423,184,o),
(362,246,o),
(286,246,cs),
(211,246,o),
(150,184,o),
(150,109,cs),
(150,34,o),
(211,-27,o),
(286,-27,cs)
);
}
);
width = 853;
}
);
note = question;
unicode = 63;
}
{
glyphname = at;
layers = (
{
background = {
shapes = (
{
closed = 1;
nodes = (
(1218,826,l),
(1202,895,o),
(1113,964,o),
(1046,964,qs),
(955,964,o),
(841,881,qs),
(684,769,o),
(495,408,o),
(495,262,qs),
(495,157,o),
(605,30,o),
(676,30,qs),
(752,30,o),
(932,149,o),
(1070,315,q),
(1052,224,o),
(1052,167,qs),
(1052,103,o),
(1129,31,o),
(1205,31,qs),
(1342,31,o),
(1594,195,o),
(1757,554,o),
(1757,737,qs),
(1757,922,o),
(1583,1251,o),
(1250,1422,o),
(1043,1422,qs),
(792,1422,o),
(345,1165,o),
(97,708,o),
(97,444,qs),
(97,196,o),
(323,-217,o),
(731,-442,o),
(969,-442,qs),
(1272,-442,o),
(1746,-102,o),
(1836,172,q),
(1778,172,l),
(1662,-99,o),
(1237,-381,o),
(974,-381,qs),
(762,-381,o),
(394,-188,o),
(191,188,o),
(191,418,qs),
(191,666,o),
(422,1126,o),
(818,1371,o),
(1049,1371,qs),
(1231,1371,o),
(1532,1216,o),
(1697,926,o),
(1697,755,qs),
(1697,577,o),
(1551,249,o),
(1346,103,o),
(1272,103,qs),
(1241,103,o),
(1198,147,o),
(1198,178,qs),
(1198,215,o),
(1225,331,o),
(1291,559,qs),
(1408,958,l),
(1251,936,l)
);
},
{
closed = 1;
nodes = (
(1182,839,o),
(1182,774,qs),
(1182,671,o),
(1124,509,qs),
(1093,420,o),
(953,238,o),
(826,151,o),
(768,151,qs),
(724,151,o),
(653,230,o),
(653,292,qs),
(653,381,o),
(712,525,qs),
(791,720,o),
(903,836,qs),
(981,917,o),
(1058,917,qs),
(1109,917,o)
);
}
);
};
layerId = m01;
shapes = (
{
closed = 1;
nodes = (
(856,-257,o),
(976,-215,o),
(1073,-162,cs),
(1158,-116,o),
(1239,-60,o),
(1239,-33,cs),
(1239,-16,o),
(1230,-8,o),
(1211,-8,cs),
(1206,-8,o),
(1201,-10,o),
(1195,-14,cs),
(1189,-18,o),
(1183,-22,o),
(1176,-27,cs),
(1078,-111,o),
(899,-178,o),
(770,-178,cs),
(464,-178,o),
(190,57,o),
(190,374,cs),
(190,707,o),
(462,915,o),
(772,915,cs),
(955,915,o),
(1116,822,o),
(1209,677,cs),
(1255,604,o),
(1278,522,o),
(1278,431,cs),
(1278,324,o),
(1224,240,o),
(1144,197,cs),
(1105,176,o),
(1061,165,o),
(1015,165,cs),
(990,165,o),
(980,193,o),
(980,221,cs),
(980,240,o),
(983,256,o),
(986,274,cs),
(1027,533,ls),
(1032,564,o),
(1051,643,o),
(1070,690,c),
(1074,694,o),
(1061,706,o),
(1035,706,cs),
(1014,706,o),
(1007,668,o),
(986,668,cs),
(982,668,o),
(976,669,o),
(971,670,cs),
(966,671,o),
(954,675,o),
(941,680,cs),
(917,688,o),
(853,696,o),
(813,696,cs),
(670,696,o),
(537,630,o),
(459,513,cs),
(420,455,o),
(400,385,o),
(400,306,cs),
(400,170,o),
(503,92,o),
(631,92,cs),
(715,92,o),
(778,123,o),
(819,147,cs),
(839,159,o),
(852,165,o),
(858,165,cs),
(872,165,o),
(881,134,o),
(906,111,cs),
(918,99,o),
(938,92,o),
(964,92,cs),
(1182,92,o),
(1370,236,o),
(1370,461,cs),
(1370,748,o),
(1104,994,o),
(811,994,cs),
(425,994,o),
(98,764,o),
(98,355,cs),
(98,1,o),
(389,-257,o),
(749,-257,cs)
);
},
{
closed = 1;
nodes = (
(651,159,o),
(599,179,o),
(565,232,cs),
(548,259,o),
(539,296,o),
(539,343,cs),
(539,471,o),
(590,559,o),
(662,604,cs),
(697,626,o),
(733,637,o),
(770,637,cs),
(854,637,o),
(911,596,o),
(911,523,cs),
(911,519,o),
(911,515,o),
(911,512,cs),
(911,508,o),
(910,503,o),
(909,500,cs),
(872,298,ls),
(861,237,o),
(843,218,o),
(819,202,cs),
(780,175,o),
(749,159,o),
(702,159,cs)
);
}
);
width = 1877;
},
{
layerId = "088BD936-56BA-4CBD-9590-2DD048370D9B";
shapes = (
{
closed = 1;
nodes = (
(888,-291,o),
(1020,-247,o),
(1127,-192,cs),
(1222,-143,o),
(1310,-82,o),
(1310,-48,cs),
(1310,-27,o),
(1296,-16,o),
(1266,-16,cs),
(1251,-16,o),
(1228,-31,o),
(1207,-45,cs),
(1105,-122,o),
(922,-184,o),
(796,-184,cs),
(473,-184,o),
(199,61,o),
(199,380,cs),
(199,718,o),
(477,933,o),
(798,933,cs),
(1002,933,o),
(1162,843,o),
(1251,695,cs),
(1295,622,o),
(1317,536,o),
(1317,439,cs),
(1317,279,o),
(1195,177,o),
(1057,177,cs),
(1031,177,o),
(1022,205,o),
(1022,234,cs),
(1022,253,o),
(1024,267,o),
(1027,284,cs),
(1072,550,ls),
(1079,588,o),
(1102,678,o),
(1123,732,c),
(1124,738,o),
(1103,752,o),
(1066,752,cs),
(1042,752,o),
(1034,705,o),
(1011,705,cs),
(1006,705,o),
(998,707,o),
(990,710,cs),
(980,714,o),
(969,717,o),
(958,720,cs),
(930,728,o),
(867,740,o),
(821,740,cs),
(657,740,o),
(511,664,o),
(428,531,cs),
(387,465,o),
(366,386,o),
(366,296,cs),
(366,142,o),
(484,54,o),
(632,54,cs),
(726,54,o),
(798,90,o),
(845,118,cs),
(868,132,o),
(884,139,o),
(891,139,cs),
(907,139,o),
(921,105,o),
(955,80,cs),
(973,67,o),
(999,61,o),
(1033,61,cs),
(1171,61,o),
(1305,134,o),
(1385,258,cs),
(1425,320,o),
(1444,391,o),
(1444,472,cs),
(1444,794,o),
(1158,1039,o),
(830,1039,cs),
(420,1039,o),
(73,800,o),
(73,360,cs),
(73,-25,o),
(399,-291,o),
(774,-291,cs)
);
},
{
closed = 1;
nodes = (
(661,151,o),
(609,177,o),
(577,235,cs),
(561,264,o),
(553,303,o),
(553,351,cs),
(553,482,o),
(599,574,o),
(666,622,cs),
(700,646,o),
(735,658,o),
(771,658,cs),
(852,658,o),
(914,610,o),
(914,535,cs),
(914,530,o),
(914,525,o),
(914,521,cs),
(914,518,o),
(913,513,o),
(912,511,c),
(871,292,ls),
(860,233,o),
(845,209,o),
(822,192,cs),
(786,166,o),
(755,151,o),
(709,151,cs)
);
}
);
width = 1899;
}
);
note = at;
unicode = 64;
}
{
color = 4;
glyphname = A;
kernLeft = A;
kernRight = A;
layers = (
{
anchors = (
{
name = bottom;
pos = (694,0);
},
{
name = ogonek;
pos = (1248,10);
},
{
name = top;
pos = (694,1274);
}
);
background = {
shapes = (
{
closed = 1;
nodes = (
(-15,13,qs),
(-15,7,l),
(23,4,o),
(47,4,qs),
(62,4,o),
(96,6,qs),
(148,8,o),
(169,8,qs),
(190,8,o),
(239,6,qs),
(345,1,o),
(425,1,qs),
(449,1,o),
(494,2,q),
(497,12,o),
(497,17,qs),
(497,24,o),
(486,33,q),
(350,45,l),
(315,50,o),
(294,56,q),
(285,77,o),
(285,86,qs),
(285,102,o),
(341,259,q),
(429,534,ls),
(433,547,o),
(446,577,q),
(487,582,o),
(521,582,qs),
(584,581,l),
(798,583,ls),
(829,583,o),
(870,576,q),
(963,325,o),
(990,235,o),
(1008,185,qs),
(1034,110,o),
(1034,92,qs),
(1034,83,o),
(1028,65,q),
(1007,56,o),
(966,54,qs),
(861,47,ls),
(851,46,o),
(839,40,q),
(834,27,o),
(834,13,q),
(843,8,o),
(854,7,qs),
(876,7,ls),
(885,7,o),
(910,4,o),
(922,4,qs),
(1043,6,l),
(1143,3,ls),
(1272,0,o),
(1323,0,qs),
(1336,0,o),
(1368,1,q),
(1371,11,o),
(1371,16,qs),
(1371,22,o),
(1367,33,q),
(1349,42,o),
(1303,55,qs),
(1290,59,o),
(1225,75,o),
(1220,79,qs),
(1203,93,o),
(1163,180,o),
(1099,370,qs),
(1018,593,l),
(866,1004,ls),
(825,1107,o),
(807,1159,qs),
(774,1257,o),
(731,1342,q),
(696,1343,l),
(667,1341,l),
(637,1247,o),
(616,1191,qs),
(532,969,o),
(510,907,qs),
(416,644,ls),
(393,578,o),
(368,518,qs),
(360,499,o),
(329,410,qs),
(264,223,o),
(212,121,qs),
(187,74,o),
(152,55,qs),
(138,48,o),
(61,41,qs),
(44,40,o),
(37,40,qs),
(14,40,ls),
(3,40,o),
(-11,32,q),
(-15,20,o)
);
},
{
closed = 1;
nodes = (
(467,652,o),
(474,683,o),
(502,760,o),
(515,799,qs),
(543,886,o),
(607,1042,qs),
(645,1133,o),
(651,1145,q),
(661,1127,l),
(752,896,ls),
(759,878,o),
(824,704,qs),
(837,670,o),
(847,631,q),
(788,626,o),
(710,626,qs),
(573,626,o),
(466,632,q),
(460,636,l)
);
}
);
};
layerId = m01;
shapes = (
{
closed = 1;
nodes = (
(86,-10,o),
(245,2,o),
(288,2,cs),
(326,2,o),
(440,-2,o),
(466,-2,cs),
(487,-2,o),
(523,-1,o),
(523,20,cs),
(523,34,o),
(502,47,o),
(459,59,cs),
(380,79,o),
(332,120,o),
(350,199,cs),
(359,239,o),
(417,425,o),
(425,453,c),
(431,470,o),
(443,488,o),
(459,488,cs),
(829,488,ls),
(865,488,o),
(877,487,o),
(882,466,c),
(918,356,o),
(958,202,o),
(958,149,cs),
(958,108,o),
(924,74,o),
(839,61,cs),
(805,56,o),
(774,41,o),
(774,24,cs),
(774,4,o),
(811,0,o),
(831,0,cs),
(875,0,o),
(947,2,o),
(1037,2,cs),
(1144,2,o),
(1246,-10,o),
(1309,-10,cs),
(1328,-10,o),
(1366,-11,o),
(1366,10,cs),
(1366,29,o),
(1346,47,o),
(1301,55,cs),
(1248,66,o),
(1205,81,o),
(1163,133,cs),
(1142,159,o),
(1122,198,o),
(1103,251,cs),
(1071,348,o),
(1013,513,o),
(952,695,cs),
(928,766,o),
(762,1284,o),
(741,1341,cs),
(740,1344,o),
(736,1344,o),
(736,1344,cs),
(727,1339,o),
(715,1291,o),
(694,1276,cs),
(670,1260,o),
(647,1254,o),
(623,1246,c),
(620,1204,o),
(609,1168,o),
(596,1133,cs),
(531,954,o),
(473,803,o),
(418,663,cs),
(362,521,o),
(302,378,o),
(229,212,cs),
(188,115,o),
(129,81,o),
(61,61,cs),
(41,55,o),
(-4,39,o),
(-4,16,cs),
(-4,0,o),
(18,-10,o),
(53,-10,cs)
);
},
{
closed = 1;
nodes = (
(499,553,o),
(470,551,o),
(470,566,cs),
(470,569,o),
(471,573,o),
(474,582,cs),
(653,1062,ls),
(660,1084,o),
(665,1096,o),
(668,1096,cs),
(672,1096,o),
(678,1084,o),
(686,1060,cs),
(839,582,ls),
(842,573,o),
(843,567,o),
(843,562,cs),
(843,556,o),
(834,553,o),
(815,553,cs),
(512,553,l)
);
}
);
width = 1387;
},
{
anchors = (
{
name = bottom;
pos = (672,0);
},
{
name = ogonek;
pos = (1210,10);
},
{
name = top;
pos = (692,1274);
}
);
layerId = "088BD936-56BA-4CBD-9590-2DD048370D9B";
shapes = (
{
closed = 1;
nodes = (
(123,-10,o),
(193,2,o),
(273,2,cs),
(336,2,o),
(416,-3,o),
(479,-3,cs),
(510,-3,o),
(526,5,o),
(526,23,cs),
(526,42,o),
(510,55,o),
(475,64,cs),
(373,88,o),
(341,123,o),
(357,199,cs),
(369,257,o),
(415,391,o),
(426,430,cs),
(433,453,o),
(443,464,o),
(460,464,cs),
(812,464,ls),
(837,464,o),
(845,457,o),
(851,435,cs),
(868,376,o),
(906,237,o),
(917,175,cs),
(930,111,o),
(886,83,o),
(791,65,cs),
(765,60,o),
(740,45,o),
(740,24,cs),
(740,6,o),
(761,-4,o),
(787,-4,cs),
(852,-4,o),
(959,3,o),
(1062,3,cs),
(1172,3,o),
(1286,-6,o),
(1368,-6,cs),
(1394,-6,o),
(1412,3,o),
(1412,20,cs),
(1412,43,o),
(1393,55,o),
(1361,63,cs),
(1282,83,o),
(1221,119,o),
(1190,213,cs),
(1144,357,o),
(1089,521,o),
(1032,696,cs),
(971,881,o),
(907,1077,o),
(847,1273,cs),
(842,1292,o),
(837,1308,o),
(828,1324,cs),
(820,1340,o),
(809,1336,o),
(802,1329,cs),
(770,1297,o),
(762,1279,o),
(719,1261,cs),
(675,1244,o),
(640,1235,o),
(599,1224,c),
(596,1216,o),
(592,1199,o),
(587,1177,cs),
(582,1155,o),
(571,1121,o),
(554,1075,cs),
(447,780,o),
(331,480,o),
(208,199,cs),
(176,127,o),
(118,85,o),
(43,65,cs),
(13,55,o),
(-8,44,o),
(-8,21,cs),
(-8,-2,o),
(15,-10,o),
(45,-10,cs)
);
},
{
closed = 1;
nodes = (
(495,560,o),
(478,565,o),
(478,578,cs),
(478,582,o),
(479,587,o),
(482,594,cs),
(643,1043,ls),
(649,1060,o),
(653,1068,o),
(656,1068,cs),
(660,1068,o),
(664,1060,o),
(669,1043,cs),
(805,594,ls),
(808,583,o),
(809,581,o),
(809,572,cs),
(809,564,o),
(799,560,o),
(780,560,cs),
(514,560,l)
);
}
);
width = 1344;
}
);
note = A;
unicode = 65;
}
{
color = 4;
glyphname = B;
kernLeft = B;
kernRight = B;
layers = (
{
anchors = (
{
name = bottom;
pos = (630,0);
},
{
name = center;
pos = (315,383);
},
{
name = top;
pos = (630,1274);
}
);
background = {
shapes = (
{
closed = 1;
nodes = (
(95,1232,qs),
(160,1229,o),
(245,1217,q),
(246,1192,l),
(247,991,ls),
(253,794,o),
(253,530,qs),
(253,426,ls),
(253,416,o),
(255,349,qs),
(256,326,o),
(256,311,qs),
(256,145,o),
(244,105,qs),
(238,84,o),
(205,65,o),
(80,39,qs),
(63,35,o),
(57,29,qs),
(52,24,o),
(52,12,qs),
(52,1,l),
(86,-2,o),
(121,-2,qs),
(155,-2,o),
(355,0,qs),
(506,5,l),
(655,5,ls),
(893,5,o),
(1164,238,o),
(1164,387,qs),
(1164,476,o),
(1137,531,qs),
(1100,606,o),
(962,710,o),
(854,739,q),
(859,747,l),
(1070,848,o),
(1070,996,qs),
(1070,1087,o),
(957,1236,o),
(842,1273,qs),
(763,1298,o),
(593,1298,qs),
(468,1298,o),
(410,1296,qs),
(265,1290,o),
(148,1280,qs),
(54,1275,ls),
(44,1274,o),
(27,1270,q),
(27,1239,l),
(53,1233,o)
);
},
{
closed = 1;
nodes = (
(416,892,l),
(415,964,l),
(418,1085,ls),
(418,1115,o),
(417,1145,qs),
(415,1192,o),
(415,1202,qs),
(415,1212,o),
(416,1233,q),
(489,1252,o),
(574,1252,qs),
(665,1252,o),
(752,1223,qs),
(803,1206,o),
(872,1136,o),
(899,1049,o),
(899,1007,qs),
(899,913,o),
(745,723,o),
(529,723,qs),
(474,723,o),
(424,733,q),
(423,751,l)
);
},
{
closed = 1;
nodes = (
(440,116,o),
(424,202,o),
(421,437,qs),
(421,522,l),
(422,597,l),
(421,634,ls),
(421,645,o),
(422,668,q),
(444,675,o),
(626,675,qs),
(720,675,o),
(876,616,o),
(955,525,o),
(988,405,o),
(988,364,qs),
(988,310,o),
(941,194,o),
(856,111,o),
(825,95,qs),
(758,60,o),
(659,53,q),
(533,54,o)
);
}
);
};
layerId = m01;
shapes = (
{
closed = 1;
nodes = (
(185,-10,o),
(253,0,o),
(349,0,cs),
(397,0,o),
(503,-8,o),
(535,-8,cs),
(684,-8,o),
(786,16,o),
(868,59,cs),
(1013,133,o),
(1072,217,o),
(1072,380,cs),
(1072,598,o),
(925,663,o),
(794,704,cs),
(789,706,o),
(786,709,o),
(786,714,cs),
(786,719,o),
(789,722,o),
(794,723,c),
(860,750,o),
(884,766,o),
(925,807,cs),
(954,836,o),
(992,907,o),
(992,996,cs),
(992,1209,o),
(842,1288,o),
(537,1288,cs),
(461,1288,o),
(344,1278,o),
(319,1278,cs),
(276,1278,o),
(231,1280,o),
(198,1280,cs),
(179,1280,o),
(151,1280,o),
(116,1280,cs),
(97,1280,o),
(59,1279,o),
(59,1258,cs),
(59,1233,o),
(98,1222,o),
(123,1219,cs),
(220,1211,o),
(255,1169,o),
(255,1076,cs),
(255,194,ls),
(255,99,o),
(201,66,o),
(102,47,cs),
(59,39,o),
(37,27,o),
(37,12,cs),
(37,-8,o),
(74,-10,o),
(94,-10,cs)
);
},
{
closed = 1;
nodes = (
(463,73,o),
(408,101,o),
(408,212,cs),
(408,602,ls),
(408,615,o),
(412,633,o),
(429,651,cs),
(445,668,o),
(478,672,o),
(519,672,cs),
(619,672,o),
(710,653,o),
(779,600,cs),
(854,543,o),
(888,468,o),
(888,370,cs),
(888,200,o),
(737,73,o),
(562,73,cs)
);
},
{
closed = 1;
nodes = (
(466,727,o),
(408,732,o),
(408,800,cs),
(408,1141,ls),
(408,1201,o),
(430,1229,o),
(537,1229,cs),
(698,1229,o),
(773,1167,o),
(802,1087,cs),
(816,1048,o),
(823,1008,o),
(823,970,cs),
(823,858,o),
(763,800,o),
(735,784,cs),
(654,740,o),
(569,727,o),
(498,727,cs)
);
}
);
width = 1259;
},
{
anchors = (
{
name = bottom;
pos = (694,0);
},
{
name = center;
pos = (347,383);
},
{
name = top;
pos = (694,1274);
}
);
layerId = "088BD936-56BA-4CBD-9590-2DD048370D9B";
shapes = (
{
closed = 1;
nodes = (
(157,-10,o),
(249,0,o),
(350,0,cs),
(407,0,o),
(550,-8,o),
(602,-8,cs),
(753,-8,o),
(856,13,o),
(941,55,cs),
(1088,130,o),
(1148,215,o),
(1148,380,cs),
(1148,603,o),
(985,666,o),
(842,699,cs),
(835,701,o),
(834,704,o),
(834,709,cs),
(834,713,o),
(835,716,o),
(842,718,cs),
(900,736,o),
(941,758,o),
(982,795,cs),
(1033,838,o),
(1074,914,o),
(1074,996,cs),
(1074,1209,o),
(913,1288,o),
(604,1288,cs),
(516,1288,o),
(448,1272,o),
(338,1272,cs),
(278,1272,o),
(237,1276,o),
(184,1280,cs),
(158,1282,o),
(126,1283,o),
(86,1283,cs),
(58,1283,o),
(40,1272,o),
(40,1254,cs),
(40,1238,o),
(54,1221,o),
(90,1214,cs),
(183,1197,o),
(212,1166,o),
(212,1079,cs),
(212,189,ls),
(212,103,o),
(172,80,o),
(82,57,cs),
(49,49,o),
(33,36,o),
(33,18,cs),
(33,2,o),
(51,-10,o),
(78,-10,cs)
);
},
{
closed = 1;
nodes = (
(527,94,o),
(481,132,o),
(481,222,cs),
(481,578,ls),
(481,599,o),
(494,617,o),
(515,628,cs),
(531,638,o),
(553,643,o),
(576,643,cs),
(663,643,o),
(733,620,o),
(783,566,cs),
(833,514,o),
(854,443,o),
(854,367,cs),
(854,213,o),
(743,94,o),
(608,94,cs)
);
},
{
closed = 1;
nodes = (
(530,723,o),
(481,739,o),
(481,794,cs),
(481,1123,ls),
(481,1180,o),
(511,1207,o),
(591,1207,cs),
(701,1207,o),
(763,1165,o),
(791,1090,cs),
(805,1053,o),
(811,1009,o),
(811,958,cs),
(811,889,o),
(788,814,o),
(744,778,cs),
(683,735,o),
(626,723,o),
(562,723,cs)
);
}
);
width = 1387;
}
);
note = B;
unicode = 66;
}
{
color = 4;
glyphname = C;
kernLeft = C;
kernRight = C;
layers = (
{
anchors = (
{
name = bottom;
pos = (830,0);
},
{
name = top;
pos = (842,1274);
}
);
background = {
shapes = (
{
closed = 1;
nodes = (
(956,1311,o),
(845,1311,qs),
(693,1311,o),
(610,1293,qs),
(492,1266,o),
(299,1136,o),
(157,940,o),
(89,749,o),
(89,621,qs),
(89,486,o),
(175,257,o),
(315,107,o),
(500,16,o),
(657,-27,o),
(815,-27,qs),
(1011,-27,o),
(1128,13,qs),
(1152,21,o),
(1168,25,q),
(1187,87,o),
(1229,256,q),
(1230,263,o),
(1231,287,q),
(1221,293,o),
(1216,293,q),
(1204,289,l),
(1172,220,o),
(1081,116,o),
(986,59,o),
(913,38,qs),
(884,29,o),
(804,19,q),
(757,18,ls),
(642,18,o),
(416,137,o),
(286,416,o),
(286,630,qs),
(286,742,o),
(341,957,o),
(435,1108,o),
(571,1217,o),
(661,1248,qs),
(712,1265,o),
(786,1265,qs),
(926,1265,o),
(1116,1139,o),
(1158,1022,q),
(1169,1020,o),
(1175,1020,qs),
(1182,1020,o),
(1196,1023,q),
(1197,1050,o),
(1197,1066,qs),
(1197,1147,o),
(1185,1224,q),
(1152,1252,o)
);
}
);
};
layerId = m01;
shapes = (
{
closed = 1;
nodes = (
(926,-29,o),
(1071,-12,o),
(1168,27,c),
(1209,40,o),
(1213,45,o),
(1231,80,c),
(1258,148,o),
(1284,238,o),
(1284,270,cs),
(1284,291,o),
(1275,302,o),
(1258,302,cs),
(1240,302,o),
(1226,293,o),
(1217,276,cs),
(1130,122,o),
(1015,31,o),
(827,31,cs),
(504,31,o),
(288,360,o),
(288,680,cs),
(288,969,o),
(509,1239,o),
(813,1239,cs),
(921,1239,o),
(1017,1216,o),
(1082,1172,cs),
(1149,1126,o),
(1178,1053,o),
(1203,954,cs),
(1216,909,o),
(1274,930,o),
(1270,956,c),
(1269,1007,o),
(1266,1050,o),
(1262,1085,cs),
(1258,1120,o),
(1255,1151,o),
(1252,1182,cs),
(1249,1219,o),
(1234,1239,o),
(1195,1248,cs),
(1055,1286,o),
(992,1299,o),
(847,1299,cs),
(444,1299,o),
(90,1015,o),
(90,633,cs),
(90,231,o),
(431,-29,o),
(798,-29,cs)
);
}
);
width = 1301;
},
{
anchors = (
{
name = bottom;
pos = (825,0);
},
{
name = top;
pos = (829,1274);
}
);
layerId = "088BD936-56BA-4CBD-9590-2DD048370D9B";
shapes = (
{
closed = 1;
nodes = (
(950,-28,o),
(1090,-2,o),
(1188,40,cs),
(1217,53,o),
(1231,65,o),
(1243,97,cs),
(1270,180,o),
(1289,267,o),
(1289,313,cs),
(1289,355,o),
(1237,357,o),
(1217,315,cs),
(1134,148,o),
(1023,65,o),
(830,65,cs),
(679,65,o),
(564,132,o),
(485,243,cs),
(406,354,o),
(365,507,o),
(365,676,cs),
(365,953,o),
(547,1210,o),
(825,1210,cs),
(951,1210,o),
(1043,1175,o),
(1099,1124,cs),
(1152,1081,o),
(1174,1015,o),
(1195,946,cs),
(1208,901,o),
(1270,906,o),
(1269,946,cs),
(1268,1021,o),
(1262,1098,o),
(1252,1179,cs),
(1249,1211,o),
(1231,1227,o),
(1204,1237,cs),
(1100,1274,o),
(978,1300,o),
(848,1300,cs),
(613,1300,o),
(417,1223,o),
(279,1098,cs),
(141,973,o),
(64,806,o),
(64,623,cs),
(64,230,o),
(396,-28,o),
(794,-28,cs)
);
}
);
width = 1387;
}
);
note = C;
unicode = 67;
}
{
color = 4;
glyphname = D;
kernLeft = B;
kernRight = D;
layers = (
{
anchors = (
{
name = bottom;
pos = (790,0);
},
{
name = center;
pos = (395,637);
},
{
name = top;
pos = (790,1274);
}
);
background = {
shapes = (
{
closed = 1;
nodes = (
(22,-1,o),
(24,-6,qs),
(26,-14,l),
(434,-7,l),
(440,-6,o),
(445,-6,qs),
(477,-6,o),
(505,-10,qs),
(576,-17,o),
(689,-17,qs),
(860,-17,o),
(926,-5,qs),
(1086,26,o),
(1242,111,o),
(1394,280,o),
(1479,510,o),
(1479,627,qs),
(1479,758,o),
(1402,967,o),
(1253,1144,o),
(1182,1185,qs),
(1068,1250,o),
(853,1298,o),
(732,1298,qs),
(672,1298,o),
(534,1290,qs),
(482,1287,o),
(454,1287,qs),
(357,1287,o),
(265,1293,q),
(220,1301,o),
(183,1301,qs),
(146,1300,l),
(75,1300,ls),
(66,1300,o),
(43,1295,q),
(45,1274,o),
(63,1259,o),
(104,1250,qs),
(203,1229,o),
(226,1204,qs),
(242,1187,o),
(242,1132,qs),
(245,807,l),
(243,678,l),
(245,608,l),
(243,513,l),
(243,355,ls),
(243,130,o),
(216,75,q),
(181,49,o),
(110,41,qs),
(61,36,o),
(24,20,q),
(22,5,ls)
);
},
{
closed = 1;
nodes = (
(411,214,o),
(411,714,qs),
(412,941,ls),
(412,1011,o),
(409,1127,qs),
(408,1145,o),
(408,1158,qs),
(408,1179,o),
(414,1204,q),
(420,1212,o),
(426,1218,q),
(476,1241,o),
(580,1241,qs),
(731,1241,o),
(991,1162,o),
(1182,992,o),
(1220,899,qs),
(1275,765,o),
(1275,635,qs),
(1275,499,o),
(1247,414,qs),
(1227,356,o),
(1131,211,o),
(982,96,o),
(788,33,o),
(687,33,qs),
(609,33,o),
(533,59,q),
(448,101,o)
);
}
);
};
layerId = m01;
shapes = (
{
closed = 1;
nodes = (
(1107,-14,o),
(1409,297,o),
(1409,670,cs),
(1409,843,o),
(1355,997,o),
(1237,1110,cs),
(1118,1224,o),
(933,1292,o),
(666,1292,cs),
(578,1292,o),
(442,1276,o),
(331,1276,cs),
(259,1276,o),
(186,1280,o),
(114,1280,cs),
(79,1280,o),
(57,1273,o),
(57,1254,cs),
(57,1228,o),
(98,1223,o),
(122,1219,cs),
(221,1200,o),
(253,1169,o),
(253,1076,cs),
(253,782,o),
(253,488,o),
(253,194,cs),
(253,99,o),
(221,66,o),
(122,47,cs),
(100,43,o),
(57,40,o),
(57,16,cs),
(57,-3,o),
(79,-10,o),
(114,-10,cs),
(193,-10,o),
(242,0,o),
(319,0,cs),
(492,0,o),
(671,-14,o),
(727,-14,cs)
);
},
{
closed = 1;
nodes = (
(607,55,o),
(510,67,o),
(453,120,cs),
(424,146,o),
(410,185,o),
(410,237,cs),
(410,1111,ls),
(410,1190,o),
(451,1219,o),
(532,1226,cs),
(571,1229,o),
(620,1231,o),
(676,1231,cs),
(809,1231,o),
(945,1176,o),
(1051,1075,cs),
(1155,976,o),
(1223,825,o),
(1223,637,cs),
(1223,409,o),
(1131,229,o),
(974,130,cs),
(895,80,o),
(805,55,o),
(704,55,cs)
);
}
);
width = 1579;
},
{
anchors = (
{
name = bottom;
pos = (800,0);
},
{
name = center;
pos = (400,637);
},
{
name = top;
pos = (800,1274);
}
);
layerId = "088BD936-56BA-4CBD-9590-2DD048370D9B";
shapes = (
{
closed = 1;
nodes = (
(1174,-14,o),
(1440,304,o),
(1440,662,cs),
(1440,844,o),
(1371,1000,o),
(1246,1113,cs),
(1121,1226,o),
(947,1292,o),
(734,1292,cs),
(635,1292,o),
(466,1275,o),
(349,1275,cs),
(274,1275,o),
(182,1283,o),
(83,1283,cs),
(60,1283,o),
(39,1273,o),
(39,1254,cs),
(39,1232,o),
(56,1220,o),
(87,1214,cs),
(188,1193,o),
(216,1166,o),
(216,1079,cs),
(216,783,o),
(216,487,o),
(216,191,cs),
(216,105,o),
(185,79,o),
(87,60,cs),
(56,54,o),
(39,43,o),
(39,21,cs),
(39,2,o),
(60,-7,o),
(83,-7,cs),
(160,-7,o),
(251,0,o),
(345,0,cs),
(473,0,o),
(632,-14,o),
(745,-14,cs)
);
},
{
closed = 1;
nodes = (
(625,80,o),
(553,97,o),
(515,148,cs),
(495,175,o),
(486,209,o),
(486,254,cs),
(486,1112,ls),
(486,1168,o),
(517,1187,o),
(580,1193,cs),
(611,1196,o),
(649,1197,o),
(694,1197,cs),
(827,1197,o),
(939,1140,o),
(1019,1038,cs),
(1099,936,o),
(1143,791,o),
(1143,613,cs),
(1143,417,o),
(1087,262,o),
(980,171,cs),
(912,112,o),
(824,80,o),
(716,80,cs)
);
}
);
width = 1600;
}
);
note = D;
unicode = 68;
}
{
color = 4;
glyphname = E;
kernLeft = B;
kernRight = AE;
layers = (
{
anchors = (
{
name = bottom;
pos = (562,0);
},
{
name = ogonek;
pos = (1210,10);
},
{
name = top;
pos = (562,1274);
},
{
name = topleft;
pos = (20,1274);
}
);
background = {
shapes = (
{
closed = 1;
nodes = (
(49,-4,o),
(60,-14,o),
(75,-14,qs),
(160,-14,o),
(340,-6,qs),
(360,-5,o),
(383,-5,qs),
(505,-5,l),
(805,-1,l),
(931,-2,l),
(1212,1,l),
(1234,1,l),
(1250,23,o),
(1250,56,qs),
(1252,129,o),
(1263,199,qs),
(1267,230,o),
(1296,329,q),
(1285,337,o),
(1276,337,qs),
(1257,337,o),
(1238,296,qs),
(1175,157,o),
(1092,73,o),
(964,40,o),
(771,40,qs),
(691,40,o),
(582,43,o),
(574,43,qs),
(513,42,ls),
(456,42,o),
(439,64,qs),
(427,80,o),
(426,182,qs),
(425,295,l),
(426,411,l),
(425,595,l),
(426,628,l),
(469,634,o),
(608,634,qs),
(673,634,ls),
(746,634,o),
(820,637,o),
(834,637,qs),
(898,637,o),
(955,586,o),
(981,485,qs),
(996,426,o),
(1012,398,q),
(1019,398,ls),
(1024,398,o),
(1032,402,q),
(1035,417,o),
(1035,426,qs),
(1035,431,o),
(1024,559,o),
(1024,611,qs),
(1024,806,o),
(1029,843,qs),
(1031,859,o),
(1031,866,qs),
(1031,873,o),
(1029,881,q),
(1018,886,o),
(1005,886,q),
(979,876,o),
(964,724,o),
(949,706,qs),
(940,694,o),
(887,685,q),
(717,685,o),
(609,681,qs),
(600,680,o),
(588,680,qs),
(570,680,o),
(518,682,qs),
(485,683,o),
(468,683,qs),
(451,683,ls),
(438,683,o),
(427,686,q),
(427,825,ls),
(422,1053,o),
(422,1065,qs),
(422,1182,o),
(439,1206,qs),
(450,1220,o),
(505,1220,qs),
(530,1220,l),
(815,1226,ls),
(836,1226,o),
(858,1225,qs),
(940,1223,o),
(949,1223,qs),
(993,1223,o),
(1021,1207,o),
(1046,1165,qs),
(1083,1102,o),
(1120,1006,o),
(1131,987,q),
(1140,984,o),
(1151,984,q),
(1156,986,o),
(1157,992,q),
(1150,1064,o),
(1150,1168,qs),
(1150,1175,o),
(1159,1233,o),
(1159,1247,q),
(1157,1256,o),
(1152,1264,q),
(1142,1269,l),
(1059,1266,l),
(1042,1269,l),
(900,1268,l),
(809,1272,o),
(786,1272,qs),
(760,1272,o),
(612,1266,o),
(480,1266,qs),
(304,1270,l),
(230,1268,ls),
(167,1268,o),
(108,1273,qs),
(88,1274,o),
(74,1274,qs),
(67,1274,o),
(58,1269,q),
(53,1258,o),
(53,1250,qs),
(53,1239,o),
(66,1232,q),
(95,1227,o),
(133,1226,qs),
(222,1223,o),
(240,1204,qs),
(252,1191,o),
(253,1089,qs),
(258,804,l),
(257,553,l),
(259,433,l),
(258,179,l),
(259,109,ls),
(259,73,o),
(245,53,q),
(222,41,o),
(125,35,qs),
(84,32,o),
(67,27,qs),
(60,25,o),
(50,16,q),
(49,6,ls)
);
}
);
};
layerId = m01;
shapes = (
{
closed = 1;
nodes = (
(200,-10,o),
(239,-5,o),
(281,-1,cs),
(302,1,o),
(326,2,o),
(355,2,cs),
(450,2,o),
(547,-1,o),
(641,-4,cs),
(738,-7,o),
(838,-10,o),
(963,-10,cs),
(979,-10,o),
(991,1,o),
(998,20,cs),
(1024,96,o),
(1056,213,o),
(1056,251,cs),
(1056,267,o),
(1049,275,o),
(1035,278,cs),
(1021,281,o),
(1011,269,o),
(1003,253,cs),
(962,175,o),
(933,130,o),
(892,102,cs),
(849,75,o),
(797,69,o),
(713,69,cs),
(568,69,ls),
(480,69,o),
(439,100,o),
(439,200,cs),
(439,576,ls),
(439,621,o),
(461,627,o),
(506,627,cs),
(688,627,ls),
(740,627,o),
(762,599,o),
(778,539,cs),
(789,496,o),
(804,476,o),
(823,476,cs),
(839,476,o),
(841,491,o),
(841,510,cs),
(841,541,o),
(837,591,o),
(837,660,cs),
(837,691,o),
(843,747,o),
(843,798,cs),
(843,818,o),
(828,829,o),
(817,829,cs),
(802,829,o),
(790,815,o),
(782,786,cs),
(763,712,o),
(744,690,o),
(668,690,cs),
(474,690,ls),
(457,690,o),
(439,709,o),
(439,733,cs),
(439,1148,ls),
(439,1185,o),
(489,1211,o),
(510,1211,cs),
(766,1211,ls),
(817,1211,o),
(861,1200,o),
(898,1158,cs),
(915,1141,o),
(928,1095,o),
(941,1050,c),
(946,1039,o),
(949,1031,o),
(962,1031,cs),
(975,1031,o),
(990,1037,o),
(990,1060,cs),
(990,1086,o),
(987,1116,o),
(980,1153,cs),
(973,1190,o),
(967,1225,o),
(960,1262,cs),
(957,1276,o),
(938,1280,o),
(925,1280,cs),
(920,1280,o),
(902,1280,o),
(871,1279,cs),
(840,1278,o),
(802,1277,o),
(758,1276,cs),
(688,1276,o),
(560,1274,o),
(490,1274,cs),
(398,1274,o),
(339,1275,o),
(270,1278,cs),
(236,1279,o),
(193,1280,o),
(143,1280,cs),
(123,1280,o),
(86,1278,o),
(86,1258,cs),
(86,1233,o),
(129,1223,o),
(151,1219,cs),
(250,1200,o),
(282,1169,o),
(282,1076,cs),
(282,194,ls),
(282,99,o),
(238,66,o),
(137,47,cs),
(94,39,o),
(73,27,o),
(73,12,cs),
(73,-8,o),
(110,-10,o),
(129,-10,cs)
);
}
);
width = 1344;
},
{
anchors = (
{
name = bottom;
pos = (536,0);
},
{
name = ogonek;
pos = (1306,10);
},
{
name = top;
pos = (552,1274);
},
{
name = topleft;
pos = (20,1274);
}
);
layerId = "088BD936-56BA-4CBD-9590-2DD048370D9B";
shapes = (
{
closed = 1;
nodes = (
(135,-10,o),
(183,-7,o),
(230,-4,cs),
(271,-1,o),
(312,1,o),
(352,1,cs),
(460,1,o),
(570,-1,o),
(672,-3,cs),
(796,-6,o),
(907,-9,o),
(985,-9,cs),
(1003,-9,o),
(1019,1,o),
(1025,19,cs),
(1051,106,o),
(1086,199,o),
(1086,266,cs),
(1086,283,o),
(1082,300,o),
(1066,301,cs),
(1051,302,o),
(1040,297,o),
(1031,277,cs),
(997,211,o),
(963,156,o),
(920,122,cs),
(881,93,o),
(827,81,o),
(764,81,cs),
(599,81,ls),
(526,81,o),
(492,109,o),
(492,192,cs),
(492,565,ls),
(492,599,o),
(509,612,o),
(543,612,cs),
(727,612,ls),
(777,612,o),
(803,572,o),
(824,497,cs),
(833,463,o),
(848,445,o),
(870,445,cs),
(890,445,o),
(890,472,o),
(889,492,cs),
(886,538,o),
(882,602,o),
(882,650,cs),
(882,704,o),
(886,736,o),
(891,804,cs),
(892,829,o),
(878,844,o),
(866,844,cs),
(850,844,o),
(837,831,o),
(828,806,cs),
(806,740,o),
(784,694,o),
(714,694,cs),
(537,694,ls),
(511,694,o),
(492,709,o),
(492,739,cs),
(492,1119,ls),
(492,1169,o),
(539,1200,o),
(589,1200,cs),
(760,1200,ls),
(825,1200,o),
(868,1173,o),
(899,1141,cs),
(924,1115,o),
(940,1068,o),
(963,1008,cs),
(972,988,o),
(984,980,o),
(997,980,cs),
(1011,980,o),
(1024,990,o),
(1024,1015,cs),
(1024,1047,o),
(1020,1084,o),
(1012,1127,cs),
(1004,1170,o),
(997,1212,o),
(991,1257,cs),
(989,1281,o),
(965,1290,o),
(946,1290,cs),
(941,1290,o),
(925,1288,o),
(896,1284,cs),
(869,1281,o),
(832,1279,o),
(789,1279,cs),
(714,1278,o),
(476,1274,o),
(401,1274,cs),
(355,1274,o),
(308,1276,o),
(259,1278,cs),
(206,1281,o),
(152,1283,o),
(95,1283,cs),
(68,1283,o),
(49,1272,o),
(49,1254,cs),
(49,1238,o),
(64,1222,o),
(100,1214,cs),
(192,1194,o),
(222,1166,o),
(222,1079,cs),
(222,189,ls),
(222,103,o),
(186,80,o),
(95,57,cs),
(63,49,o),
(46,36,o),
(46,18,cs),
(46,2,o),
(63,-10,o),
(90,-10,cs)
);
}
);
width = 1451;
}
);
note = E;
unicode = 69;
}
{
color = 4;
glyphname = F;
kernLeft = B;
kernRight = F;
layers = (
{
anchors = (
{
name = bottom;
pos = (576,0);
},
{
name = top;
pos = (576,1274);
}
);
background = {
shapes = (
{
closed = 1;
nodes = (
(155,-20,o),
(214,-11,qs),
(300,3,o),
(377,3,qs),
(522,3,o),
(604,-14,q),
(614,-11,o),
(622,1,o),
(622,8,qs),
(622,24,o),
(594,37,qs),
(545,58,o),
(434,69,o),
(413,86,q),
(405,107,o),
(405,121,qs),
(407,452,ls),
(406,540,o),
(406,552,qs),
(406,621,ls),
(406,626,o),
(410,638,q),
(423,646,o),
(453,646,qs),
(463,646,ls),
(475,646,o),
(535,649,qs),
(560,650,o),
(626,650,qs),
(838,650,o),
(864,644,qs),
(879,641,o),
(891,621,qs),
(925,564,o),
(941,464,q),
(952,462,l),
(961,462,o),
(978,469,q),
(966,837,ls),
(965,884,o),
(961,907,q),
(950,912,o),
(945,912,qs),
(939,912,o),
(927,906,q),
(914,823,l),
(894,751,o),
(889,744,qs),
(874,722,o),
(844,711,qs),
(799,695,o),
(684,695,qs),
(493,695,l),
(437,692,l),
(408,694,l),
(402,730,o),
(402,770,qs),
(405,1042,ls),
(405,1104,o),
(402,1155,qs),
(402,1170,ls),
(402,1204,o),
(423,1213,qs),
(454,1227,o),
(502,1227,qs),
(580,1226,ls),
(593,1226,o),
(709,1233,o),
(776,1233,qs),
(918,1233,o),
(978,1210,qs),
(1008,1198,o),
(1021,1166,qs),
(1048,1098,o),
(1052,1055,qs),
(1054,1024,o),
(1062,1013,qs),
(1067,1007,o),
(1076,1007,qs),
(1089,1007,o),
(1105,1014,q),
(1107,1031,o),
(1107,1042,qs),
(1098,1221,l),
(1099,1261,l),
(1098,1268,o),
(1092,1284,q),
(1078,1294,o),
(1060,1294,qs),
(1017,1293,l),
(990,1293,l),
(686,1281,l),
(399,1276,l),
(260,1276,ls),
(195,1274,o),
(181,1274,qs),
(153,1274,ls),
(107,1276,o),
(92,1276,qs),
(78,1276,o),
(65,1268,q),
(62,1260,o),
(62,1255,qs),
(62,1246,o),
(84,1230,o),
(206,1205,o),
(235,1175,o),
(235,1135,qs),
(232,1006,l),
(246,228,ls),
(246,113,o),
(237,69,q),
(224,55,o),
(185,38,o),
(82,21,o),
(60,10,q),
(59,-15,l),
(79,-20,l)
);
}
);
};
layerId = m01;
shapes = (
{
closed = 1;
nodes = (
(188,-10,o),
(224,-4,o),
(280,1,cs),
(304,3,o),
(332,4,o),
(363,4,cs),
(412,4,o),
(436,-1,o),
(474,-6,cs),
(493,-9,o),
(520,-10,o),
(555,-10,cs),
(574,-10,o),
(611,-9,o),
(611,12,cs),
(611,37,o),
(568,43,o),
(547,47,cs),
(450,66,o),
(422,114,o),
(417,198,cs),
(413,329,o),
(412,452,o),
(412,572,cs),
(412,607,o),
(432,618,o),
(459,621,cs),
(480,624,o),
(667,623,o),
(684,623,cs),
(715,623,o),
(757,605,o),
(776,545,cs),
(781,532,o),
(796,500,o),
(821,500,cs),
(837,500,o),
(839,514,o),
(839,533,cs),
(838,570,o),
(833,629,o),
(833,666,cs),
(833,699,o),
(837,741,o),
(839,774,cs),
(842,793,o),
(824,805,o),
(813,805,cs),
(802,805,o),
(783,783,o),
(778,772,cs),
(759,728,o),
(717,692,o),
(658,692,cs),
(635,692,o),
(473,686,o),
(431,686,cs),
(412,686,o),
(412,708,o),
(412,729,cs),
(411,752,o),
(411,1086,o),
(412,1111,cs),
(415,1163,o),
(418,1209,o),
(478,1209,cs),
(727,1209,ls),
(776,1209,o),
(822,1199,o),
(858,1156,c),
(877,1139,o),
(892,1105,o),
(903,1060,cs),
(906,1046,o),
(920,1037,o),
(933,1037,cs),
(945,1037,o),
(951,1051,o),
(951,1078,cs),
(951,1112,o),
(949,1231,o),
(941,1276,cs),
(938,1289,o),
(918,1293,o),
(905,1293,cs),
(869,1293,o),
(821,1274,o),
(711,1274,cs),
(671,1274,o),
(502,1274,o),
(464,1274,cs),
(345,1274,o),
(229,1280,o),
(127,1280,cs),
(108,1280,o),
(71,1279,o),
(71,1258,cs),
(71,1234,o),
(111,1223,o),
(135,1219,cs),
(235,1200,o),
(255,1140,o),
(255,1023,cs),
(255,196,ls),
(255,99,o),
(223,66,o),
(123,47,cs),
(80,39,o),
(59,27,o),
(59,12,cs),
(59,-9,o),
(97,-10,o),
(116,-10,cs)
);
}
);
width = 1152;
},
{
anchors = (
{
name = bottom;
pos = (630,0);
},
{
name = top;
pos = (630,1274);
}
);
layerId = "088BD936-56BA-4CBD-9590-2DD048370D9B";
shapes = (
{
closed = 1;
nodes = (
(134,-7,o),
(189,-3,o),
(246,0,cs),
(283,2,o),
(321,4,o),
(360,4,cs),
(394,4,o),
(432,2,o),
(470,0,cs),
(526,-3,o),
(584,-6,o),
(640,-6,cs),
(666,-6,o),
(680,3,o),
(680,20,cs),
(680,44,o),
(665,54,o),
(634,60,cs),
(527,81,o),
(491,112,o),
(489,194,cs),
(487,287,o),
(485,472,o),
(485,565,cs),
(485,595,o),
(501,610,o),
(529,611,cs),
(548,612,o),
(725,612,o),
(741,612,cs),
(783,612,o),
(816,590,o),
(838,517,cs),
(845,495,o),
(863,471,o),
(884,471,cs),
(902,471,o),
(906,498,o),
(903,518,cs),
(899,577,o),
(896,605,o),
(896,653,cs),
(896,689,o),
(900,734,o),
(904,787,cs),
(907,812,o),
(892,827,o),
(880,827,cs),
(868,827,o),
(857,820,o),
(841,788,cs),
(819,734,o),
(789,696,o),
(725,696,cs),
(697,696,o),
(561,694,o),
(527,694,cs),
(500,694,o),
(487,709,o),
(487,739,cs),
(487,767,o),
(487,1077,o),
(487,1100,cs),
(488,1156,o),
(519,1193,o),
(583,1193,cs),
(751,1193,ls),
(812,1193,o),
(856,1178,o),
(891,1141,cs),
(921,1111,o),
(940,1062,o),
(955,1002,cs),
(960,982,o),
(979,973,o),
(992,973,cs),
(1007,973,o),
(1015,986,o),
(1015,1013,cs),
(1015,1068,o),
(1013,1187,o),
(1005,1262,cs),
(1003,1287,o),
(974,1294,o),
(960,1294,cs),
(896,1294,o),
(800,1274,o),
(654,1274,cs),
(509,1274,o),
(445,1274,o),
(397,1274,cs),
(301,1274,o),
(203,1283,o),
(94,1283,cs),
(68,1283,o),
(49,1272,o),
(49,1254,cs),
(49,1238,o),
(63,1222,o),
(98,1214,cs),
(193,1193,o),
(217,1156,o),
(217,1060,cs),
(217,192,ls),
(217,105,o),
(186,79,o),
(87,60,cs),
(56,53,o),
(40,39,o),
(40,20,cs),
(40,2,o),
(61,-7,o),
(83,-7,cs)
);
}
);
width = 1259;
}
);
note = F;
unicode = 70;
}
{
color = 4;
glyphname = G;
kernLeft = C;
kernRight = G;
layers = (
{
anchors = (
{
name = bottom;
pos = (790,0);
},
{
name = top;
pos = (790,1274);
}
);
background = {
shapes = (
{
closed = 1;
nodes = (
(1249.667,1264.667,o),
(1109.333,1312,o),
(880,1312,cs),
(714,1312,o),
(582.667,1287.333,o),
(486,1238,cs),
(211.333,1098,o),
(95,856.333,o),
(95,623,cs),
(95,529.667,o),
(114.667,438,o),
(154,348,cs),
(206,225.333,o),
(333.833,92.833,o),
(502.5,25.5,cs),
(586.833,-8.167,o),
(695,-25,o),
(827,-25,cs),
(909,-25,o),
(994,-17.333,o),
(1082,-2,cs),
(1129.333,6,o),
(1182,21.667,o),
(1240,45,cs),
(1280.667,61,o),
(1307.333,74.833,o),
(1320,86.5,cs),
(1332.667,98.167,o),
(1341,111.333,o),
(1345,126,cs),
(1352.333,150.667,o),
(1356,208,o),
(1356,298,cs),
(1355,429,ls),
(1355,471.667,o),
(1358.333,496.667,o),
(1365,504,cs),
(1378.333,519.333,o),
(1396,527,o),
(1418,527,cs),
(1483,526,ls),
(1498.333,526,o),
(1520,529,o),
(1548,535,c),
(1551.333,546.333,o),
(1553,555.667,o),
(1553,563,cs),
(1553,571,o),
(1551.333,573.667,o),
(1542,575,cs),
(1516.667,576.333,o),
(1495,577,o),
(1477,577,cs),
(1384,576,l),
(1281,580,ls),
(1222.333,581.333,o),
(1180,582,o),
(1154,582,cs),
(1038,582,o),
(962.667,579.333,o),
(928,574,c),
(923.333,568.667,o),
(921,564.333,o),
(921,561,c),
(936,536,l),
(942.667,534.667,o),
(948,533.667,o),
(952,533,c),
(979,534,l),
(1019,531,ls),
(1181.667,519,o),
(1187,522.667,o),
(1187,292,cs),
(1187,153.333,o),
(1172.333,125.5,o),
(1123,87.5,cs),
(1073.667,49.5,o),
(960,25,o),
(880,25,cs),
(818,25,o),
(771.333,28.667,o),
(740,36,cs),
(684.667,50,o),
(637,70.667,o),
(597,98,cs),
(474.333,180.667,o),
(382.333,296.333,o),
(333,427,cs),
(308.333,492.333,o),
(296,566,o),
(296,648,cs),
(296,932,o),
(450.667,1142.667,o),
(640,1224,cs),
(705.333,1252.667,o),
(796.667,1267,o),
(914,1267,cs),
(1106,1267,o),
(1234.667,1165.667,o),
(1324,963,c),
(1352,968,l),
(1352,984.667,o),
(1350,1016,o),
(1346,1062,cs),
(1335,1214,l),
(1335,1214,l)
);
}
);
};
layerId = m01;
shapes = (
{
closed = 1;
nodes = (
(893,-27,o),
(999,2,o),
(1080,36,cs),
(1154,67,o),
(1215,101,o),
(1235,104,cs),
(1262,109,o),
(1262,130,o),
(1262,141,cs),
(1262,146,o),
(1259,152,o),
(1253,157,cs),
(1240,167,o),
(1225,188,o),
(1225,206,cs),
(1225,296,o),
(1223,319,o),
(1235,406,cs),
(1243,458,o),
(1260,486,o),
(1317,502,cs),
(1328,505,o),
(1358,518,o),
(1358,537,cs),
(1358,564,o),
(1328,568,o),
(1317,568,cs),
(1282,568,o),
(1252,567,o),
(1229,565,cs),
(1205,562,o),
(1177,561,o),
(1143,561,cs),
(1072,561,o),
(1027,563,o),
(980,566,cs),
(957,567,o),
(929,568,o),
(896,568,cs),
(885,568,o),
(856,556,o),
(856,535,cs),
(856,516,o),
(885,502,o),
(896,502,cs),
(950,502,o),
(1059,481,o),
(1088,441,cs),
(1104,419,o),
(1094,293,o),
(1094,268,cs),
(1094,201,o),
(1063,146,o),
(1035,118,cs),
(985,68,o),
(887,45,o),
(796,45,cs),
(665,45,o),
(538,97,o),
(441,200,cs),
(344,302,o),
(282,450,o),
(282,635,cs),
(282,949,o),
(490,1225,o),
(792,1225,cs),
(917,1225,o),
(1003,1194,o),
(1054,1162,cs),
(1113,1123,o),
(1140,1080,o),
(1164,1017,cs),
(1172,994,o),
(1184,964,o),
(1209,964,cs),
(1225,964,o),
(1239,986,o),
(1239,1003,cs),
(1239,1056,o),
(1230,1134,o),
(1219,1211,cs),
(1216,1225,o),
(1214,1230,o),
(1201,1235,cs),
(1148,1260,o),
(897,1299,o),
(809,1299,cs),
(588,1299,o),
(388,1203,o),
(255,1051,cs),
(151,932,o),
(88,779,o),
(88,610,cs),
(88,245,o),
(408,-27,o),
(768,-27,cs)
);
}
);
width = 1579;
},
{
anchors = (
{
name = bottom;
pos = (747,0);
},
{
name = top;
pos = (747,1274);
}
);
layerId = "088BD936-56BA-4CBD-9590-2DD048370D9B";
shapes = (
{
closed = 1;
nodes = (
(860,-14,o),
(966,12,o),
(1043,43,cs),
(1113,71,o),
(1167,101,o),
(1189,104,cs),
(1216,109,o),
(1229,129,o),
(1229,146,cs),
(1229,162,o),
(1223,176,o),
(1210,188,cs),
(1198,201,o),
(1184,214,o),
(1184,227,cs),
(1184,327,o),
(1191,399,o),
(1197,435,cs),
(1205,486,o),
(1226,508,o),
(1302,528,cs),
(1324,533,o),
(1338,543,o),
(1338,568,cs),
(1338,589,o),
(1328,597,o),
(1308,597,cs),
(1268,597,o),
(1226,596,o),
(1181,593,cs),
(1135,590,o),
(1095,589,o),
(1058,589,cs),
(982,589,o),
(863,599,o),
(754,599,cs),
(734,599,o),
(712,589,o),
(712,570,cs),
(712,547,o),
(737,531,o),
(760,526,cs),
(794,520,o),
(830,508,o),
(868,492,cs),
(907,477,o),
(918,451,o),
(918,423,cs),
(918,331,o),
(915,266,o),
(914,255,cs),
(911,201,o),
(897,154,o),
(872,137,cs),
(846,118,o),
(810,95,o),
(763,95,cs),
(519,95,o),
(410,316,o),
(410,670,cs),
(410,938,o),
(552,1176,o),
(821,1176,cs),
(900,1176,o),
(954,1158,o),
(995,1131,cs),
(1015,1118,o),
(1033,1103,o),
(1050,1086,cs),
(1092,1043,o),
(1126,980,o),
(1149,929,c),
(1162,907,o),
(1172,891,o),
(1203,891,cs),
(1223,891,o),
(1235,904,o),
(1235,929,cs),
(1235,985,o),
(1225,1070,o),
(1212,1160,cs),
(1209,1189,o),
(1193,1201,o),
(1170,1212,c),
(1078,1247,o),
(893,1281,o),
(786,1281,cs),
(562,1281,o),
(380,1201,o),
(255,1077,cs),
(129,952,o),
(61,787,o),
(61,614,cs),
(61,236,o),
(359,-14,o),
(731,-14,cs)
);
}
);
width = 1493;
}
);
note = G;
unicode = 71;
}
{
color = 4;
glyphname = H;
kernLeft = B;
kernRight = H;
layers = (
{
anchors = (
{
name = bottom;
pos = (779,0);
},
{
name = center;
pos = (779,1024);
},
{
name = top;
pos = (779,1274);
},
{
name = topleft;
pos = (20,1274);
}
);
background = {
shapes = (
{
closed = 1;
nodes = (
(85,-14,qs),
(226,-8,o),
(290,-8,qs),
(328,-8,o),
(377,-12,qs),
(453,-18,o),
(504,-19,qs),
(536,-20,o),
(558,-21,o),
(566,-21,qs),
(577,-21,o),
(583,-16,qs),
(587,-13,o),
(587,-8,q),
(581,2,l),
(557,11,o),
(511,21,qs),
(442,36,o),
(433,42,qs),
(420,50,o),
(415,71,qs),
(405,116,o),
(405,253,qs),
(405,276,o),
(406,311,qs),
(411,483,o),
(411,500,qs),
(410,570,ls),
(410,594,o),
(427,612,o),
(450,612,qs),
(455,612,o),
(501,613,qs),
(525,614,o),
(560,614,qs),
(625,614,o),
(778,609,o),
(802,609,qs),
(826,609,o),
(874,612,qs),
(1113,625,o),
(1140,616,qs),
(1148,613,o),
(1151,599,q),
(1154,436,o),
(1154,351,qs),
(1154,345,o),
(1151,280,q),
(1152,136,ls),
(1152,101,o),
(1133,83,qs),
(1104,56,o),
(1054,51,qs),
(987,44,o),
(956,26,q),
(954,14,o),
(954,7,qs),
(954,1,o),
(956,-12,q),
(1081,7,o),
(1160,13,o),
(1254,13,qs),
(1374,13,o),
(1483,-7,qs),
(1491,-9,o),
(1496,-9,qs),
(1501,-8,l),
(1504,4,l),
(1504,17,o),
(1481,36,o),
(1421,51,qs),
(1340,69,l),
(1326,75,o),
(1320,89,qs),
(1308,118,o),
(1308,186,qs),
(1309,321,ls),
(1306,425,o),
(1306,474,qs),
(1308,638,l),
(1307,812,l),
(1309,905,l),
(1308,977,l),
(1308,1092,ls),
(1308,1103,o),
(1307,1139,qs),
(1306,1151,o),
(1306,1161,qs),
(1306,1204,o),
(1325,1218,q),
(1348,1227,o),
(1382,1229,qs),
(1435,1233,o),
(1473,1248,q),
(1477,1264,o),
(1478,1284,q),
(1341,1274,o),
(1282,1274,qs),
(1190,1274,o),
(1099,1279,qs),
(1033,1283,ls),
(1024,1283,o),
(990,1278,q),
(990,1259,o),
(995,1244,q),
(1010,1241,o),
(1027,1239,qs),
(1125,1226,o),
(1131,1223,qs),
(1141,1217,o),
(1145,1200,qs),
(1152,1172,o),
(1152,1015,qs),
(1152,852,o),
(1146,678,q),
(1136,675,o),
(1089,674,qs),
(835,666,l),
(738,669,l),
(591,667,ls),
(585,667,o),
(551,669,qs),
(426,675,o),
(421,679,q),
(417,773,ls),
(412,945,o),
(412,1107,qs),
(412,1195,o),
(459,1238,o),
(590,1249,q),
(601,1251,o),
(610,1262,o),
(610,1272,qs),
(610,1280,o),
(608,1289,q),
(497,1286,o),
(442,1282,qs),
(330,1274,o),
(230,1274,qs),
(136,1275,ls),
(123,1275,o),
(99,1273,q),
(98,1262,o),
(98,1254,qs),
(98,1247,o),
(103,1236,q),
(121,1233,o),
(168,1229,qs),
(229,1224,o),
(251,1212,o),
(259,1184,o),
(259,1098,qs),
(259,1069,o),
(253,918,o),
(253,853,qs),
(253,580,ls),
(253,575,o),
(247,422,o),
(247,371,qs),
(249,289,l),
(248,219,l),
(250,143,ls),
(250,109,o),
(236,76,qs),
(228,59,o),
(190,40,o),
(119,31,qs),
(74,26,o),
(40,7,q),
(39,-15,l),
(58,-15,o)
);
}
);
};
layerId = m01;
shapes = (
{
closed = 1;
nodes = (
(209,-10,o),
(267,0,o),
(345,0,cs),
(431,0,o),
(491,-10,o),
(574,-10,cs),
(609,-10,o),
(631,0,o),
(631,16,cs),
(631,39,o),
(589,43,o),
(568,47,cs),
(480,63,o),
(412,127,o),
(412,208,cs),
(412,580,ls),
(412,595,o),
(415,602,o),
(421,602,cs),
(1170,602,ls),
(1177,602,o),
(1180,599,o),
(1180,592,cs),
(1180,190,l),
(1179,106,o),
(1128,63,o),
(1045,47,cs),
(1024,43,o),
(982,37,o),
(982,16,cs),
(982,0,o),
(1004,-10,o),
(1039,-10,cs),
(1119,-10,o),
(1170,0,o),
(1248,0,cs),
(1332,0,o),
(1363,-10,o),
(1452,-10,cs),
(1487,-10,o),
(1509,0,o),
(1509,16,cs),
(1509,29,o),
(1488,39,o),
(1446,47,cs),
(1349,66,o),
(1337,99,o),
(1337,196,cs),
(1337,1082,ls),
(1337,1158,o),
(1343,1200,o),
(1440,1219,cs),
(1483,1227,o),
(1505,1239,o),
(1505,1254,cs),
(1505,1276,o),
(1470,1280,o),
(1448,1280,cs),
(1374,1280,o),
(1344,1274,o),
(1270,1274,cs),
(1191,1274,o),
(1118,1280,o),
(1043,1280,cs),
(1005,1280,o),
(986,1271,o),
(986,1254,cs),
(986,1231,o),
(1028,1223,o),
(1050,1219,cs),
(1151,1200,o),
(1180,1153,o),
(1180,1082,cs),
(1180,700,ls),
(1180,684,o),
(1175,676,o),
(1166,676,cs),
(439,676,ls),
(428,676,o),
(412,678,o),
(412,694,cs),
(412,1080,ls),
(412,1156,o),
(447,1200,o),
(545,1219,cs),
(567,1223,o),
(610,1231,o),
(610,1254,cs),
(610,1271,o),
(591,1280,o),
(553,1280,cs),
(476,1280,o),
(423,1274,o),
(345,1274,cs),
(273,1274,o),
(215,1280,o),
(143,1280,cs),
(121,1280,o),
(86,1276,o),
(86,1254,cs),
(86,1239,o),
(108,1227,o),
(151,1219,cs),
(250,1200,o),
(255,1171,o),
(255,1080,cs),
(255,194,ls),
(255,99,o),
(236,66,o),
(135,47,cs),
(94,39,o),
(73,29,o),
(73,16,cs),
(73,0,o),
(96,-10,o),
(129,-10,cs)
);
}
);
width = 1557;
},
{
anchors = (
{
name = bottom;
pos = (886,0);
},
{
name = center;
pos = (886,1026);
},
{
name = top;
pos = (886,1274);
},
{
name = topleft;
pos = (20,1274);
}
);
layerId = "088BD936-56BA-4CBD-9590-2DD048370D9B";
shapes = (
{
closed = 1;
nodes = (
(163,-7,o),
(253,3,o),
(346,3,cs),
(433,3,o),
(531,-6,o),
(623,-6,cs),
(649,-6,o),
(664,5,o),
(664,22,cs),
(664,45,o),
(648,52,o),
(617,60,cs),
(519,84,o),
(479,122,o),
(479,198,cs),
(479,565,ls),
(479,585,o),
(487,594,o),
(503,594,cs),
(1074,594,ls),
(1093,594,o),
(1095,580,o),
(1095,562,cs),
(1095,191,ls),
(1095,114,o),
(1062,84,o),
(965,60,cs),
(933,52,o),
(919,45,o),
(919,22,cs),
(919,5,o),
(936,-6,o),
(959,-6,cs),
(1050,-6,o),
(1149,3,o),
(1229,3,cs),
(1322,3,o),
(1409,-7,o),
(1483,-7,cs),
(1506,-7,o),
(1526,3,o),
(1526,21,cs),
(1526,40,o),
(1510,53,o),
(1480,60,cs),
(1388,80,o),
(1366,105,o),
(1366,192,cs),
(1366,1081,ls),
(1366,1162,o),
(1386,1193,o),
(1478,1214,cs),
(1509,1221,o),
(1525,1234,o),
(1525,1254,cs),
(1525,1272,o),
(1506,1283,o),
(1482,1283,cs),
(1389,1283,o),
(1309,1274,o),
(1237,1274,cs),
(1148,1274,o),
(1048,1281,o),
(961,1281,cs),
(934,1281,o),
(921,1272,o),
(921,1253,cs),
(921,1230,o),
(936,1222,o),
(967,1214,cs),
(1071,1188,o),
(1095,1155,o),
(1095,1079,cs),
(1095,720,ls),
(1095,702,o),
(1088,693,o),
(1073,693,cs),
(510,693,ls),
(494,693,o),
(479,698,o),
(479,718,cs),
(479,1079,ls),
(479,1156,o),
(506,1188,o),
(609,1214,cs),
(639,1222,o),
(656,1230,o),
(656,1253,cs),
(656,1272,o),
(643,1281,o),
(616,1281,cs),
(526,1281,o),
(433,1274,o),
(346,1274,cs),
(272,1274,o),
(186,1283,o),
(93,1283,cs),
(69,1283,o),
(49,1272,o),
(49,1254,cs),
(49,1234,o),
(66,1221,o),
(97,1214,cs),
(190,1193,o),
(209,1166,o),
(209,1080,cs),
(209,191,ls),
(209,105,o),
(184,80,o),
(91,60,cs),
(61,53,o),
(45,40,o),
(45,21,cs),
(45,3,o),
(66,-7,o),
(88,-7,cs)
);
}
);
width = 1771;
}
);
note = H;
unicode = 72;
}
{
color = 4;
glyphname = I;
kernLeft = B;
kernRight = H;
layers = (
{
anchors = (
{
name = bottom;
pos = (363,0);
},
{
name = ogonek;
pos = (653,10);
},
{
name = top;
pos = (343,1274);
},
{
name = topleft;
pos = (20,1274);
}
);
background = {
shapes = (
{
closed = 1;
nodes = (
(64,2,l),
(299,1,l),
(437,3,l),
(501,0,o),
(526,0,qs),
(569,0,o),
(660,3,q),
(660,11,ls),
(660,20,o),
(657,33,q),
(642,47,o),
(586,49,qs),
(560,50,o),
(514,61,qs),
(483,69,o),
(456,96,o),
(445,158,o),
(445,270,qs),
(445,300,o),
(447,383,qs),
(447,559,l),
(443,1004,l),
(448,1133,ls),
(450,1182,o),
(460,1200,qs),
(466,1212,o),
(479,1217,qs),
(500,1227,o),
(595,1238,qs),
(642,1244,o),
(662,1249,q),
(664,1263,o),
(664,1279,q),
(494,1273,o),
(392,1273,qs),
(127,1279,l),
(43,1279,l),
(44,1254,o),
(52,1248,qs),
(63,1240,o),
(228,1227,o),
(265,1208,q),
(272,1195,o),
(276,1181,q),
(282,1111,o),
(282,1048,qs),
(282,1024,o),
(281,1006,qs),
(279,954,l),
(281,913,l),
(281,821,l),
(282,743,l),
(280,672,l),
(284,551,l),
(284,441,l),
(285,336,ls),
(285,106,o),
(241,53,o),
(88,43,qs),
(65,41,o),
(43,32,q),
(45,2,l)
);
}
);
};
layerId = m01;
shapes = (
{
closed = 1;
nodes = (
(181,-10,o),
(252,0,o),
(345,0,cs),
(431,0,o),
(491,-10,o),
(574,-10,cs),
(595,-10,o),
(631,-9,o),
(631,12,cs),
(631,36,o),
(589,43,o),
(566,47,cs),
(469,66,o),
(412,100,o),
(412,192,cs),
(412,1078,ls),
(412,1169,o),
(453,1200,o),
(551,1219,cs),
(575,1223,o),
(615,1233,o),
(615,1258,cs),
(615,1279,o),
(580,1280,o),
(559,1280,cs),
(481,1280,o),
(426,1274,o),
(345,1274,cs),
(261,1274,o),
(193,1280,o),
(116,1280,cs),
(97,1280,o),
(59,1279,o),
(59,1258,cs),
(59,1240,o),
(80,1227,o),
(123,1219,cs),
(224,1200,o),
(255,1169,o),
(255,1078,cs),
(255,192,ls),
(255,100,o),
(201,66,o),
(102,47,cs),
(59,39,o),
(37,27,o),
(37,12,cs),
(37,-8,o),
(74,-10,o),
(94,-10,cs)
);
}
);
width = 725;
},
{
anchors = (
{
name = bottom;
pos = (406,0);
},
{
name = ogonek;
pos = (730,10);
},
{
name = top;
pos = (406,1274);
},
{
name = topleft;
pos = (20,1274);
}
);
layerId = "088BD936-56BA-4CBD-9590-2DD048370D9B";
shapes = (
{
closed = 1;
nodes = (
(158,-7,o),
(254,3,o),
(354,3,cs),
(441,3,o),
(538,-6,o),
(631,-6,cs),
(657,-6,o),
(671,3,o),
(671,20,cs),
(671,44,o),
(655,52,o),
(624,60,cs),
(523,85,o),
(487,112,o),
(487,192,cs),
(487,1078,ls),
(487,1161,o),
(516,1188,o),
(619,1214,cs),
(649,1222,o),
(666,1231,o),
(666,1254,cs),
(666,1274,o),
(651,1281,o),
(625,1281,cs),
(535,1281,o),
(442,1274,o),
(354,1274,cs),
(273,1274,o),
(177,1283,o),
(83,1283,cs),
(61,1283,o),
(40,1273,o),
(40,1255,cs),
(40,1235,o),
(56,1221,o),
(87,1214,cs),
(189,1193,o),
(217,1166,o),
(217,1079,cs),
(217,191,ls),
(217,106,o),
(177,79,o),
(80,60,cs),
(49,53,o),
(32,39,o),
(32,20,cs),
(32,2,o),
(53,-7,o),
(75,-7,cs)
);
}
);
width = 811;
}
);
note = I;
unicode = 73;
}
{
color = 4;
glyphname = J;
kernLeft = J;
kernRight = IJ;
layers = (
{
background = {
shapes = (
{
closed = 1;
nodes = (
(-173,-432,qs),
(-173,-467,o),
(-147,-488,qs),
(-109,-518,o),
(-46,-518,qs),
(72,-518,o),
(214,-440,o),
(360,-227,o),
(388,-97,qs),
(426,82,o),
(426,182,qs),
(426,298,l),
(428,477,l),
(416,755,ls),
(416,763,o),
(417,774,qs),
(419,812,o),
(419,821,qs),
(419,829,o),
(417,869,qs),
(416,896,o),
(416,931,qs),
(416,971,ls),
(416,1022,o),
(414,1040,qs),
(413,1065,l),
(417,1169,ls),
(417,1195,o),
(424,1204,qs),
(435,1218,o),
(481,1234,o),
(567,1238,q),
(569,1251,o),
(569,1274,q),
(533,1277,o),
(502,1277,qs),
(355,1277,ls),
(341,1277,o),
(306,1275,qs),
(260,1274,o),
(232,1274,qs),
(173,1274,o),
(111,1277,qs),
(79,1279,o),
(57,1279,q),
(56,1267,ls),
(56,1259,o),
(60,1244,q),
(73,1237,o),
(108,1237,q),
(182,1232,ls),
(211,1231,o),
(242,1215,o),
(248,1205,qs),
(258,1186,o),
(257,1160,qs),
(256,967,l),
(262,593,ls),
(270,366,o),
(270,257,qs),
(268,150,l),
(269,-6,ls),
(269,-120,o),
(240,-280,o),
(209,-344,qs),
(186,-390,o),
(110,-442,o),
(72,-442,qs),
(46,-442,o),
(22,-422,qs),
(17,-417,ls),
(12,-413,o),
(2,-404,qs),
(-57,-351,o),
(-103,-351,qs),
(-118,-351,o),
(-137,-364,qs),
(-173,-390,o)
);
}
);
};
layerId = m01;
shapes = (
{
closed = 1;
nodes = (
(142,-392,o),
(205,-349,o),
(257,-286,cs),
(350,-174,o),
(412,-47,o),
(412,92,cs),
(412,1080,ls),
(412,1171,o),
(426,1200,o),
(523,1219,cs),
(548,1223,o),
(588,1233,o),
(588,1258,cs),
(588,1279,o),
(552,1280,o),
(531,1280,cs),
(456,1280,o),
(422,1274,o),
(347,1274,cs),
(263,1274,o),
(195,1280,o),
(118,1280,cs),
(99,1280,o),
(61,1279,o),
(61,1258,cs),
(61,1240,o),
(82,1227,o),
(125,1219,cs),
(220,1200,o),
(255,1171,o),
(255,1080,cs),
(255,-2,ls),
(255,-97,o),
(245,-173,o),
(225,-228,cs),
(204,-285,o),
(171,-312,o),
(125,-312,cs),
(92,-312,o),
(68,-295,o),
(33,-253,c),
(8,-216,o),
(-24,-204,o),
(-59,-204,cs),
(-87,-204,o),
(-135,-252,o),
(-135,-296,cs),
(-135,-360,o),
(-68,-392,o),
(67,-392,cs)
);
}
);
width = 683;
},
{
layerId = "088BD936-56BA-4CBD-9590-2DD048370D9B";
shapes = (
{
closed = 1;
nodes = (
(194,-392,o),
(285,-319,o),
(358,-224,cs),
(454,-99,o),
(515,44,o),
(515,151,cs),
(515,1079,ls),
(515,1162,o),
(534,1188,o),
(637,1214,cs),
(668,1222,o),
(684,1231,o),
(684,1254,cs),
(684,1274,o),
(669,1281,o),
(643,1281,cs),
(552,1281,o),
(461,1274,o),
(382,1274,cs),
(302,1274,o),
(206,1283,o),
(112,1283,cs),
(89,1283,o),
(69,1273,o),
(69,1255,cs),
(69,1235,o),
(85,1221,o),
(115,1214,cs),
(215,1193,o),
(245,1166,o),
(245,1080,cs),
(245,11,ls),
(245,-100,o),
(234,-182,o),
(213,-233,cs),
(192,-284,o),
(161,-311,o),
(121,-311,cs),
(88,-311,o),
(45,-244,o),
(25,-220,cs),
(-2,-187,o),
(-29,-174,o),
(-60,-174,cs),
(-100,-174,o),
(-156,-231,o),
(-156,-282,cs),
(-156,-355,o),
(-70,-392,o),
(102,-392,cs)
);
}
);
width = 768;
}
);
note = J;
unicode = 74;
}
{
color = 4;
glyphname = K;
kernLeft = B;
kernRight = K;
layers = (
{
anchors = (
{
name = bottom;
pos = (758,0);
},
{
name = top;
pos = (758,1274);
}
);
background = {
shapes = (
{
closed = 1;
nodes = (
(698,442,qs),
(881,288,l),
(1000,193,l),
(1058,142,o),
(1104,97,o),
(1108,93,qs),
(1131,72,o),
(1141,56,q),
(1126,54,o),
(1113,54,qs),
(1053,52,o),
(999,38,qs),
(960,28,o),
(947,16,q),
(946,8,ls),
(946,1,o),
(949,-13,q),
(1134,-1,o),
(1278,-1,qs),
(1314,-1,o),
(1369,-5,qs),
(1462,-12,o),
(1508,-12,qs),
(1520,-12,o),
(1554,-10,q),
(1556,4,l),
(1555,15,l),
(1541,29,o),
(1509,33,qs),
(1378,48,o),
(1230,190,qs),
(1129,286,o),
(772,571,o),
(667,669,qs),
(643,692,o),
(637,697,qs),
(629,704,o),
(625,711,q),
(781,837,l),
(1039,1054,ls),
(1094,1101,o),
(1161,1142,qs),
(1250,1196,o),
(1279,1208,qs),
(1330,1228,o),
(1438,1241,q),
(1442,1256,o),
(1442,1280,q),
(1418,1282,o),
(1406,1282,qs),
(1393,1282,o),
(1369,1280,qs),
(1213,1272,ls),
(1202,1271,o),
(1178,1271,qs),
(1079,1271,o),
(1023,1282,o),
(985,1282,qs),
(961,1282,o),
(948,1273,qs),
(941,1267,o),
(941,1256,qs),
(941,1246,o),
(960,1233,o),
(1060,1227,o),
(1106,1215,o),
(1124,1202,q),
(1119,1189,o),
(1110,1177,qs),
(1064,1123,o),
(951,1029,qs),
(677,805,l),
(540,703,o),
(484,669,qs),
(456,652,o),
(444,641,q),
(607,520,o)
);
},
{
closed = 1;
nodes = (
(84,-18,o),
(98,-18,qs),
(193,-18,o),
(303,-4,o),
(334,-4,qs),
(371,-4,o),
(523,-18,o),
(543,-18,qs),
(575,-17,l),
(587,-8,o),
(587,2,qs),
(587,11,o),
(581,24,q),
(564,29,o),
(546,31,qs),
(474,38,o),
(439,59,qs),
(428,66,o),
(418,91,o),
(417,213,qs),
(410,470,l),
(413,729,l),
(415,1105,l),
(414,1124,ls),
(414,1180,o),
(435,1200,qs),
(466,1229,o),
(553,1238,qs),
(586,1242,o),
(598,1248,q),
(600,1255,o),
(600,1261,qs),
(600,1269,o),
(589,1275,q),
(544,1275,o),
(511,1278,q),
(435,1272,o),
(381,1269,qs),
(343,1268,o),
(277,1268,qs),
(135,1268,o),
(79,1265,q),
(75,1255,o),
(75,1250,qs),
(75,1236,o),
(89,1226,q),
(157,1222,o),
(200,1215,qs),
(212,1213,o),
(230,1202,q),
(241,1181,o),
(243,1161,qs),
(249,1108,o),
(249,950,qs),
(247,763,l),
(253,485,l),
(251,404,l),
(251,218,l),
(252,120,ls),
(252,78,o),
(232,60,q),
(174,33,o),
(73,24,qs),
(63,23,o),
(58,13,q),
(60,-17,l)
);
}
);
};
layerId = m01;
shapes = (
{
closed = 1;
nodes = (
(219,-10,o),
(261,4,o),
(365,4,cs),
(451,4,o),
(448,-10,o),
(557,-10,cs),
(578,-10,o),
(613,-9,o),
(613,12,cs),
(613,37,o),
(571,43,o),
(549,47,cs),
(492,59,o),
(456,85,o),
(439,122,cs),
(426,149,o),
(425,181,o),
(423,216,cs),
(419,336,o),
(414,498,o),
(414,618,cs),
(414,628,o),
(416,633,o),
(421,633,cs),
(432,633,o),
(451,615,o),
(466,600,cs),
(882,141,ls),
(898,122,o),
(911,108,o),
(911,92,cs),
(911,75,o),
(892,62,o),
(856,53,cs),
(821,45,o),
(804,34,o),
(804,20,cs),
(804,0,o),
(841,-2,o),
(860,-2,cs),
(919,-2,o),
(974,0,o),
(1019,0,cs),
(1118,0,o),
(1205,-10,o),
(1292,-10,cs),
(1313,-10,o),
(1348,-9,o),
(1348,12,cs),
(1348,34,o),
(1306,42,o),
(1284,47,cs),
(1211,63,o),
(1173,80,o),
(1138,114,cs),
(866,371,o),
(779,494,o),
(594,692,cs),
(579,708,o),
(576,719,o),
(584,727,cs),
(707,865,o),
(822,977,o),
(960,1094,cs),
(1051,1168,o),
(1161,1204,o),
(1258,1223,cs),
(1283,1227,o),
(1323,1237,o),
(1323,1262,cs),
(1323,1275,o),
(1305,1284,o),
(1280,1284,cs),
(1236,1284,o),
(1106,1276,o),
(962,1276,cs),
(856,1276,ls),
(837,1276,o),
(800,1274,o),
(800,1254,cs),
(800,1232,o),
(839,1221,o),
(860,1215,cs),
(886,1208,o),
(898,1193,o),
(898,1170,cs),
(898,1151,o),
(889,1132,o),
(868,1111,cs),
(476,711,ls),
(463,697,o),
(436,676,o),
(423,676,cs),
(412,676,o),
(414,704,o),
(414,713,cs),
(414,1080,ls),
(414,1156,o),
(422,1200,o),
(519,1219,cs),
(544,1223,o),
(584,1233,o),
(584,1258,cs),
(584,1279,o),
(548,1280,o),
(527,1280,cs),
(468,1280,o),
(403,1276,o),
(337,1276,cs),
(268,1276,o),
(187,1280,o),
(118,1280,cs),
(99,1280,o),
(61,1279,o),
(61,1258,cs),
(61,1240,o),
(82,1227,o),
(125,1219,cs),
(226,1200,o),
(257,1171,o),
(257,1080,cs),
(257,198,ls),
(257,101,o),
(226,66,o),
(125,47,cs),
(82,39,o),
(61,27,o),
(61,12,cs),
(61,-9,o),
(99,-10,o),
(118,-10,cs)
);
}
);
width = 1515;
},
{
anchors = (
{
name = bottom;
pos = (694,0);
},
{
name = top;
pos = (694,1274);
}
);
layerId = "088BD936-56BA-4CBD-9590-2DD048370D9B";
shapes = (
{
closed = 1;
nodes = (
(181,-11,o),
(333,7,o),
(361,7,cs),
(446,7,o),
(491,-9,o),
(610,-9,cs),
(638,-9,o),
(665,3,o),
(665,20,cs),
(665,44,o),
(641,52,o),
(611,60,cs),
(543,78,o),
(515,101,o),
(504,136,cs),
(498,155,o),
(495,176,o),
(494,201,cs),
(488,333,o),
(487,441,o),
(487,561,cs),
(487,579,o),
(493,595,o),
(503,595,cs),
(516,595,o),
(532,582,o),
(549,563,cs),
(890,172,ls),
(908,150,o),
(921,131,o),
(921,112,cs),
(920,89,o),
(895,72,o),
(846,62,cs),
(818,55,o),
(804,42,o),
(804,23,cs),
(804,5,o),
(824,-5,o),
(847,-5,cs),
(910,-5,o),
(1010,3,o),
(1073,3,cs),
(1209,3,o),
(1297,-10,o),
(1406,-10,cs),
(1431,-10,o),
(1478,-3,o),
(1478,20,cs),
(1478,44,o),
(1447,51,o),
(1416,60,cs),
(1345,79,o),
(1303,101,o),
(1268,133,cs),
(1250,149,o),
(781,667,o),
(741,711,cs),
(721,733,o),
(721,749,o),
(737,764,cs),
(857,881,o),
(949,984,o),
(1085,1093,cs),
(1164,1154,o),
(1263,1197,o),
(1385,1215,cs),
(1416,1221,o),
(1446,1233,o),
(1446,1256,cs),
(1446,1274,o),
(1423,1283,o),
(1397,1283,cs),
(1296,1283,o),
(1165,1276,o),
(1024,1276,cs),
(895,1276,ls),
(873,1276,o),
(853,1267,o),
(853,1249,cs),
(853,1228,o),
(868,1215,o),
(898,1207,cs),
(945,1197,o),
(969,1178,o),
(969,1151,cs),
(969,1133,o),
(957,1114,o),
(935,1091,cs),
(554,686,l),
(536,669,o),
(519,655,o),
(505,655,cs),
(495,655,o),
(488,670,o),
(488,687,cs),
(488,1079,ls),
(488,1156,o),
(505,1188,o),
(608,1214,cs),
(639,1222,o),
(655,1231,o),
(655,1254,cs),
(655,1274,o),
(640,1281,o),
(614,1281,cs),
(516,1281,o),
(425,1275,o),
(351,1275,cs),
(279,1275,o),
(185,1283,o),
(84,1283,cs),
(61,1283,o),
(40,1273,o),
(40,1255,cs),
(40,1235,o),
(57,1221,o),
(88,1214,cs),
(190,1193,o),
(218,1166,o),
(218,1080,cs),
(218,193,ls),
(218,106,o),
(196,80,o),
(95,60,cs),
(59,53,o),
(40,39,o),
(40,20,cs),
(40,2,o),
(69,-11,o),
(96,-11,cs)
);
}
);
width = 1387;
}
);
note = K;
unicode = 75;
}
{
color = 4;
glyphname = L;
kernLeft = B;
kernRight = L;
layers = (
{
anchors = (
{
name = bottom;
pos = (587,0);
},
{
name = center;
pos = (587,637);
},
{
name = top;
pos = (587,1274);
},
{
name = topright;
pos = (1153,1274);
}
);
background = {
shapes = (
{
closed = 1;
nodes = (
(146,-6,o),
(174,-4,qs),
(264,5,o),
(746,5,q),
(1120,-6,l),
(1122,11,o),
(1124,31,qs),
(1135,125,o),
(1164,266,qs),
(1171,298,o),
(1177,334,q),
(1144,334,l),
(1112,256,o),
(1093,230,qs),
(1081,214,o),
(1076,206,qs),
(1053,168,o),
(1012,132,qs),
(944,76,o),
(886,53,o),
(818,51,qs),
(645,45,l),
(577,45,ls),
(455,46,o),
(430,47,q),
(420,54,o),
(420,84,qs),
(419,146,l),
(422,428,l),
(420,759,l),
(420,822,l),
(419,1007,l),
(419,1067,ls),
(421,1116,o),
(421,1132,qs),
(421,1199,o),
(444,1212,qs),
(458,1220,o),
(644,1227,o),
(655,1229,q),
(661,1250,o),
(662,1268,q),
(629,1271,o),
(548,1271,q),
(468,1265,ls),
(459,1264,o),
(400,1264,q),
(376,1266,o),
(371,1266,qs),
(345,1265,l),
(257,1267,l),
(105,1272,ls),
(62,1274,o),
(43,1274,q),
(42,1264,o),
(42,1258,qs),
(42,1253,o),
(43,1242,q),
(182,1217,o),
(217,1209,o),
(243,1197,q),
(250,1179,o),
(251,1169,qs),
(254,1117,o),
(253,906,qs),
(253,844,l),
(252,610,l),
(253,431,l),
(246,167,ls),
(244,84,o),
(234,71,qs),
(220,53,o),
(171,49,qs),
(97,42,o),
(19,21,q),
(12,9,o),
(11,-6,q),
(115,-6,ls)
);
}
);
};
layerId = m01;
shapes = (
{
closed = 1;
nodes = (
(108,-10,o),
(278,0,o),
(372,0,cs),
(470,0,o),
(577,-4,o),
(683,-5,cs),
(791,-6,o),
(917,-10,o),
(1045,-10,cs),
(1065,-10,o),
(1069,5,o),
(1072,24,cs),
(1072,18,o),
(1119,247,o),
(1127,282,c),
(1130,298,o),
(1119,317,o),
(1103,317,cs),
(1086,317,o),
(1065,273,o),
(1060,259,c),
(1027,189,o),
(1011,164,o),
(958,120,c),
(933,96,o),
(876,69,o),
(805,69,cs),
(562,69,ls),
(434,69,o),
(412,107,o),
(412,188,cs),
(412,1111,ls),
(412,1187,o),
(488,1200,o),
(586,1219,cs),
(608,1223,o),
(651,1233,o),
(651,1258,cs),
(651,1278,o),
(614,1280,o),
(594,1280,cs),
(534,1280,o),
(416,1274,o),
(347,1274,cs),
(268,1274,o),
(202,1280,o),
(127,1280,cs),
(108,1280,o),
(71,1278,o),
(71,1258,cs),
(71,1240,o),
(92,1227,o),
(135,1219,cs),
(233,1203,o),
(255,1190,o),
(255,1097,cs),
(255,188,ls),
(255,101,o),
(197,68,o),
(96,47,c),
(87,44,o),
(53,37,o),
(53,14,cs),
(53,-5,o),
(89,-10,o),
(108,-10,c)
);
}
);
width = 1173;
},
{
anchors = (
{
name = bottom;
pos = (651,0);
},
{
name = center;
pos = (651,637);
},
{
name = top;
pos = (651,1274);
},
{
name = topright;
pos = (1281,1274);
}
);
layerId = "088BD936-56BA-4CBD-9590-2DD048370D9B";
shapes = (
{
closed = 1;
nodes = (
(139,-10,o),
(253,0,o),
(364,0,cs),
(579,0,o),
(865,-10,o),
(1041,-10,cs),
(1063,-10,o),
(1069,7,o),
(1072,26,cs),
(1079,87,o),
(1087,133,o),
(1102,190,cs),
(1108,210,o),
(1135,305,o),
(1135,320,cs),
(1135,338,o),
(1128,359,o),
(1108,359,cs),
(1085,359,o),
(1067,319,o),
(1057,298,cs),
(1029,235,o),
(1000,188,o),
(954,146,cs),
(920,115,o),
(872,93,o),
(811,93,cs),
(602,93,ls),
(515,93,o),
(487,123,o),
(487,200,cs),
(487,1090,ls),
(487,1168,o),
(528,1188,o),
(632,1214,cs),
(662,1222,o),
(679,1231,o),
(679,1254,cs),
(679,1274,o),
(663,1281,o),
(638,1281,cs),
(547,1281,o),
(450,1274,o),
(355,1274,cs),
(276,1274,o),
(181,1283,o),
(87,1283,cs),
(65,1283,o),
(44,1273,o),
(44,1255,cs),
(44,1235,o),
(60,1221,o),
(91,1214,cs),
(182,1195,o),
(217,1179,o),
(217,1086,cs),
(217,187,ls),
(217,103,o),
(176,81,o),
(84,57,cs),
(65,51,o),
(44,37,o),
(44,19,cs),
(44,4,o),
(60,-10,o),
(87,-10,cs)
);
}
);
width = 1301;
}
);
note = L;
unicode = 76;
}
{
color = 4;
glyphname = M;
kernLeft = M;
kernRight = M;
layers = (
{
anchors = (
{
name = bottom;
pos = (854,0);
},
{
name = top;
pos = (854,1274);
}
);
background = {
shapes = (
{
closed = 1;
nodes = (
(90,-3,o),
(130,0,qs),
(202,5,o),
(236,5,qs),
(547,-6,l),
(552,6,o),
(552,11,qs),
(552,18,o),
(545,33,q),
(509,39,o),
(469,39,qs),
(365,41,o),
(315,74,o),
(311,108,qs),
(297,227,o),
(297,322,qs),
(297,625,o),
(310,877,qs),
(320,1084,o),
(328,1127,q),
(391,1016,o),
(704,322,o),
(817,-8,q),
(840,-9,l),
(849,14,o),
(863,54,qs),
(895,141,o),
(940,254,qs),
(1009,418,l),
(1062,553,l),
(1210,903,l),
(1212,909,l),
(1227,947,ls),
(1277,1064,o),
(1294,1099,q),
(1302,1016,o),
(1302,855,qs),
(1302,652,o),
(1295,472,o),
(1295,439,qs),
(1298,237,ls),
(1298,120,o),
(1289,82,q),
(1260,63,o),
(1197,46,q),
(1140,41,o),
(1107,27,q),
(1104,17,o),
(1104,8,qs),
(1104,-5,l),
(1112,-9,o),
(1119,-9,qs),
(1130,-9,o),
(1171,-6,qs),
(1238,-2,o),
(1443,-2,qs),
(1448,-2,o),
(1586,-9,o),
(1645,-9,qs),
(1691,-9,l),
(1692,2,o),
(1692,11,qs),
(1692,19,o),
(1685,24,q),
(1563,43,o),
(1509,61,qs),
(1476,73,o),
(1462,100,o),
(1462,174,qs),
(1461,300,l),
(1462,496,ls),
(1454,850,o),
(1454,1000,qs),
(1455,1048,l),
(1454,1094,l),
(1459,1172,o),
(1472,1200,o),
(1520,1218,o),
(1609,1223,qs),
(1654,1225,o),
(1686,1242,q),
(1689,1254,o),
(1689,1261,qs),
(1689,1266,o),
(1687,1277,q),
(1637,1275,o),
(1559,1275,qs),
(1433,1275,o),
(1377,1278,qs),
(1352,1280,o),
(1336,1280,qs),
(1322,1280,o),
(1303,1273,q),
(1293,1250,o),
(1236,1090,qs),
(1222,1050,o),
(1199,994,qs),
(1142,855,o),
(1126,813,o),
(1117,796,qs),
(1110,783,o),
(1105,767,qs),
(1028,553,o),
(889,278,q),
(772,541,l),
(489,1167,l),
(447,1261,l),
(442,1270,o),
(432,1280,q),
(411,1285,o),
(395,1285,qs),
(389,1285,o),
(341,1282,qs),
(273,1278,o),
(245,1278,qs),
(159,1278,o),
(110,1285,qs),
(83,1289,o),
(75,1289,qs),
(66,1289,o),
(49,1283,q),
(42,1270,o),
(42,1265,qs),
(42,1257,o),
(52,1242,q),
(208,1225,o),
(280,1210,q),
(280,1184,ls),
(280,1117,o),
(264,847,qs),
(244,493,o),
(235,280,qs),
(228,116,o),
(213,79,qs),
(209,70,o),
(201,64,qs),
(189,56,o),
(126,53,q),
(45,44,o),
(14,23,q),
(15,-4,l)
);
}
);
};
layerId = m01;
shapes = (
{
closed = 1;
nodes = (
(155,-10,o),
(211,0,o),
(272,0,cs),
(360,0,o),
(360,-10,o),
(457,-10,cs),
(478,-10,o),
(513,-9,o),
(513,12,cs),
(513,37,o),
(471,43,o),
(449,47,cs),
(368,63,o),
(321,129,o),
(321,200,cs),
(321,377,o),
(332,518,o),
(352,672,cs),
(361,747,o),
(372,832,o),
(384,923,cs),
(385,929,o),
(389,933,o),
(396,933,cs),
(403,933,o),
(407,930,o),
(410,923,cs),
(488,739,o),
(557,572,o),
(620,409,cs),
(674,270,o),
(723,133,o),
(770,-8,cs),
(775,-26,o),
(801,-23,o),
(805,-10,c),
(1256,909,ls),
(1263,924,o),
(1272,931,o),
(1278,930,cs),
(1283,929,o),
(1287,922,o),
(1288,909,c),
(1295,732,o),
(1304,600,o),
(1308,443,cs),
(1310,367,o),
(1311,282,o),
(1311,188,cs),
(1311,97,o),
(1288,58,o),
(1211,47,cs),
(1187,44,o),
(1146,36,o),
(1146,12,cs),
(1146,-8,o),
(1183,-10,o),
(1203,-10,cs),
(1282,-10,o),
(1332,0,o),
(1409,0,cs),
(1495,0,o),
(1555,-10,o),
(1638,-10,cs),
(1659,-10,o),
(1695,-9,o),
(1695,12,cs),
(1695,37,o),
(1653,43,o),
(1631,47,cs),
(1533,66,o),
(1488,105,o),
(1484,186,cs),
(1476,335,o),
(1464,476,o),
(1456,624,cs),
(1448,772,o),
(1440,930,o),
(1440,1113,cs),
(1440,1142,o),
(1461,1169,o),
(1487,1180,cs),
(1531,1198,o),
(1563,1208,o),
(1603,1225,cs),
(1624,1233,o),
(1654,1242,o),
(1654,1266,cs),
(1654,1285,o),
(1626,1286,o),
(1613,1286,cs),
(1580,1286,o),
(1431,1270,o),
(1390,1270,cs),
(1319,1270,ls),
(1310,1270,o),
(1303,1261,o),
(1299,1244,cs),
(1291,1203,o),
(1277,1142,o),
(1264,1097,c),
(878,294,l),
(867,275,o),
(841,281,o),
(833,300,cs),
(523,1086,ls),
(506,1133,o),
(491,1198,o),
(480,1237,cs),
(475,1256,o),
(462,1268,o),
(443,1268,cs),
(371,1268,o),
(221,1284,o),
(149,1284,cs),
(127,1284,o),
(82,1288,o),
(82,1262,cs),
(82,1243,o),
(100,1228,o),
(125,1223,cs),
(187,1212,o),
(225,1204,o),
(272,1164,cs),
(298,1143,o),
(299,1121,o),
(302,1099,cs),
(304,1079,o),
(304,1055,o),
(304,1035,cs),
(304,835,o),
(250,398,o),
(223,200,cs),
(211,108,o),
(167,60,o),
(102,47,cs),
(80,43,o),
(37,35,o),
(37,12,cs),
(37,-8,o),
(74,-10,o),
(94,-10,cs)
);
}
);
width = 1707;
},
{
anchors = (
{
name = bottom;
pos = (939,0);
},
{
name = top;
pos = (939,1274);
}
);
layerId = "088BD936-56BA-4CBD-9590-2DD048370D9B";
shapes = (
{
closed = 1;
nodes = (
(124,-7,o),
(206,1,o),
(291,1,cs),
(344,1,o),
(369,-1,o),
(406,-4,cs),
(424,-5,o),
(452,-6,o),
(487,-6,cs),
(512,-6,o),
(537,3,o),
(537,20,cs),
(537,44,o),
(510,54,o),
(480,60,cs),
(383,82,o),
(339,130,o),
(339,203,cs),
(339,430,o),
(343,649,o),
(363,884,cs),
(365,900,o),
(372,909,o),
(380,909,cs),
(386,909,o),
(391,904,o),
(395,895,cs),
(457,745,o),
(521,596,o),
(588,448,cs),
(655,300,o),
(720,150,o),
(782,-2,cs),
(791,-23,o),
(821,-32,o),
(833,0,c),
(1223,897,ls),
(1229,909,o),
(1235,914,o),
(1240,913,cs),
(1243,912,o),
(1246,908,o),
(1246,899,cs),
(1253,759,o),
(1258,610,o),
(1263,460,cs),
(1266,370,o),
(1268,279,o),
(1271,189,cs),
(1274,107,o),
(1244,77,o),
(1152,60,cs),
(1122,55,o),
(1101,40,o),
(1101,20,cs),
(1101,2,o),
(1122,-7,o),
(1148,-7,cs),
(1229,-7,o),
(1320,3,o),
(1410,3,cs),
(1499,3,o),
(1604,-6,o),
(1696,-6,cs),
(1722,-6,o),
(1741,3,o),
(1741,20,cs),
(1741,44,o),
(1720,52,o),
(1690,60,cs),
(1604,80,o),
(1551,119,o),
(1547,190,cs),
(1543,263,o),
(1525,501,o),
(1520,608,cs),
(1512,736,o),
(1504,875,o),
(1500,1062,cs),
(1496,1136,o),
(1526,1166,o),
(1585,1193,cs),
(1597,1198,o),
(1637,1210,o),
(1666,1225,cs),
(1686,1235,o),
(1701,1247,o),
(1701,1261,cs),
(1701,1283,o),
(1676,1289,o),
(1653,1289,cs),
(1585,1289,o),
(1453,1271,o),
(1360,1269,cs),
(1279,1269,ls),
(1265,1269,o),
(1255,1260,o),
(1250,1243,cs),
(1243,1217,o),
(1217,1096,o),
(1211,1069,c),
(908,386,ls),
(902,372,o),
(888,375,o),
(882,388,cs),
(590,1096,ls),
(571,1145,o),
(557,1191,o),
(539,1241,cs),
(534,1258,o),
(516,1276,o),
(496,1276,cs),
(391,1276,o),
(174,1288,o),
(140,1288,cs),
(108,1288,o),
(83,1282,o),
(83,1259,cs),
(83,1238,o),
(104,1225,o),
(133,1218,cs),
(181,1207,o),
(216,1195,o),
(251,1170,cs),
(282,1151,o),
(293,1127,o),
(294,1086,cs),
(295,1072,o),
(295,1028,o),
(294,1020,cs),
(275,749,o),
(247,438,o),
(217,209,cs),
(206,126,o),
(157,74,o),
(96,55,cs),
(64,45,o),
(38,40,o),
(38,20,cs),
(38,2,o),
(56,-7,o),
(88,-7,cs)
);
}
);
width = 1877;
}
);
note = M;
unicode = 77;
}
{
color = 4;
glyphname = N;
kernLeft = B;
kernRight = N;
layers = (
{
anchors = (
{
name = bottom;
pos = (790,0);
},
{
name = top;
pos = (790,1274);
}
);
background = {
shapes = (
{
closed = 1;
nodes = (
(168,1204,o),
(206,1177,qs),
(225,1163,o),
(231,1145,qs),
(242,1111,o),
(244,921,qs),
(246,637,l),
(246,501,ls),
(249,336,o),
(249,274,qs),
(249,141,o),
(238,72,q),
(226,58,o),
(207,51,qs),
(178,40,o),
(115,31,qs),
(68,24,l),
(42,12,l),
(43,-18,l),
(60,-20,o),
(69,-20,qs),
(83,-19,ls),
(159,-14,o),
(259,-14,qs),
(401,-14,o),
(500,-22,qs),
(516,-24,o),
(527,-24,qs),
(537,-24,o),
(553,-19,q),
(554,19,l),
(549,22,o),
(542,28,q),
(450,46,o),
(355,55,q),
(320,63,l),
(316,102,o),
(315,144,qs),
(308,475,ls),
(298,818,o),
(298,1013,q),
(301,1047,l),
(327,1028,o),
(357,998,o),
(414,931,qs),
(505,825,o),
(552,775,qs),
(726,589,o),
(835,465,qs),
(842,458,o),
(872,428,o),
(922,373,qs),
(1008,274,ls),
(1025,254,o),
(1073,205,qs),
(1279,-7,o),
(1314,-47,q),
(1361,-43,l),
(1365,67,o),
(1365,100,qs),
(1365,252,o),
(1359,458,qs),
(1353,659,l),
(1354,701,l),
(1346,846,l),
(1335,1162,ls),
(1335,1189,o),
(1359,1215,qs),
(1366,1223,o),
(1402,1234,qs),
(1426,1241,o),
(1482,1244,o),
(1498,1251,q),
(1500,1282,l),
(1483,1282,ls),
(1462,1282,o),
(1407,1278,qs),
(1310,1272,o),
(1264,1272,qs),
(1231,1272,o),
(1148,1286,o),
(1120,1286,qs),
(1094,1286,o),
(1067,1278,q),
(1060,1264,o),
(1058,1248,q),
(1066,1234,o),
(1082,1228,o),
(1127,1226,q),
(1165,1221,o),
(1183,1220,q),
(1259,1206,o),
(1268,1193,qs),
(1281,1175,o),
(1281,1065,qs),
(1281,1004,o),
(1295,843,o),
(1296,814,qs),
(1303,602,o),
(1303,561,qs),
(1303,518,l),
(1305,424,l),
(1301,364,ls),
(1301,356,o),
(1307,217,q),
(1306,201,l),
(1251,259,o),
(1216,298,qs),
(977,563,ls),
(825,731,o),
(720,837,o),
(656,912,qs),
(626,948,l),
(415,1181,ls),
(405,1192,o),
(397,1201,qs),
(361,1246,o),
(319,1281,q),
(301,1282,o),
(292,1282,qs),
(281,1282,o),
(253,1279,qs),
(181,1271,o),
(26,1271,q),
(27,1223,l),
(45,1218,o)
);
}
);
};
layerId = m01;
shapes = (
{
closed = 1;
nodes = (
(184,-10,o),
(238,0,o),
(300,0,cs),
(389,0,o),
(386,-10,o),
(484,-10,cs),
(505,-10,o),
(541,-9,o),
(541,12,cs),
(541,36,o),
(528,37,o),
(476,47,cs),
(378,66,o),
(351,133,o),
(351,204,cs),
(351,469,o),
(358,779,o),
(361,939,cs),
(361,955,o),
(365,980,o),
(378,980,cs),
(389,980,o),
(402,971,o),
(419,949,cs),
(432,933,o),
(484,871,o),
(576,764,cs),
(658,668,o),
(750,558,o),
(857,431,cs),
(1033,222,o),
(1126,109,o),
(1141,90,cs),
(1170,49,o),
(1263,-33,o),
(1309,-33,cs),
(1330,-33,o),
(1350,-27,o),
(1350,16,cs),
(1350,46,o),
(1342,133,o),
(1341,206,cs),
(1340,228,o),
(1344,1028,o),
(1344,1113,cs),
(1349,1178,o),
(1370,1200,o),
(1468,1219,cs),
(1511,1227,o),
(1533,1240,o),
(1533,1258,cs),
(1533,1278,o),
(1496,1280,o),
(1476,1280,cs),
(1401,1280,o),
(1369,1277,o),
(1325,1275,cs),
(1291,1273,o),
(1173,1279,o),
(1139,1279,cs),
(1104,1279,o),
(1058,1278,o),
(1058,1252,cs),
(1058,1243,o),
(1067,1236,o),
(1086,1229,cs),
(1105,1222,o),
(1124,1217,o),
(1146,1213,cs),
(1191,1205,o),
(1257,1159,o),
(1260,1105,c),
(1260,616,o),
(1256,391,o),
(1256,308,cs),
(1255,281,o),
(1248,267,o),
(1237,267,cs),
(1221,267,o),
(1197,296,o),
(1188,306,cs),
(1178,319,o),
(1123,384,o),
(1025,503,cs),
(939,607,o),
(838,731,o),
(724,869,cs),
(537,1095,o),
(427,1232,o),
(417,1246,cs),
(405,1265,o),
(394,1280,o),
(370,1280,cs),
(299,1280,o),
(261,1281,o),
(224,1284,cs),
(191,1286,o),
(132,1288,o),
(69,1290,cs),
(56,1290,o),
(24,1286,o),
(24,1262,cs),
(24,1239,o),
(66,1221,o),
(84,1215,cs),
(200,1179,o),
(278,1131,o),
(278,994,cs),
(278,779,o),
(270,571,o),
(259,407,cs),
(254,326,o),
(248,259,o),
(243,210,cs),
(235,129,o),
(204,70,o),
(129,49,cs),
(107,44,o),
(65,34,o),
(65,12,cs),
(65,-9,o),
(103,-10,o),
(122,-10,cs)
);
}
);
width = 1579;
},
{
anchors = (
{
name = bottom;
pos = (864,0);
},
{
name = top;
pos = (864,1274);
}
);
layerId = "088BD936-56BA-4CBD-9590-2DD048370D9B";
shapes = (
{
closed = 1;
nodes = (
(146,-7,o),
(208,1,o),
(292,1,cs),
(365,1,o),
(430,-6,o),
(503,-6,cs),
(529,-6,o),
(554,3,o),
(554,20,cs),
(554,44,o),
(527,54,o),
(497,60,cs),
(395,83,o),
(347,133,o),
(347,215,cs),
(347,488,o),
(342,741,o),
(343,910,cs),
(343,924,o),
(346,949,o),
(358,949,cs),
(365,949,o),
(378,937,o),
(386,928,cs),
(478,830,o),
(668,615,o),
(822,443,cs),
(953,297,o),
(1061,178,o),
(1135,98,c),
(1174,48,o),
(1211,14,o),
(1248,-6,cs),
(1286,-26,o),
(1312,-36,o),
(1328,-36,cs),
(1359,-36,o),
(1379,-17,o),
(1379,44,cs),
(1379,88,o),
(1361,188,o),
(1361,288,cs),
(1361,441,o),
(1366,584,o),
(1371,798,cs),
(1374,916,o),
(1377,1021,o),
(1377,1098,cs),
(1379,1172,o),
(1412,1196,o),
(1505,1215,cs),
(1541,1222,o),
(1559,1236,o),
(1559,1255,cs),
(1559,1273,o),
(1539,1283,o),
(1509,1283,cs),
(1432,1283,o),
(1373,1277,o),
(1325,1277,cs),
(1265,1277,o),
(1150,1279,o),
(1121,1279,cs),
(1097,1279,o),
(1066,1270,o),
(1066,1252,cs),
(1066,1230,o),
(1096,1218,o),
(1126,1212,cs),
(1206,1193,o),
(1262,1160,o),
(1265,1092,cs),
(1272,852,o),
(1268,529,o),
(1268,408,cs),
(1267,385,o),
(1261,375,o),
(1250,375,cs),
(1240,375,o),
(1224,394,o),
(1216,404,cs),
(1167,459,o),
(1113,520,o),
(1056,586,cs),
(975,679,o),
(885,784,o),
(784,900,cs),
(653,1050,o),
(537,1177,o),
(475,1255,cs),
(464,1269,o),
(455,1280,o),
(433,1280,cs),
(386,1280,o),
(329,1282,o),
(272,1284,cs),
(194,1286,o),
(118,1289,o),
(70,1290,cs),
(47,1290,o),
(21,1283,o),
(21,1259,cs),
(21,1236,o),
(58,1221,o),
(77,1215,cs),
(180,1179,o),
(258,1131,o),
(258,995,cs),
(258,781,o),
(247,574,o),
(236,414,cs),
(230,332,o),
(224,268,o),
(219,220,cs),
(213,142,o),
(181,83,o),
(116,61,cs),
(84,50,o),
(62,40,o),
(62,20,cs),
(62,2,o),
(89,-7,o),
(112,-7,cs)
);
}
);
width = 1728;
}
);
note = N;
unicode = 78;
}
{
color = 4;
glyphname = O;
kernLeft = C;
kernRight = D;
layers = (
{
anchors = (
{
name = bottom;
pos = (800,0);
},
{
name = center;
pos = (800,637);
},
{
name = ogonek;
pos = (1440,10);
},
{
name = top;
pos = (800,1274);
},
{
name = topleft;
pos = (20,1274);
},
{
name = topright;
pos = (1580,1274);
}
);
background = {
shapes = (
{
closed = 1;
nodes = (
(170,305,o),
(317,131,o),
(456,42,o),
(664,-20,o),
(797,-20,qs),
(928,-20,o),
(1154,51,o),
(1230,109,qs),
(1344,195,o),
(1391,261,qs),
(1451,346,o),
(1502,520,o),
(1502,652,qs),
(1502,768,o),
(1464,877,qs),
(1435,960,o),
(1378,1032,qs),
(1296,1136,o),
(1132,1236,o),
(931,1292,o),
(826,1292,qs),
(670,1292,o),
(568,1259,qs),
(423,1211,o),
(259,1086,o),
(143,900,o),
(94,741,o),
(94,639,qs),
(94,515,o)
);
},
{
closed = 1;
nodes = (
(540,80,o),
(413,199,o),
(326,353,o),
(276,563,o),
(276,646,qs),
(276,725,o),
(326,931,o),
(422,1102,o),
(534,1195,o),
(708,1255,o),
(799,1255,qs),
(911,1255,o),
(1109,1168,o),
(1249,1009,o),
(1280,908,qs),
(1320,775,o),
(1320,639,qs),
(1320,530,o),
(1272,312,o),
(1193,173,o),
(1053,64,o),
(872,17,o),
(788,17,qs),
(698,17,o)
);
}
);
};
layerId = m01;
shapes = (
{
closed = 1;
nodes = (
(1180,-27,o),
(1407,308,o),
(1407,657,cs),
(1407,1043,o),
(1102,1301,o),
(756,1301,cs),
(323,1301,o),
(88,976,o),
(88,617,cs),
(88,227,o),
(397,-27,o),
(739,-27,cs)
);
},
{
closed = 1;
nodes = (
(604,51,o),
(482,124,o),
(399,247,cs),
(316,370,o),
(276,532,o),
(276,715,cs),
(276,1028,o),
(437,1219,o),
(725,1219,cs),
(890,1219,o),
(1013,1147,o),
(1095,1026,cs),
(1177,905,o),
(1219,741,o),
(1219,561,cs),
(1219,244,o),
(1063,51,o),
(768,51,cs)
);
}
);
width = 1600;
},
{
anchors = (
{
name = bottom;
pos = (811,0);
},
{
name = center;
pos = (811,637);
},
{
name = ogonek;
pos = (1459,10);
},
{
name = top;
pos = (811,1274);
},
{
name = topleft;
pos = (20,1274);
},
{
name = topright;
pos = (1601,1274);
}
);
layerId = "088BD936-56BA-4CBD-9590-2DD048370D9B";
shapes = (
{
closed = 1;
nodes = (
(1188,-27,o),
(1427,301,o),
(1427,657,cs),
(1427,1050,o),
(1107,1301,o),
(754,1301,cs),
(301,1301,o),
(63,972,o),
(63,617,cs),
(63,230,o),
(377,-27,o),
(736,-27,cs)
);
},
{
closed = 1;
nodes = (
(628,60,o),
(525,140,o),
(458,265,cs),
(391,390,o),
(358,552,o),
(358,718,cs),
(358,1017,o),
(483,1211,o),
(717,1211,cs),
(844,1211,o),
(943,1146,o),
(1012,1040,cs),
(1092,920,o),
(1132,746,o),
(1132,557,cs),
(1132,259,o),
(1009,60,o),
(769,60,cs)
);
}
);
width = 1621;
}
);
note = O;
unicode = 79;
}
{
color = 4;
glyphname = P;
kernLeft = B;
kernRight = P;
layers = (
{
background = {
shapes = (
{
closed = 1;
nodes = (
(38,1258,qs),
(38,1251,o),
(43,1240,q),
(191,1219,o),
(228,1186,qs),
(250,1167,o),
(250,1095,qs),
(250,1078,ls),
(250,892,o),
(254,712,qs),
(264,327,o),
(264,209,qs),
(264,172,o),
(263,151,qs),
(262,121,o),
(262,112,qs),
(262,71,o),
(252,57,qs),
(245,48,o),
(213,39,q),
(83,14,l),
(84,-12,l),
(132,-10,o),
(142,-10,qs),
(247,-13,l),
(423,-6,ls),
(472,-6,o),
(558,-15,qs),
(602,-20,o),
(614,-20,qs),
(633,-20,o),
(646,-11,o),
(650,4,q),
(644,14,o),
(636,17,qs),
(631,19,o),
(577,32,qs),
(461,58,o),
(437,65,q),
(429,90,o),
(429,138,qs),
(429,158,o),
(434,212,o),
(434,222,qs),
(421,679,l),
(421,735,l),
(415,785,o),
(415,989,qs),
(415,1045,o),
(417,1072,qs),
(418,1092,l),
(414,1205,l),
(415,1219,l),
(438,1237,o),
(562,1237,qs),
(602,1237,o),
(747,1203,o),
(782,1178,qs),
(844,1134,o),
(920,987,o),
(920,909,qs),
(920,829,o),
(848,685,o),
(707,607,o),
(628,607,qs),
(576,607,o),
(542,619,qs),
(527,625,o),
(513,625,q),
(506,622,o),
(502,615,q),
(506,601,o),
(525,588,qs),
(570,558,o),
(640,537,o),
(692,537,qs),
(878,537,o),
(1098,765,o),
(1098,922,qs),
(1098,1016,o),
(997,1206,o),
(811,1295,o),
(654,1295,qs),
(565,1295,o),
(498,1289,qs),
(328,1279,ls),
(257,1275,o),
(235,1275,qs),
(220,1275,o),
(179,1276,qs),
(101,1280,o),
(67,1280,qs),
(62,1280,o),
(44,1277,q),
(38,1266,o)
);
}
);
};
layerId = m01;
shapes = (
{
closed = 1;
nodes = (
(208,-10,o),
(252,4,o),
(359,4,cs),
(445,4,o),
(442,-10,o),
(551,-10,cs),
(571,-10,o),
(608,-8,o),
(608,12,cs),
(608,35,o),
(565,43,o),
(543,47,cs),
(445,66,o),
(412,123,o),
(412,218,cs),
(412,1152,ls),
(412,1212,o),
(464,1235,o),
(537,1235,cs),
(728,1235,o),
(864,1136,o),
(864,927,cs),
(864,698,o),
(784,559,o),
(627,559,cs),
(587,559,o),
(567,566,o),
(537,566,cs),
(524,566,o),
(506,560,o),
(506,535,cs),
(506,511,o),
(560,498,o),
(594,498,cs),
(885,498,o),
(1033,687,o),
(1033,941,cs),
(1033,1160,o),
(834,1290,o),
(537,1290,cs),
(483,1290,o),
(400,1278,o),
(319,1278,cs),
(279,1278,o),
(162,1280,o),
(127,1280,cs),
(108,1280,o),
(71,1278,o),
(71,1258,cs),
(71,1233,o),
(112,1223,o),
(135,1219,cs),
(236,1200,o),
(255,1140,o),
(255,1023,cs),
(255,196,ls),
(255,99,o),
(211,66,o),
(112,47,cs),
(69,39,o),
(47,27,o),
(47,12,cs),
(47,-9,o),
(85,-10,o),
(104,-10,cs)
);
}
);
width = 1152;
},
{
layerId = "088BD936-56BA-4CBD-9590-2DD048370D9B";
shapes = (
{
closed = 1;
nodes = (
(163,-7,o),
(260,4,o),
(359,4,cs),
(442,4,o),
(545,-6,o),
(639,-6,cs),
(665,-6,o),
(679,3,o),
(679,20,cs),
(679,44,o),
(663,54,o),
(632,60,cs),
(526,81,o),
(487,115,o),
(487,201,cs),
(488,1117,ls),
(488,1184,o),
(530,1213,o),
(604,1213,cs),
(754,1213,o),
(849,1114,o),
(849,879,cs),
(849,672,o),
(787,537,o),
(667,537,cs),
(620,537,o),
(603,545,o),
(585,545,cs),
(572,545,o),
(550,532,o),
(550,515,cs),
(550,477,o),
(609,467,o),
(651,467,cs),
(956,467,o),
(1117,665,o),
(1117,920,cs),
(1117,1152,o),
(917,1292,o),
(604,1292,cs),
(487,1292,o),
(426,1275,o),
(345,1275,cs),
(281,1275,o),
(201,1283,o),
(94,1283,cs),
(68,1283,o),
(49,1272,o),
(49,1254,cs),
(49,1238,o),
(63,1222,o),
(98,1214,cs),
(192,1194,o),
(217,1156,o),
(217,1060,cs),
(217,192,ls),
(217,105,o),
(183,80,o),
(83,60,cs),
(52,53,o),
(35,39,o),
(35,20,cs),
(35,2,o),
(56,-7,o),
(79,-7,cs)
);
}
);
width = 1259;
}
);
note = P;
unicode = 80;
}
{
color = 4;
glyphname = Q;
kernLeft = C;
kernRight = D;
layers = (
{
anchors = (
{
name = bottom;
pos = (790,0);
},
{
name = top;
pos = (790,1274);
}
);
background = {
shapes = (
{
closed = 1;
nodes = (
(97,784,o),
(97,609,qs),
(97,460,o),
(246,176,o),
(527,-16,o),
(702,-41,q),
(755,-103,o),
(835,-168,qs),
(954,-263,o),
(1157,-377,o),
(1400,-446,o),
(1492,-446,qs),
(1499,-446,o),
(1531,-445,q),
(1531,-427,l),
(1532,-415,ls),
(1532,-410,o),
(1531,-401,q),
(1487,-387,o),
(1435,-365,qs),
(1409,-354,l),
(1400,-353,l),
(1377,-344,ls),
(1329,-324,o),
(1276,-298,qs),
(1252,-286,o),
(1243,-283,q),
(1146,-240,o),
(947,-84,o),
(906,-35,q),
(923,-26,o),
(959,-21,qs),
(1011,-15,o),
(1194,71,o),
(1367,246,o),
(1477,519,o),
(1477,648,qs),
(1477,845,o),
(1371,1014,qs),
(1285,1150,o),
(998,1316,o),
(818,1316,qs),
(632,1316,o),
(476,1239,qs),
(281,1138,o)
);
},
{
closed = 1;
nodes = (
(510,92,qs),
(408,186,o),
(297,491,o),
(297,651,qs),
(297,847,o),
(347,957,qs),
(426,1130,o),
(662,1270,o),
(797,1270,qs),
(912,1270,o),
(1063,1187,o),
(1203,1011,o),
(1233,924,qs),
(1278,798,o),
(1278,645,qs),
(1278,451,o),
(1180,193,o),
(1112,122,qs),
(1060,68,o),
(885,0,o),
(775,0,qs),
(727,0,o),
(672,10,q),
(569,37,o)
);
}
);
};
layerId = m01;
shapes = (
{
closed = 1;
nodes = (
(1531,-486,o),
(1614,-467,o),
(1687,-421,cs),
(1716,-404,o),
(1723,-394,o),
(1723,-370,cs),
(1723,-360,o),
(1716,-355,o),
(1701,-355,cs),
(1687,-355,o),
(1591,-376,o),
(1554,-376,cs),
(1402,-376,o),
(1302,-346,o),
(1172,-253,cs),
(1074,-182,o),
(999,-116,o),
(923,-35,cs),
(918,-30,o),
(915,-24,o),
(915,-18,cs),
(915,-11,o),
(920,-7,o),
(931,-4,c),
(1239,77,o),
(1407,354,o),
(1407,657,cs),
(1407,1043,o),
(1102,1301,o),
(756,1301,cs),
(323,1301,o),
(88,976,o),
(88,617,cs),
(88,458,o),
(134,333,o),
(209,236,cs),
(319,94,o),
(463,17,o),
(589,-24,c),
(628,-41,o),
(670,-68,o),
(715,-106,cs),
(843,-210,o),
(924,-266,o),
(1025,-339,cs),
(1150,-428,o),
(1270,-486,o),
(1458,-486,cs)
);
},
{
closed = 1;
nodes = (
(604,51,o),
(482,124,o),
(399,247,cs),
(316,370,o),
(276,532,o),
(276,715,cs),
(276,1022,o),
(430,1219,o),
(725,1219,cs),
(890,1219,o),
(1013,1147,o),
(1095,1026,cs),
(1177,905,o),
(1219,741,o),
(1219,561,cs),
(1219,252,o),
(1069,51,o),
(768,51,cs)
);
}
);
width = 1579;
},
{
anchors = (
{
name = bottom;
pos = (811,0);
},
{
name = top;
pos = (811,1274);
}
);
layerId = "088BD936-56BA-4CBD-9590-2DD048370D9B";
shapes = (
{
closed = 1;
nodes = (
(1541,-486,o),
(1632,-468,o),
(1692,-429,cs),
(1721,-411,o),
(1730,-398,o),
(1730,-374,cs),
(1730,-351,o),
(1715,-340,o),
(1684,-340,cs),
(1662,-340,o),
(1603,-352,o),
(1563,-352,cs),
(1444,-352,o),
(1340,-313,o),
(1211,-213,cs),
(1113,-135,o),
(1055,-83,o),
(991,-19,cs),
(985,-13,o),
(982,-6,o),
(982,0,cs),
(982,9,o),
(989,15,o),
(1002,18,c),
(1281,120,o),
(1427,376,o),
(1427,657,cs),
(1427,1050,o),
(1107,1301,o),
(754,1301,cs),
(301,1301,o),
(63,972,o),
(63,617,cs),
(63,440,o),
(120,308,o),
(204,212,cs),
(287,117,o),
(390,57,o),
(481,21,c),
(569,-14,o),
(642,-72,o),
(704,-126,cs),
(805,-214,o),
(879,-265,o),
(976,-335,cs),
(1110,-430,o),
(1272,-486,o),
(1436,-486,cs)
);
},
{
closed = 1;
nodes = (
(628,64,o),
(525,141,o),
(458,264,cs),
(391,387,o),
(358,549,o),
(358,718,cs),
(358,1019,o),
(480,1206,o),
(717,1206,cs),
(833,1206,o),
(925,1155,o),
(992,1068,cs),
(1085,949,o),
(1132,764,o),
(1132,557,cs),
(1132,253,o),
(1012,64,o),
(769,64,cs)
);
}
);
width = 1621;
}
);
note = Q;
unicode = 81;
}
{
color = 4;
glyphname = R;
kernLeft = B;
kernRight = R;
layers = (
{
anchors = (
{
name = bottom;
pos = (640,0);
},
{
name = top;
pos = (640,1274);
}
);
background = {
shapes = (
{
closed = 1;
nodes = (
(42,9,q),
(44,-1,l),
(64,-5,l),
(146,-2,o),
(155,-2,qs),
(288,-3,l),
(424,-1,ls),
(436,-1,o),
(455,-2,qs),
(492,-4,o),
(582,-4,qs),
(593,-4,o),
(620,1,q),
(620,18,o),
(612,28,q),
(571,38,ls),
(478,61,o),
(439,84,o),
(431,103,q),
(422,137,o),
(423,156,qs),
(423,498,ls),
(423,597,o),
(426,629,q),
(454,628,l),
(539,629,ls),
(571,629,o),
(610,608,o),
(640,566,q),
(788,296,l),
(884,133,o),
(955,-3,q),
(978,-5,o),
(991,-5,qs),
(1175,-5,o),
(1312,-3,q),
(1313,6,o),
(1313,12,qs),
(1313,18,o),
(1312,28,q),
(1214,46,o),
(1131,86,o),
(1073,147,o),
(997,267,q),
(870,485,ls),
(809,586,o),
(775,658,q),
(794,671,o),
(827,688,qs),
(1020,785,o),
(1020,969,qs),
(1020,1066,o),
(914,1223,o),
(735,1289,o),
(512,1289,qs),
(249,1286,l),
(167,1286,ls),
(147,1286,o),
(102,1281,o),
(97,1281,qs),
(61,1280,o),
(51,1271,q),
(48,1260,o),
(48,1253,qs),
(48,1242,o),
(64,1232,o),
(218,1211,o),
(255,1161,o),
(254,1047,qs),
(253,867,l),
(254,616,l),
(252,481,l),
(255,362,ls),
(255,320,o),
(253,276,qs),
(245,120,o),
(245,95,qs),
(245,84,l),
(234,59,o),
(221,54,qs),
(202,47,o),
(56,30,q),
(42,18,o)
);
},
{
closed = 1;
nodes = (
(424,883,qs),
(425,960,l),
(420,1147,ls),
(420,1175,o),
(424,1227,q),
(467,1230,o),
(494,1230,qs),
(604,1230,o),
(761,1152,o),
(794,1094,qs),
(837,1018,o),
(837,950,qs),
(837,888,o),
(782,772,o),
(700,713,o),
(634,700,qs),
(540,683,o),
(468,683,qs),
(455,683,o),
(428,684,q),
(424,805,o)
);
}
);
};
layerId = m01;
shapes = (
{
closed = 1;
nodes = (
(1313,-41,o),
(1407,-27,o),
(1407,27,cs),
(1407,42,o),
(1397,49,o),
(1378,49,cs),
(1286,49,o),
(1220,54,o),
(1152,114,cs),
(1029,226,o),
(946,327,o),
(871,437,cs),
(834,491,o),
(795,550,o),
(755,611,cs),
(747,624,o),
(744,634,o),
(755,637,c),
(827,673,o),
(904,731,o),
(951,815,cs),
(975,858,o),
(986,907,o),
(986,966,cs),
(986,1181,o),
(832,1288,o),
(545,1288,cs),
(469,1288,o),
(344,1278,o),
(319,1278,cs),
(279,1278,o),
(162,1280,o),
(127,1280,cs),
(108,1280,o),
(71,1278,o),
(71,1258,cs),
(71,1233,o),
(110,1222,o),
(135,1219,cs),
(211,1211,o),
(239,1194,o),
(248,1144,cs),
(253,1117,o),
(255,1080,o),
(255,1031,cs),
(255,196,ls),
(255,99,o),
(211,66,o),
(112,47,cs),
(69,39,o),
(47,27,o),
(47,12,cs),
(47,-9,o),
(85,-10,o),
(104,-10,cs),
(208,-10,o),
(252,4,o),
(344,4,cs),
(445,4,o),
(442,-10,o),
(551,-10,cs),
(571,-10,o),
(608,-8,o),
(608,12,cs),
(608,35,o),
(565,43,o),
(543,47,cs),
(445,66,o),
(412,132,o),
(412,216,cs),
(412,561,ls),
(412,584,o),
(419,603,o),
(441,600,cs),
(478,597,o),
(539,587,o),
(596,559,cs),
(633,540,o),
(661,514,o),
(680,482,cs),
(772,335,o),
(830,250,o),
(888,177,cs),
(916,142,o),
(947,103,o),
(978,65,cs),
(1051,-21,o),
(1137,-41,o),
(1248,-41,cs)
);
},
{
closed = 1;
nodes = (
(450,645,o),
(412,648,o),
(412,713,cs),
(412,870,o),
(414,982,o),
(415,1047,cs),
(420,1181,o),
(438,1229,o),
(521,1229,cs),
(686,1229,o),
(761,1171,o),
(789,1082,cs),
(802,1038,o),
(809,988,o),
(809,935,cs),
(809,835,o),
(760,741,o),
(672,686,cs),
(629,659,o),
(576,645,o),
(515,645,cs)
);
}
);
width = 1280;
},
{
anchors = (
{
name = bottom;
pos = (715,0);
},
{
name = top;
pos = (715,1274);
}
);
layerId = "088BD936-56BA-4CBD-9590-2DD048370D9B";
shapes = (
{
closed = 1;
nodes = (
(1381,-41,o),
(1479,-12,o),
(1479,67,cs),
(1479,89,o),
(1469,99,o),
(1449,99,cs),
(1358,99,o),
(1269,102,o),
(1186,179,cs),
(1094,265,o),
(1015,360,o),
(940,468,cs),
(903,522,o),
(865,578,o),
(825,638,cs),
(818,648,o),
(815,659,o),
(826,662,cs),
(904,690,o),
(986,741,o),
(1036,822,cs),
(1061,863,o),
(1074,912,o),
(1074,971,cs),
(1074,1184,o),
(906,1288,o),
(605,1288,cs),
(516,1288,o),
(373,1272,o),
(343,1272,cs),
(250,1272,o),
(200,1283,o),
(94,1283,cs),
(68,1283,o),
(49,1272,o),
(49,1254,cs),
(49,1238,o),
(63,1221,o),
(98,1214,cs),
(167,1202,o),
(196,1186,o),
(208,1146,cs),
(214,1126,o),
(217,1099,o),
(217,1062,cs),
(217,192,ls),
(217,105,o),
(183,80,o),
(83,60,cs),
(52,53,o),
(35,39,o),
(35,20,cs),
(35,2,o),
(56,-7,o),
(79,-7,cs),
(163,-7,o),
(260,4,o),
(359,4,cs),
(442,4,o),
(545,-6,o),
(639,-6,cs),
(665,-6,o),
(679,3,o),
(679,20,cs),
(679,44,o),
(663,54,o),
(632,60,cs),
(526,81,o),
(487,118,o),
(487,201,cs),
(487,568,ls),
(487,592,o),
(493,608,o),
(510,607,cs),
(532,606,o),
(565,601,o),
(596,584,cs),
(620,571,o),
(641,548,o),
(656,519,cs),
(753,337,o),
(814,252,o),
(911,123,cs),
(962,57,o),
(1019,8,o),
(1106,-20,cs),
(1150,-34,o),
(1201,-41,o),
(1261,-41,cs)
);
},
{
closed = 1;
nodes = (
(518,666,o),
(487,681,o),
(487,739,cs),
(487,870,o),
(488,967,o),
(488,1026,cs),
(489,1100,o),
(496,1147,o),
(509,1171,cs),
(522,1196,o),
(544,1207,o),
(576,1207,cs),
(741,1207,o),
(806,1109,o),
(806,930,cs),
(806,831,o),
(767,747,o),
(698,701,cs),
(664,678,o),
(620,666,o),
(568,666,cs)
);
}
);
width = 1429;
}
);
note = R;
unicode = 82;
}
{
color = 4;
glyphname = S;
kernLeft = S;
kernRight = S;
layers = (
{
anchors = (
{
name = bottom;
pos = (417,0);
},
{
name = top;
pos = (491,1274);
}
);
background = {
shapes = (
{
closed = 1;
nodes = (
(684,1293,qs),
(610,1316,o),
(508,1316,qs),
(323,1316,o),
(103,1123,o),
(103,984,qs),
(103,907,o),
(134,849,qs),
(176,774,o),
(260,707,qs),
(312,666,o),
(656,487,o),
(713,420,qs),
(770,353,o),
(770,272,qs),
(770,213,o),
(695,88,o),
(562,22,o),
(483,22,qs),
(354,22,o),
(252,119,qs),
(149,216,o),
(138,339,qs),
(136,357,o),
(125,370,o),
(116,370,qs),
(105,370,o),
(101,363,qs),
(96,355,o),
(94,308,qs),
(93,232,o),
(79,114,qs),
(77,97,o),
(77,86,qs),
(77,68,o),
(109,36,o),
(182,10,qs),
(306,-33,o),
(441,-33,qs),
(596,-33,o),
(784,62,o),
(895,250,o),
(895,357,qs),
(895,442,o),
(825,580,o),
(687,685,o),
(527,768,qs),
(317,876,o),
(266,930,qs),
(215,984,o),
(215,1049,qs),
(215,1134,o),
(361,1262,o),
(475,1262,qs),
(585,1262,o),
(738,1134,o),
(770,994,q),
(779,992,l),
(785,992,o),
(794,996,q),
(797,1012,o),
(799,1069,qs),
(803,1158,ls),
(803,1168,o),
(795,1234,q),
(738,1275,o)
);
}
);
};
layerId = m01;
shapes = (
{
closed = 1;
nodes = (
(665,-31,o),
(827,124,o),
(827,353,cs),
(827,484,o),
(766,569,o),
(677,635,cs),
(634,667,o),
(588,698,o),
(543,725,cs),
(434,792,o),
(268,849,o),
(268,1011,cs),
(268,1122,o),
(315,1185,o),
(384,1214,cs),
(417,1228,o),
(455,1235,o),
(494,1235,cs),
(606,1235,o),
(674,1160,o),
(729,1021,cs),
(734,1006,o),
(760,994,o),
(784,994,cs),
(803,994,o),
(813,1001,o),
(813,1015,cs),
(813,1078,o),
(790,1154,o),
(774,1209,cs),
(769,1230,o),
(754,1250,o),
(733,1258,cs),
(691,1277,o),
(622,1301,o),
(527,1301,cs),
(344,1301,o),
(223,1232,o),
(163,1125,cs),
(133,1072,o),
(118,1012,o),
(118,945,cs),
(118,820,o),
(191,736,o),
(291,669,cs),
(340,636,o),
(390,603,o),
(441,570,cs),
(580,486,o),
(662,434,o),
(662,272,cs),
(662,132,o),
(570,33,o),
(427,33,cs),
(315,33,o),
(201,113,o),
(149,314,cs),
(146,329,o),
(130,335,o),
(118,335,cs),
(97,335,o),
(78,325,o),
(78,308,c),
(81,280,o),
(83,246,o),
(85,204,cs),
(87,162,o),
(91,129,o),
(98,102,cs),
(103,87,o),
(114,73,o),
(123,63,c),
(196,3,o),
(289,-31,o),
(400,-31,cs)
);
}
);
width = 981;
},
{
anchors = (
{
name = bottom;
pos = (422,0);
},
{
name = top;
pos = (523,1274);
}
);
layerId = "088BD936-56BA-4CBD-9590-2DD048370D9B";
shapes = (
{
closed = 1;
nodes = (
(707,-28,o),
(881,107,o),
(881,364,cs),
(881,485,o),
(839,571,o),
(754,648,cs),
(712,686,o),
(659,724,o),
(593,763,cs),
(489,827,o),
(405,878,o),
(360,935,cs),
(337,964,o),
(326,994,o),
(326,1026,cs),
(326,1157,o),
(402,1213,o),
(519,1213,cs),
(641,1213,o),
(724,1133,o),
(771,979,cs),
(776,963,o),
(800,950,o),
(822,950,cs),
(845,950,o),
(856,958,o),
(856,974,cs),
(856,1061,o),
(843,1141,o),
(829,1196,cs),
(819,1232,o),
(810,1243,o),
(779,1254,cs),
(728,1276,o),
(636,1301,o),
(539,1301,cs),
(364,1301,o),
(225,1235,o),
(148,1123,cs),
(110,1068,o),
(91,1003,o),
(91,928,cs),
(91,785,o),
(164,692,o),
(265,623,cs),
(317,588,o),
(368,556,o),
(422,525,cs),
(523,469,o),
(588,425,o),
(620,367,cs),
(636,338,o),
(645,301,o),
(645,256,cs),
(645,152,o),
(577,55,o),
(449,55,cs),
(306,55,o),
(189,176,o),
(132,372,c),
(124,389,o),
(115,395,o),
(92,395,cs),
(72,395,o),
(54,387,o),
(54,370,cs),
(53,276,o),
(60,170,o),
(83,102,cs),
(90,84,o),
(106,69,o),
(121,57,c),
(208,-2,o),
(311,-28,o),
(422,-28,cs)
);
}
);
width = 1045;
}
);
note = S;
unicode = 83;
}
{
color = 4;
glyphname = T;
kernLeft = T;
kernRight = T;
layers = (
{
anchors = (
{
name = bottom;
pos = (630,0);
},
{
name = center;
pos = (630,637);
},
{
name = top;
pos = (630,1274);
}
);
background = {
shapes = (
{
closed = 1;
nodes = (
(12,1026,qs),
(-4,966,o),
(-4,954,qs),
(-4,949,o),
(0,943,q),
(9,941,l),
(33,941,o),
(65,992,q),
(162,1128,o),
(211,1156,qs),
(242,1174,o),
(386,1174,qs),
(484,1174,o),
(547,1167,q),
(548,900,l),
(552,820,l),
(556,449,l),
(556,279,ls),
(556,150,o),
(547,106,qs),
(543,85,o),
(533,76,qs),
(515,60,o),
(401,29,o),
(359,23,qs),
(329,19,o),
(315,6,o),
(313,-17,q),
(327,-23,l),
(337,-25,o),
(382,-25,q),
(489,-19,l),
(635,-12,l),
(694,-16,o),
(811,-17,qs),
(953,-21,l),
(953,9,l),
(941,15,o),
(922,17,qs),
(891,22,o),
(799,45,qs),
(746,59,o),
(722,89,o),
(722,124,qs),
(723,198,l),
(722,331,l),
(726,434,o),
(726,471,qs),
(718,1092,ls),
(718,1125,o),
(720,1165,q),
(775,1169,o),
(889,1169,qs),
(1031,1169,o),
(1106,1147,o),
(1126,1122,qs),
(1156,1083,o),
(1176,993,qs),
(1185,954,o),
(1197,939,o),
(1205,939,qs),
(1213,939,o),
(1224,946,q),
(1228,955,o),
(1228,966,qs),
(1233,1135,o),
(1233,1166,qs),
(1232,1251,l),
(1233,1291,ls),
(1233,1307,o),
(1228,1327,q),
(1216,1331,o),
(1208,1331,qs),
(1189,1331,o),
(1176,1302,qs),
(1146,1238,o),
(1143,1234,qs),
(1134,1224,o),
(1119,1224,qs),
(1103,1224,o),
(1035,1230,qs),
(1020,1232,o),
(1010,1232,qs),
(855,1229,l),
(773,1229,l),
(494,1228,l),
(258,1231,l),
(215,1235,l),
(205,1234,l),
(184,1237,o),
(162,1254,o),
(145,1285,qs),
(122,1328,o),
(104,1328,qs),
(95,1328,o),
(81,1311,o),
(77,1281,q),
(36,1130,l),
(32,1103,o)
);
}
);
};
layerId = m01;
shapes = (
{
closed = 1;
nodes = (
(508,-10,o),
(576,0,o),
(670,0,cs),
(756,0,o),
(817,-10,o),
(900,-10,cs),
(921,-10,o),
(956,-9,o),
(956,12,cs),
(956,37,o),
(914,43,o),
(892,47,cs),
(794,66,o),
(737,105,o),
(737,200,cs),
(737,970,ls),
(737,1088,o),
(739,1167,o),
(771,1184,cs),
(786,1192,o),
(806,1195,o),
(835,1195,cs),
(1033,1195,ls),
(1200,1195,o),
(1180,1173,o),
(1229,1047,cs),
(1235,1031,o),
(1241,1025,o),
(1250,1025,cs),
(1271,1025,o),
(1285,1064,o),
(1282,1088,cs),
(1271,1164,o),
(1309,1252,o),
(1309,1292,cs),
(1309,1312,o),
(1303,1327,o),
(1295,1327,cs),
(1280,1327,o),
(1267,1322,o),
(1258,1313,cs),
(1207,1267,o),
(1107,1258,o),
(1033,1258,cs),
(343,1258,ls),
(288,1258,o),
(222,1272,o),
(206,1297,c),
(195,1319,o),
(168,1360,o),
(157,1360,cs),
(134,1360,o),
(126,1342,o),
(123,1315,cs),
(114,1234,o),
(91,1169,o),
(55,1093,cs),
(45,1074,o),
(46,1045,o),
(67,1045,cs),
(95,1045,o),
(128,1087,o),
(147,1119,cs),
(177,1172,o),
(245,1195,o),
(308,1195,cs),
(400,1195,ls),
(468,1195,o),
(503,1196,o),
(539,1188,c),
(563,1185,o),
(571,1155,o),
(576,1098,cs),
(579,1065,o),
(580,1020,o),
(580,960,cs),
(580,200,ls),
(580,105,o),
(528,66,o),
(427,47,cs),
(405,43,o),
(363,35,o),
(363,12,cs),
(363,-8,o),
(400,-10,o),
(419,-10,cs)
);
}
);
width = 1259;
},
{
anchors = (
{
name = bottom;
pos = (704,0);
},
{
name = center;
pos = (704,637);
},
{
name = top;
pos = (704,1274);
}
);
layerId = "088BD936-56BA-4CBD-9590-2DD048370D9B";
shapes = (
{
closed = 1;
nodes = (
(491,-7,o),
(591,3,o),
(692,3,cs),
(779,3,o),
(882,-6,o),
(975,-6,cs),
(1001,-6,o),
(1019,3,o),
(1019,20,cs),
(1019,44,o),
(999,52,o),
(968,60,cs),
(868,85,o),
(825,114,o),
(825,195,cs),
(825,980,ls),
(825,1088,o),
(831,1157,o),
(863,1179,cs),
(876,1188,o),
(896,1193,o),
(919,1193,cs),
(1042,1193,ls),
(1159,1193,o),
(1206,1151,o),
(1232,1065,cs),
(1240,1038,o),
(1254,987,o),
(1283,987,cs),
(1308,987,o),
(1316,1017,o),
(1316,1057,cs),
(1316,1153,o),
(1357,1223,o),
(1357,1319,cs),
(1357,1339,o),
(1352,1355,o),
(1337,1355,cs),
(1321,1355,o),
(1306,1348,o),
(1294,1335,cs),
(1249,1282,o),
(1171,1270,o),
(1101,1270,cs),
(373,1268,ls),
(294,1268,o),
(245,1277,o),
(202,1343,cs),
(191,1360,o),
(182,1368,o),
(173,1368,cs),
(153,1368,o),
(133,1357,o),
(128,1319,cs),
(120,1228,o),
(100,1172,o),
(54,1079,cs),
(39,1051,o),
(31,999,o),
(67,999,cs),
(100,999,o),
(143,1053,o),
(168,1093,cs),
(209,1151,o),
(288,1193,o),
(366,1193,cs),
(420,1193,ls),
(453,1193,o),
(498,1193,o),
(522,1182,c),
(539,1177,o),
(547,1153,o),
(551,1111,cs),
(554,1084,o),
(555,1045,o),
(555,991,cs),
(555,194,ls),
(555,107,o),
(509,79,o),
(411,60,cs),
(381,54,o),
(360,40,o),
(360,20,cs),
(360,2,o),
(385,-7,o),
(407,-7,cs)
);
}
);
width = 1408;
}
);
note = T;
unicode = 84;
}
{
color = 4;
glyphname = U;
kernLeft = U;
kernRight = U;
layers = (
{
anchors = (
{
name = bottom;
pos = (726,0);
},
{
name = ogonek;
pos = (1306,10);
},
{
name = top;
pos = (726,1274);
},
{
name = topright;
pos = (1431,1274);
}
);
background = {
shapes = (
{
closed = 1;
nodes = (
(163,1281,l),
(96,1280,l),
(70,1280,ls),
(54,1280,o),
(43,1272,qs),
(37,1267,o),
(37,1258,qs),
(37,1251,o),
(40,1242,q),
(58,1228,o),
(124,1228,qs),
(183,1229,ls),
(204,1229,o),
(215,1213,qs),
(231,1190,o),
(231,1132,qs),
(231,980,l),
(228,754,l),
(231,474,l),
(231,405,ls),
(231,263,o),
(266,189,qs),
(292,133,o),
(428,21,o),
(543,-14,qs),
(606,-34,o),
(749,-34,qs),
(840,-34,o),
(1027,26,o),
(1139,119,o),
(1198,235,o),
(1214,334,qs),
(1225,405,o),
(1225,601,qs),
(1222,705,l),
(1223,787,l),
(1216,994,ls),
(1212,1098,o),
(1212,1129,qs),
(1212,1187,o),
(1260,1230,o),
(1383,1246,q),
(1384,1282,l),
(1353,1283,l),
(1195,1278,ls),
(1189,1278,o),
(1123,1283,qs),
(1079,1286,o),
(1039,1286,qs),
(1001,1286,o),
(962,1282,q),
(963,1267,o),
(968,1253,q),
(1077,1231,o),
(1116,1203,qs),
(1134,1190,o),
(1153,1138,o),
(1160,993,qs),
(1175,706,ls),
(1175,698,o),
(1171,605,o),
(1171,589,qs),
(1171,560,ls),
(1174,485,o),
(1174,480,qs),
(1174,304,o),
(1095,131,o),
(914,33,o),
(744,33,qs),
(668,33,o),
(507,89,o),
(427,175,o),
(393,308,o),
(392,580,qs),
(389,1075,l),
(399,1189,l),
(403,1207,o),
(421,1218,qs),
(448,1236,o),
(494,1236,qs),
(504,1236,o),
(537,1233,o),
(544,1233,qs),
(560,1233,o),
(586,1240,q),
(589,1252,o),
(589,1258,qs),
(589,1267,o),
(584,1284,q),
(321,1281,l)
);
}
);
};
layerId = m01;
shapes = (
{
closed = 1;
nodes = (
(922,-27,o),
(1080,65,o),
(1172,222,cs),
(1218,300,o),
(1242,389,o),
(1244,490,cs),
(1250,660,o),
(1252,872,o),
(1264,1072,cs),
(1269,1150,o),
(1295,1206,o),
(1362,1219,cs),
(1405,1228,o),
(1427,1241,o),
(1427,1258,cs),
(1427,1278,o),
(1410,1280,o),
(1370,1280,cs),
(1335,1280,o),
(1287,1274,o),
(1211,1274,cs),
(1155,1274,o),
(1100,1279,o),
(1044,1279,cs),
(1024,1279,o),
(1007,1274,o),
(1007,1254,cs),
(1007,1237,o),
(1045,1223,o),
(1072,1215,cs),
(1122,1200,o),
(1152,1116,o),
(1152,1001,cs),
(1157,817,o),
(1160,660,o),
(1160,580,cs),
(1160,275,o),
(1039,71,o),
(770,71,cs),
(492,71,o),
(359,255,o),
(359,525,cs),
(359,1076,ls),
(359,1155,o),
(408,1206,o),
(441,1217,cs),
(464,1224,o),
(480,1230,o),
(490,1235,cs),
(500,1240,o),
(506,1247,o),
(506,1256,cs),
(506,1276,o),
(469,1278,o),
(449,1278,cs),
(421,1278,o),
(325,1274,o),
(292,1274,cs),
(238,1274,o),
(148,1280,o),
(94,1280,cs),
(75,1280,o),
(47,1279,o),
(47,1258,cs),
(47,1241,o),
(69,1227,o),
(112,1215,cs),
(157,1204,o),
(202,1167,o),
(202,1072,cs),
(202,470,ls),
(202,144,o),
(407,-27,o),
(729,-27,cs)
);
}
);
width = 1451;
},
{
anchors = (
{
name = bottom;
pos = (779,0);
},
{
name = ogonek;
pos = (1401,10);
},
{
name = top;
pos = (779,1274);
},
{
name = topright;
pos = (1537,1274);
}
);
layerId = "088BD936-56BA-4CBD-9590-2DD048370D9B";
shapes = (
{
closed = 1;
nodes = (
(925,-27,o),
(1090,69,o),
(1183,230,cs),
(1230,312,o),
(1254,405,o),
(1254,509,cs),
(1256,683,o),
(1258,843,o),
(1268,1047,cs),
(1273,1138,o),
(1301,1193,o),
(1383,1214,cs),
(1420,1224,o),
(1439,1238,o),
(1439,1255,cs),
(1439,1277,o),
(1418,1283,o),
(1387,1283,cs),
(1328,1283,o),
(1274,1275,o),
(1215,1275,cs),
(1184,1275,o),
(1079,1280,o),
(1035,1280,cs),
(1000,1280,o),
(977,1272,o),
(977,1253,cs),
(977,1230,o),
(1009,1220,o),
(1052,1207,cs),
(1128,1184,o),
(1148,1105,o),
(1151,959,cs),
(1155,826,o),
(1152,646,o),
(1152,574,cs),
(1152,282,o),
(1035,128,o),
(792,128,cs),
(561,128,o),
(453,299,o),
(453,530,cs),
(453,1052,ls),
(453,1137,o),
(491,1185,o),
(529,1201,cs),
(551,1210,o),
(569,1217,o),
(588,1224,cs),
(604,1230,o),
(614,1240,o),
(614,1253,cs),
(614,1273,o),
(593,1281,o),
(561,1281,cs),
(527,1281,o),
(355,1274,o),
(320,1274,cs),
(241,1274,o),
(146,1283,o),
(80,1283,cs),
(49,1283,o),
(27,1273,o),
(27,1255,cs),
(27,1237,o),
(45,1223,o),
(84,1212,cs),
(146,1196,o),
(182,1135,o),
(182,1058,cs),
(182,491,ls),
(182,189,o),
(356,-27,o),
(730,-27,cs)
);
}
);
width = 1557;
}
);
note = U;
unicode = 85;
}
{
color = 4;
glyphname = V;
kernLeft = V;
kernRight = V;
layers = (
{
anchors = (
{
name = bottom;
pos = (694,0);
},
{
name = top;
pos = (694,1274);
}
);
background = {
shapes = (
{
closed = 1;
nodes = (
(-7,1253,qs),
(-3,1251,o),
(32,1243,qs),
(131,1220,o),
(164,1195,o),
(197,1133,q),
(503,439,ls),
(578,271,o),
(697,-37,q),
(710,-39,o),
(721,-39,qs),
(730,-39,o),
(743,-31,q),
(772,56,ls),
(824,217,o),
(947,510,qs),
(1210,1160,l),
(1232,1204,o),
(1272,1231,o),
(1356,1241,qs),
(1376,1243,o),
(1400,1251,q),
(1406,1264,o),
(1406,1272,qs),
(1405,1280,l),
(1385,1287,o),
(1331,1287,qs),
(1224,1287,l),
(900,1284,l),
(897,1276,l),
(897,1269,o),
(906,1259,q),
(980,1250,ls),
(1046,1242,o),
(1058,1238,qs),
(1088,1228,o),
(1115,1197,o),
(1115,1182,qs),
(1115,1112,o),
(1018,847,q),
(1009,813,o),
(1007,807,qs),
(938,619,ls),
(885,479,o),
(833,355,qs),
(766,191,l),
(759,208,o),
(751,229,qs),
(676,423,o),
(599,609,qs),
(546,726,l),
(394,1079,ls),
(361,1157,o),
(361,1196,qs),
(361,1214,o),
(374,1225,qs),
(394,1240,o),
(522,1251,o),
(550,1250,qs),
(558,1250,ls),
(582,1250,o),
(588,1260,q),
(590,1276,l),
(587,1282,o),
(581,1285,q),
(551,1286,o),
(487,1287,o),
(453,1287,qs),
(283,1287,o),
(218,1284,qs),
(200,1283,o),
(185,1283,qs),
(152,1283,ls),
(71,1285,o),
(-10,1285,q),
(-17,1268,l),
(-14,1258,o)
);
}
);
};
layerId = m01;
shapes = (
{
closed = 1;
nodes = (
(631,-24,o),
(640,-19,o),
(643,-10,c),
(663,30,o),
(685,103,o),
(704,155,c),
(827,453,o),
(949,750,o),
(1072,1048,cs),
(1101,1118,o),
(1169,1198,o),
(1264,1219,cs),
(1286,1224,o),
(1329,1234,o),
(1329,1258,cs),
(1329,1278,o),
(1302,1280,o),
(1282,1280,cs),
(1226,1280,o),
(1106,1274,o),
(1048,1274,cs),
(996,1274,o),
(925,1276,o),
(854,1276,cs),
(825,1276,o),
(798,1274,o),
(798,1254,cs),
(798,1227,o),
(824,1220,o),
(862,1215,cs),
(947,1204,o),
(1007,1145,o),
(954,1007,cs),
(686,302,ls),
(682,293,o),
(679,290,o),
(675,290,cs),
(671,290,o),
(667,295,o),
(664,300,c),
(382,1045,ls),
(375,1065,o),
(361,1101,o),
(361,1141,cs),
(361,1185,o),
(415,1209,o),
(488,1217,cs),
(513,1220,o),
(553,1231,o),
(553,1256,cs),
(553,1276,o),
(516,1278,o),
(496,1278,cs),
(458,1278,o),
(385,1274,o),
(296,1274,cs),
(188,1274,o),
(102,1280,o),
(57,1280,cs),
(38,1280,o),
(0,1279,o),
(0,1258,cs),
(0,1235,o),
(45,1222,o),
(65,1215,cs),
(134,1196,o),
(175,1146,o),
(202,1072,cs),
(561,110,ls),
(573,77,o),
(590,23,o),
(602,-10,cs),
(606,-19,o),
(613,-24,o),
(623,-24,cs)
);
}
);
width = 1387;
},
{
anchors = (
{
name = bottom;
pos = (683,0);
},
{
name = top;
pos = (683,1274);
}
);
layerId = "088BD936-56BA-4CBD-9590-2DD048370D9B";
shapes = (
{
closed = 1;
nodes = (
(691,-31,o),
(702,-24,o),
(710,-4,cs),
(736,51,o),
(781,156,o),
(832,278,c),
(936,528,o),
(1041,779,o),
(1145,1029,cs),
(1189,1135,o),
(1239,1195,o),
(1323,1216,cs),
(1354,1225,o),
(1379,1232,o),
(1379,1255,cs),
(1379,1278,o),
(1352,1285,o),
(1321,1285,cs),
(1257,1285,o),
(1168,1275,o),
(1104,1275,cs),
(1038,1275,o),
(981,1280,o),
(915,1280,cs),
(886,1280,o),
(858,1272,o),
(858,1254,cs),
(858,1233,o),
(887,1218,o),
(919,1212,cs),
(1027,1197,o),
(1065,1117,o),
(1012,981,cs),
(775,357,ls),
(772,347,o),
(768,342,o),
(765,341,cs),
(761,341,o),
(758,346,o),
(755,355,cs),
(496,1073,l),
(491,1093,o),
(483,1112,o),
(483,1136,cs),
(483,1180,o),
(522,1198,o),
(598,1213,cs),
(629,1218,o),
(657,1234,o),
(657,1255,cs),
(657,1272,o),
(628,1282,o),
(603,1282,cs),
(507,1282,o),
(399,1274,o),
(321,1274,cs),
(216,1274,o),
(114,1281,o),
(44,1281,cs),
(21,1281,o),
(0,1274,o),
(0,1254,cs),
(0,1231,o),
(20,1222,o),
(51,1212,cs),
(125,1192,o),
(166,1142,o),
(192,1077,cs),
(571,155,l),
(589,104,o),
(617,34,o),
(633,-4,cs),
(641,-22,o),
(653,-31,o),
(670,-31,cs)
);
}
);
width = 1365;
}
);
note = V;
unicode = 86;
}
{
color = 4;
glyphname = W;
kernLeft = V;
kernRight = V;
layers = (
{
anchors = (
{
name = bottom;
pos = (907,0);
},
{
name = top;
pos = (977,1274);
}
);
background = {
shapes = (
{
closed = 1;
nodes = (
(80,1216,o),
(98,1187,q),
(144,1077,o),
(154,1046,qs),
(160,1026,o),
(167,1007,qs),
(176,981,o),
(188,952,qs),
(306,654,l),
(440,340,l),
(602,-56,l),
(645,-55,l),
(675,-16,o),
(723,85,qs),
(801,243,ls),
(873,403,o),
(924,500,qs),
(936,520,l),
(1027,347,o),
(1141,85,qs),
(1185,-18,o),
(1198,-55,q),
(1211,-56,o),
(1218,-56,qs),
(1226,-56,o),
(1242,-54,q),
(1285,60,l),
(1393,360,l),
(1472,559,o),
(1538,741,qs),
(1549,770,l),
(1565,810,ls),
(1578,841,o),
(1582,853,qs),
(1596,896,o),
(1609,922,q),
(1669,1096,o),
(1672,1102,qs),
(1698,1164,o),
(1717,1192,o),
(1752,1216,o),
(1824,1244,q),
(1826,1258,o),
(1826,1265,qs),
(1825,1275,l),
(1795,1277,l),
(1720,1277,l),
(1633,1276,l),
(1556,1278,ls),
(1545,1278,o),
(1503,1276,q),
(1502,1269,ls),
(1502,1262,o),
(1505,1250,q),
(1513,1244,o),
(1521,1241,q),
(1606,1221,o),
(1634,1198,o),
(1634,1184,qs),
(1634,1179,o),
(1631,1168,qs),
(1628,1152,ls),
(1617,1099,o),
(1599,1042,qs),
(1483,712,l),
(1406,518,ls),
(1374,437,o),
(1342,364,q),
(1281,205,l),
(1279,200,l),
(1264,152,l),
(1241,214,o),
(1172,360,o),
(1165,376,qs),
(1062,615,ls),
(1036,673,o),
(1025,699,q),
(1066,794,l),
(1085,832,o),
(1092,855,q),
(1109,892,o),
(1135,966,q),
(1208,1128,l),
(1228,1163,o),
(1253,1182,qs),
(1291,1209,o),
(1367,1222,qs),
(1397,1227,o),
(1414,1241,o),
(1414,1252,qs),
(1414,1259,o),
(1406,1267,q),
(1390,1271,o),
(1382,1272,q),
(1312,1271,l),
(1270,1272,l),
(1202,1272,l),
(1078,1279,o),
(1063,1277,qs),
(1055,1276,o),
(1045,1268,q),
(1040,1257,o),
(1040,1251,qs),
(1041,1243,l),
(1059,1235,l),
(1080,1232,ls),
(1125,1228,o),
(1138,1216,qs),
(1155,1199,o),
(1155,1178,qs),
(1155,1139,o),
(1121,1057,qs),
(1040,859,o),
(993,767,q),
(891,998,ls),
(814,1180,o),
(814,1199,qs),
(814,1209,o),
(833,1221,o),
(892,1228,qs),
(933,1232,o),
(949,1238,q),
(953,1247,o),
(953,1254,qs),
(953,1262,o),
(939,1275,o),
(925,1275,qs),
(909,1274,ls),
(891,1275,o),
(882,1275,qs),
(788,1270,l),
(736,1270,l),
(687,1269,l),
(632,1269,l),
(600,1268,l),
(537,1270,ls),
(524,1270,o),
(492,1269,q),
(485,1264,o),
(483,1255,q),
(483,1243,o),
(491,1234,q),
(512,1229,l),
(600,1224,o),
(636,1198,o),
(675,1108,qs),
(694,1065,o),
(728,992,qs),
(900,602,l),
(908,582,l),
(891,529,o),
(823,389,qs),
(736,207,o),
(691,134,q),
(682,152,o),
(679,160,qs),
(622,290,o),
(607,329,qs),
(564,442,o),
(536,505,qs),
(527,525,o),
(501,594,qs),
(351,970,l),
(288,1146,ls),
(281,1165,o),
(273,1182,qs),
(267,1195,o),
(267,1201,qs),
(267,1206,o),
(271,1216,q),
(283,1220,o),
(290,1221,qs),
(387,1225,l),
(389,1242,o),
(389,1251,qs),
(389,1257,o),
(388,1269,q),
(361,1273,o),
(230,1273,qs),
(206,1272,l),
(152,1273,l),
(59,1274,ls),
(-6,1274,o),
(-20,1256,q),
(-19,1240,l),
(0,1232,o)
);
}
);
};
layerId = m01;
shapes = (
{
closed = 1;
nodes = (
(672,-31,o),
(689,3,o),
(700,29,c),
(778,249,o),
(842,416,o),
(923,608,cs),
(929,623,o),
(933,630,o),
(936,631,cs),
(939,631,o),
(942,627,o),
(945,619,cs),
(1010,463,o),
(1043,360,o),
(1098,224,cs),
(1123,162,o),
(1152,92,o),
(1186,14,cs),
(1194,-5,o),
(1208,-24,o),
(1219,-24,cs),
(1232,-24,o),
(1247,11,o),
(1250,22,cs),
(1366,364,o),
(1481,705,o),
(1597,1047,c),
(1630,1128,o),
(1670,1200,o),
(1758,1219,cs),
(1780,1224,o),
(1823,1234,o),
(1823,1258,cs),
(1823,1278,o),
(1786,1280,o),
(1766,1280,cs),
(1721,1280,o),
(1640,1274,o),
(1589,1274,cs),
(1538,1274,o),
(1499,1276,o),
(1448,1276,cs),
(1428,1276,o),
(1391,1274,o),
(1391,1254,cs),
(1391,1237,o),
(1431,1223,o),
(1456,1215,cs),
(1501,1204,o),
(1515,1170,o),
(1515,1131,cs),
(1515,1110,o),
(1511,1084,o),
(1503,1060,cs),
(1415,760,o),
(1329,473,o),
(1264,302,cs),
(1260,293,o),
(1255,286,o),
(1252,284,cs),
(1249,282,o),
(1245,283,o),
(1243,290,cs),
(1041,809,ls),
(1036,822,o),
(1045,865,o),
(1052,884,cs),
(1083,968,o),
(1135,1087,o),
(1156,1125,cs),
(1191,1180,o),
(1205,1200,o),
(1290,1219,cs),
(1312,1224,o),
(1354,1234,o),
(1354,1258,cs),
(1354,1279,o),
(1318,1280,o),
(1297,1280,cs),
(1250,1280,o),
(1229,1274,o),
(1182,1274,cs),
(1158,1274,o),
(1113,1278,o),
(1080,1278,cs),
(1041,1278,o),
(1023,1277,o),
(1023,1256,cs),
(1023,1232,o),
(1058,1224,o),
(1080,1205,cs),
(1089,1197,o),
(1096,1187,o),
(1096,1172,cs),
(1096,1164,o),
(1092,1148,o),
(1085,1127,cs),
(1066,1065,o),
(1027,964,o),
(1015,937,cs),
(999,902,o),
(993,906,o),
(980,937,cs),
(966,970,o),
(934,1065,o),
(901,1131,cs),
(898,1137,o),
(888,1161,o),
(888,1174,cs),
(888,1223,o),
(968,1221,o),
(968,1256,cs),
(968,1277,o),
(932,1278,o),
(911,1278,cs),
(885,1278,o),
(793,1274,o),
(760,1274,cs),
(681,1274,o),
(622,1280,o),
(576,1280,cs),
(556,1280,o),
(519,1278,o),
(519,1258,cs),
(519,1235,o),
(564,1222,o),
(584,1215,cs),
(653,1196,o),
(737,1137,o),
(770,1054,cs),
(807,961,o),
(845,869,o),
(882,776,cs),
(893,749,o),
(898,735,o),
(898,719,cs),
(898,708,o),
(894,695,o),
(886,674,cs),
(733,296,ls),
(728,284,o),
(724,277,o),
(718,278,cs),
(714,280,o),
(709,286,o),
(704,298,cs),
(644,435,o),
(583,570,o),
(538,679,cs),
(490,795,o),
(441,919,o),
(382,1068,cs),
(374,1089,o),
(366,1117,o),
(366,1152,cs),
(366,1181,o),
(374,1209,o),
(406,1217,cs),
(427,1223,o),
(470,1232,o),
(470,1256,cs),
(470,1277,o),
(435,1278,o),
(414,1278,cs),
(385,1278,o),
(270,1274,o),
(231,1274,cs),
(173,1274,o),
(115,1280,o),
(57,1280,cs),
(38,1280,o),
(0,1279,o),
(0,1258,cs),
(0,1235,o),
(45,1222,o),
(65,1215,cs),
(134,1196,o),
(174,1154,o),
(206,1086,c),
(634,11,o),
(640,-2,o),
(645,-13,cs),
(650,-24,o),
(654,-31,o),
(657,-31,cs)
);
}
);
width = 1813;
},
{
anchors = (
{
name = bottom;
pos = (918,0);
},
{
name = top;
pos = (1016,1274);
}
);
layerId = "088BD936-56BA-4CBD-9590-2DD048370D9B";
shapes = (
{
closed = 1;
nodes = (
(731,-32,o),
(743,-10,o),
(754,17,c),
(839,196,o),
(925,367,o),
(994,512,cs),
(999,522,o),
(1004,528,o),
(1008,528,cs),
(1012,528,o),
(1016,524,o),
(1020,516,cs),
(1056,436,o),
(1087,367,o),
(1113,307,cs),
(1164,188,o),
(1207,98,o),
(1246,10,cs),
(1257,-13,o),
(1270,-27,o),
(1290,-27,cs),
(1307,-27,o),
(1319,-9,o),
(1327,12,cs),
(1471,365,o),
(1615,719,o),
(1759,1072,c),
(1787,1135,o),
(1828,1197,o),
(1908,1216,cs),
(1939,1225,o),
(1970,1232,o),
(1970,1255,cs),
(1970,1278,o),
(1941,1285,o),
(1905,1285,cs),
(1826,1285,o),
(1809,1277,o),
(1746,1275,cs),
(1726,1274,o),
(1645,1280,o),
(1609,1280,cs),
(1581,1280,o),
(1552,1272,o),
(1552,1254,cs),
(1552,1233,o),
(1587,1219,o),
(1613,1212,cs),
(1651,1203,o),
(1668,1180,o),
(1670,1148,cs),
(1673,1122,o),
(1658,1082,o),
(1649,1057,cs),
(1571,834,o),
(1472,570,o),
(1381,360,cs),
(1377,351,o),
(1373,343,o),
(1367,343,cs),
(1364,342,o),
(1360,345,o),
(1357,354,cs),
(1196,739,ls),
(1184,768,o),
(1183,803,o),
(1196,833,cs),
(1243,938,o),
(1289,1036,o),
(1322,1097,cs),
(1354,1155,o),
(1380,1194,o),
(1460,1214,cs),
(1491,1223,o),
(1515,1230,o),
(1515,1253,cs),
(1515,1276,o),
(1488,1283,o),
(1457,1283,cs),
(1392,1283,o),
(1374,1276,o),
(1320,1274,cs),
(1302,1274,o),
(1242,1279,o),
(1208,1279,cs),
(1183,1279,o),
(1162,1277,o),
(1162,1252,cs),
(1162,1226,o),
(1198,1216,o),
(1229,1199,cs),
(1244,1191,o),
(1252,1177,o),
(1252,1158,cs),
(1252,1146,o),
(1250,1136,o),
(1245,1125,cs),
(1227,1082,o),
(1195,984,o),
(1159,903,cs),
(1146,876,o),
(1140,865,o),
(1123,903,cs),
(1077,1011,o),
(1038,1122,o),
(1031,1139,cs),
(1022,1164,o),
(1023,1189,o),
(1059,1198,c),
(1088,1221,o),
(1132,1228,o),
(1132,1255,cs),
(1132,1277,o),
(1090,1281,o),
(1068,1281,cs),
(1034,1281,o),
(888,1274,o),
(852,1274,cs),
(758,1274,o),
(724,1281,o),
(655,1281,cs),
(631,1281,o),
(610,1274,o),
(610,1254,cs),
(610,1231,o),
(632,1222,o),
(661,1212,c),
(715,1192,o),
(737,1144,o),
(764,1075,c),
(825,943,o),
(885,810,o),
(946,678,cs),
(953,660,o),
(958,649,o),
(958,636,cs),
(958,626,o),
(953,613,o),
(945,598,cs),
(827,355,ls),
(820,341,o),
(816,335,o),
(811,335,cs),
(806,335,o),
(802,343,o),
(796,357,cs),
(743,484,o),
(689,608,o),
(640,723,cs),
(589,843,o),
(536,965,o),
(485,1089,c),
(482,1106,o),
(473,1135,o),
(473,1152,cs),
(473,1181,o),
(476,1203,o),
(516,1213,cs),
(558,1223,o),
(580,1232,o),
(580,1255,cs),
(580,1272,o),
(555,1282,o),
(521,1282,cs),
(457,1282,o),
(362,1274,o),
(294,1274,cs),
(258,1274,o),
(90,1281,o),
(52,1281,cs),
(27,1281,o),
(5,1274,o),
(5,1254,cs),
(5,1231,o),
(28,1222,o),
(59,1212,cs),
(133,1192,o),
(165,1149,o),
(193,1086,c),
(353,730,o),
(512,375,o),
(672,19,cs),
(685,-9,o),
(692,-32,o),
(711,-32,cs)
);
}
);
width = 1835;
}
);
note = W;
unicode = 87;
}
{
color = 4;
glyphname = X;
kernLeft = X;
kernRight = X;
layers = (
{
background = {
shapes = (
{
closed = 1;
nodes = (
(42,-11,qs),
(49,-11,o),
(83,-8,qs),
(148,-1,o),
(209,-1,qs),
(282,-1,o),
(466,-6,q),
(569,-20,o),
(590,-20,qs),
(621,-19,l),
(622,-10,o),
(622,-5,qs),
(622,2,o),
(620,15,q),
(456,40,o),
(429,54,qs),
(390,73,o),
(390,110,qs),
(390,139,o),
(410,177,qs),
(424,205,o),
(566,392,qs),
(675,536,o),
(689,546,q),
(736,488,o),
(967,169,o),
(1005,103,qs),
(1013,90,o),
(1019,70,q),
(1011,50,o),
(994,44,q),
(883,22,l),
(826,17,l),
(821,6,o),
(821,1,qs),
(821,-5,o),
(826,-17,q),
(840,-19,o),
(850,-19,qs),
(858,-19,o),
(920,-13,q),
(1097,-6,l),
(1197,-8,ls),
(1301,-9,o),
(1365,-17,qs),
(1399,-21,o),
(1414,-21,qs),
(1448,-20,l),
(1449,-10,ls),
(1449,0,o),
(1442,17,q),
(1343,26,o),
(1273,50,o),
(1247,75,qs),
(1205,115,o),
(1110,246,qs),
(812,646,l),
(798,664,ls),
(791,672,o),
(788,680,q),
(813,717,o),
(838,749,qs),
(882,804,o),
(897,825,qs),
(974,935,o),
(1142,1138,o),
(1174,1164,qs),
(1190,1177,o),
(1254,1209,q),
(1377,1252,l),
(1375,1272,l),
(1360,1275,l),
(1258,1277,l),
(1069,1277,l),
(873,1274,l),
(871,1263,l),
(871,1254,o),
(879,1238,q),
(886,1234,o),
(895,1231,q),
(909,1230,o),
(989,1213,qs),
(1026,1206,o),
(1054,1177,o),
(1054,1158,qs),
(1054,1144,o),
(1038,1108,o),
(889,884,qs),
(822,783,o),
(763,712,q),
(590,940,ls),
(483,1082,o),
(455,1144,qs),
(450,1155,o),
(450,1164,qs),
(450,1173,o),
(455,1189,q),
(465,1200,o),
(514,1219,o),
(631,1235,o),
(649,1242,q),
(650,1249,ls),
(650,1256,o),
(645,1269,q),
(619,1273,o),
(607,1273,qs),
(593,1273,o),
(569,1269,qs),
(527,1260,o),
(502,1260,qs),
(417,1260,o),
(369,1263,qs),
(201,1272,l),
(134,1277,l),
(107,1277,ls),
(90,1277,o),
(19,1274,q),
(17,1263,l),
(17,1252,o),
(23,1234,q),
(40,1231,o),
(78,1228,qs),
(180,1219,o),
(192,1210,qs),
(228,1184,o),
(505,788,o),
(659,588,q),
(580,468,o),
(422,292,qs),
(359,223,o),
(344,204,qs),
(310,160,o),
(250,99,qs),
(219,69,o),
(201,59,qs),
(189,52,o),
(103,32,q),
(35,24,o),
(14,17,q),
(10,-10,l),
(28,-11,o)
);
}
);
};
layerId = m01;
shapes = (
{
closed = 1;
nodes = (
(95,-10,o),
(239,2,o),
(294,2,cs),
(331,2,o),
(442,-2,o),
(468,-2,cs),
(489,-2,o),
(525,-1,o),
(525,20,cs),
(525,29,o),
(520,39,o),
(510,42,cs),
(453,61,o),
(372,67,o),
(372,137,cs),
(372,150,o),
(379,167,o),
(390,182,cs),
(478,296,o),
(567,409,o),
(655,523,c),
(661,533,o),
(667,538,o),
(674,536,cs),
(681,535,o),
(689,528,o),
(698,513,cs),
(766,415,o),
(834,316,o),
(902,218,cs),
(920,193,o),
(925,174,o),
(925,153,cs),
(925,104,o),
(877,74,o),
(839,61,cs),
(812,53,o),
(774,39,o),
(774,22,cs),
(774,1,o),
(812,0,o),
(831,0,cs),
(883,0,o),
(974,2,o),
(1033,2,cs),
(1139,2,o),
(1249,-10,o),
(1313,-10,cs),
(1334,-10,o),
(1370,-9,o),
(1370,12,cs),
(1370,37,o),
(1327,46,o),
(1305,51,cs),
(1232,72,o),
(1156,131,o),
(1096,218,cs),
(792,655,l),
(788,663,o),
(786,669,o),
(786,676,cs),
(785,691,o),
(796,704,o),
(819,733,cs),
(1045,1000,ls),
(1130,1101,o),
(1225,1206,o),
(1299,1225,cs),
(1320,1231,o),
(1364,1240,o),
(1364,1264,cs),
(1364,1285,o),
(1328,1286,o),
(1307,1286,cs),
(1269,1286,o),
(1128,1274,o),
(1084,1274,cs),
(1048,1274,o),
(990,1276,o),
(925,1276,cs),
(905,1276,o),
(868,1274,o),
(868,1254,cs),
(868,1237,o),
(907,1220,o),
(933,1215,cs),
(996,1204,o),
(1021,1183,o),
(1021,1154,cs),
(1021,1129,o),
(1002,1094,o),
(970,1054,cs),
(900,962,o),
(830,870,o),
(760,778,c),
(751,764,o),
(743,756,o),
(735,755,cs),
(727,754,o),
(717,762,o),
(702,784,cs),
(642,868,o),
(583,951,o),
(523,1035,cs),
(481,1094,o),
(459,1135,o),
(459,1156,cs),
(459,1202,o),
(487,1195,o),
(559,1217,cs),
(580,1223,o),
(623,1232,o),
(623,1256,cs),
(623,1277,o),
(587,1278,o),
(566,1278,cs),
(539,1278,o),
(428,1274,o),
(347,1274,cs),
(224,1274,o),
(138,1284,o),
(92,1284,cs),
(72,1284,o),
(37,1279,o),
(37,1259,cs),
(37,1236,o),
(80,1226,o),
(100,1219,cs),
(143,1206,o),
(188,1190,o),
(239,1142,cs),
(266,1117,o),
(294,1083,o),
(327,1037,cs),
(590,668,ls),
(604,648,o),
(610,631,o),
(611,615,cs),
(611,592,o),
(598,572,o),
(580,549,cs),
(335,243,ls),
(254,142,o),
(131,78,o),
(55,55,cs),
(36,49,o),
(-10,35,o),
(-10,12,cs),
(-10,-8,o),
(27,-10,o),
(47,-10,cs)
);
}
);
width = 1429;
},
{
layerId = "088BD936-56BA-4CBD-9590-2DD048370D9B";
shapes = (
{
closed = 1;
nodes = (
(129,-13,o),
(189,-1,o),
(272,-1,cs),
(327,-1,o),
(410,-6,o),
(465,-6,cs),
(497,-6,o),
(522,2,o),
(522,20,cs),
(522,41,o),
(495,56,o),
(462,62,cs),
(406,72,o),
(375,100,o),
(372,133,cs),
(370,151,o),
(374,181,o),
(403,222,cs),
(470,316,o),
(537,409,o),
(604,503,cs),
(619,525,o),
(631,534,o),
(642,533,cs),
(655,532,o),
(667,519,o),
(681,496,c),
(752,396,o),
(822,296,o),
(893,196,cs),
(906,177,o),
(911,163,o),
(911,147,cs),
(911,101,o),
(851,78,o),
(805,66,cs),
(781,60,o),
(746,46,o),
(746,24,cs),
(746,7,o),
(775,-3,o),
(801,-3,cs),
(836,-3,o),
(958,2,o),
(1084,2,cs),
(1161,2,o),
(1243,-10,o),
(1389,-10,cs),
(1419,-10,o),
(1441,-1,o),
(1441,17,cs),
(1441,40,o),
(1403,57,o),
(1372,64,cs),
(1318,79,o),
(1260,129,o),
(1215,194,cs),
(893,652,ls),
(882,669,o),
(876,682,o),
(875,694,cs),
(874,712,o),
(883,728,o),
(901,749,cs),
(1161,1067,ls),
(1216,1136,o),
(1292,1200,o),
(1355,1219,cs),
(1386,1229,o),
(1414,1235,o),
(1414,1258,cs),
(1414,1280,o),
(1383,1287,o),
(1353,1287,cs),
(1265,1287,o),
(1234,1274,o),
(1148,1274,cs),
(1088,1274,o),
(1040,1280,o),
(974,1280,cs),
(940,1280,o),
(914,1272,o),
(914,1254,cs),
(914,1233,o),
(949,1219,o),
(975,1212,cs),
(1038,1196,o),
(1061,1175,o),
(1061,1142,cs),
(1061,1116,o),
(1048,1082,o),
(1013,1035,cs),
(956,957,o),
(898,878,o),
(841,800,cs),
(830,785,o),
(820,778,o),
(810,778,cs),
(800,778,o),
(789,787,o),
(776,805,cs),
(714,890,o),
(653,975,o),
(591,1060,cs),
(565,1096,o),
(552,1122,o),
(552,1140,cs),
(552,1180,o),
(588,1194,o),
(664,1213,cs),
(695,1221,o),
(723,1234,o),
(723,1255,cs),
(723,1272,o),
(694,1282,o),
(668,1282,cs),
(597,1282,o),
(503,1274,o),
(430,1274,cs),
(373,1274,o),
(133,1283,o),
(80,1283,cs),
(56,1283,o),
(35,1275,o),
(35,1256,cs),
(35,1233,o),
(56,1224,o),
(86,1214,cs),
(133,1201,o),
(167,1180,o),
(199,1148,cs),
(221,1126,o),
(241,1100,o),
(263,1068,cs),
(539,682,ls),
(556,659,o),
(563,637,o),
(563,617,cs),
(563,594,o),
(553,572,o),
(536,550,cs),
(296,243,ls),
(210,132,o),
(121,81,o),
(46,58,cs),
(17,48,o),
(-10,40,o),
(-10,17,cs),
(-10,-6,o),
(18,-13,o),
(48,-13,cs)
);
}
);
width = 1408;
}
);
note = X;
unicode = 88;
}
{
color = 4;
glyphname = Y;
kernLeft = Y;
kernRight = Y;
layers = (
{
anchors = (
{
name = bottom;
pos = (672,0);
},
{
name = top;
pos = (672,1274);
},
{
name = topleft;
pos = (20,1274);
}
);
background = {
shapes = (
{
closed = 1;
nodes = (
(-1,1244,o),
(7,1244,qs),
(83,1237,o),
(102,1224,qs),
(145,1195,o),
(203,1110,qs),
(426,785,l),
(557,586,ls),
(593,532,o),
(606,489,o),
(606,392,qs),
(606,132,o),
(605,114,qs),
(602,89,o),
(590,77,qs),
(582,69,o),
(515,47,q),
(386,27,ls),
(379,26,o),
(372,20,q),
(369,11,o),
(369,6,qs),
(369,1,o),
(373,-10,q),
(397,-11,o),
(417,-11,qs),
(557,-11,l),
(728,-2,l),
(984,-13,l),
(991,4,o),
(991,16,qs),
(991,28,l),
(810,46,o),
(784,59,qs),
(774,65,o),
(768,93,qs),
(757,149,o),
(757,460,qs),
(757,539,o),
(768,578,qs),
(773,594,o),
(799,628,qs),
(813,646,o),
(836,683,qs),
(907,796,o),
(1113,1072,o),
(1260,1227,q),
(1272,1236,o),
(1293,1244,q),
(1306,1245,o),
(1312,1246,qs),
(1336,1249,ls),
(1351,1250,o),
(1358,1252,q),
(1361,1287,l),
(1325,1288,o),
(1319,1288,qs),
(1168,1285,l),
(980,1290,l),
(928,1289,l),
(927,1282,o),
(927,1276,qs),
(927,1268,o),
(934,1256,q),
(946,1254,o),
(953,1253,qs),
(1056,1243,o),
(1087,1222,qs),
(1106,1209,o),
(1106,1188,qs),
(1106,1179,o),
(1104,1171,qs),
(1100,1155,o),
(1078,1121,qs),
(912,872,l),
(768,665,ls),
(742,628,o),
(727,609,q),
(575,839,ls),
(552,872,o),
(531,908,qs),
(478,998,o),
(431,1064,qs),
(398,1109,o),
(378,1143,qs),
(367,1159,o),
(362,1167,qs),
(348,1187,o),
(348,1200,qs),
(348,1212,o),
(364,1223,qs),
(385,1238,o),
(419,1238,qs),
(448,1237,l),
(504,1238,l),
(515,1238,l),
(540,1250,l),
(540,1261,ls),
(540,1270,o),
(533,1278,q),
(510,1282,o),
(485,1282,qs),
(368,1280,ls),
(278,1280,o),
(142,1286,qs),
(54,1289,o),
(28,1289,qs),
(-20,1289,l),
(-17,1246,l)
);
}
);
};
layerId = m01;
shapes = (
{
closed = 1;
nodes = (
(444,-10,o),
(515,0,o),
(608,0,cs),
(694,0,o),
(754,-10,o),
(837,-10,cs),
(857,-10,o),
(894,-8,o),
(894,12,cs),
(894,35,o),
(851,43,o),
(829,47,cs),
(731,66,o),
(674,123,o),
(674,212,cs),
(674,510,ls),
(674,597,o),
(681,616,o),
(723,686,cs),
(767,759,o),
(796,804,o),
(827,853,cs),
(859,903,o),
(897,962,o),
(941,1031,cs),
(1012,1138,o),
(1044,1190,o),
(1113,1209,cs),
(1140,1217,o),
(1164,1225,o),
(1186,1233,cs),
(1206,1240,o),
(1217,1249,o),
(1217,1258,cs),
(1217,1279,o),
(1181,1280,o),
(1160,1280,cs),
(1128,1280,o),
(1000,1274,o),
(956,1274,cs),
(900,1274,o),
(865,1276,o),
(809,1276,cs),
(790,1276,o),
(753,1274,o),
(753,1254,cs),
(753,1237,o),
(792,1220,o),
(817,1215,c),
(854,1210,o),
(898,1197,o),
(898,1146,cs),
(898,1123,o),
(888,1090,o),
(862,1047,cs),
(797,929,o),
(758,856,o),
(698,764,cs),
(681,737,o),
(668,718,o),
(659,707,cs),
(650,696,o),
(641,690,o),
(633,690,cs),
(622,690,o),
(604,715,o),
(578,764,cs),
(398,1097,ls),
(381,1127,o),
(372,1151,o),
(372,1168,cs),
(372,1197,o),
(398,1206,o),
(435,1217,cs),
(456,1222,o),
(473,1228,o),
(484,1234,cs),
(495,1240,o),
(500,1247,o),
(500,1256,cs),
(500,1276,o),
(482,1278,o),
(443,1278,cs),
(416,1278,o),
(320,1274,o),
(286,1274,cs),
(225,1274,o),
(107,1280,o),
(57,1280,cs),
(38,1280,o),
(0,1279,o),
(0,1258,cs),
(0,1235,o),
(45,1222,o),
(65,1215,cs),
(125,1197,o),
(198,1093,o),
(239,1023,cs),
(468,647,ls),
(479,628,o),
(517,554,o),
(517,502,cs),
(517,212,ls),
(517,117,o),
(464,66,o),
(365,47,cs),
(342,43,o),
(300,35,o),
(300,12,cs),
(300,-9,o),
(338,-10,o),
(357,-10,cs)
);
}
);
width = 1344;
},
{
anchors = (
{
name = bottom;
pos = (672,0);
},
{
name = top;
pos = (672,1274);
},
{
name = topleft;
pos = (20,1274);
}
);
layerId = "088BD936-56BA-4CBD-9590-2DD048370D9B";
shapes = (
{
closed = 1;
nodes = (
(461,-11,o),
(555,4,o),
(652,4,cs),
(742,4,o),
(841,-10,o),
(930,-10,cs),
(960,-10,o),
(983,2,o),
(983,20,cs),
(983,42,o),
(958,51,o),
(923,59,cs),
(824,83,o),
(785,120,o),
(785,216,cs),
(785,505,ls),
(785,583,o),
(801,627,o),
(838,692,cs),
(877,759,o),
(917,822,o),
(952,879,cs),
(989,939,o),
(1030,1003,o),
(1072,1070,cs),
(1117,1143,o),
(1167,1193,o),
(1241,1213,cs),
(1261,1219,o),
(1281,1225,o),
(1295,1232,cs),
(1305,1238,o),
(1311,1245,o),
(1311,1255,cs),
(1311,1278,o),
(1284,1285,o),
(1253,1285,cs),
(1183,1285,o),
(1128,1273,o),
(1053,1273,cs),
(988,1273,o),
(927,1280,o),
(865,1280,cs),
(836,1280,o),
(808,1272,o),
(808,1254,cs),
(808,1233,o),
(842,1216,o),
(869,1212,c),
(917,1209,o),
(969,1187,o),
(969,1135,cs),
(969,1112,o),
(960,1080,o),
(944,1051,cs),
(886,932,o),
(835,837,o),
(773,731,cs),
(763,716,o),
(756,706,o),
(750,699,cs),
(744,692,o),
(738,689,o),
(731,689,cs),
(720,689,o),
(706,704,o),
(692,731,cs),
(495,1076,ls),
(480,1102,o),
(472,1126,o),
(472,1146,cs),
(472,1171,o),
(484,1185,o),
(510,1196,cs),
(524,1202,o),
(542,1207,o),
(565,1213,cs),
(595,1220,o),
(623,1234,o),
(623,1255,cs),
(623,1272,o),
(594,1282,o),
(569,1282,cs),
(491,1282,o),
(416,1271,o),
(343,1271,cs),
(255,1271,o),
(139,1281,o),
(44,1281,cs),
(21,1281,o),
(0,1274,o),
(0,1254,cs),
(0,1231,o),
(20,1222,o),
(51,1212,cs),
(123,1193,o),
(174,1118,o),
(209,1063,cs),
(456,676,ls),
(483,631,o),
(514,572,o),
(514,489,cs),
(514,215,ls),
(514,128,o),
(476,78,o),
(377,59,cs),
(342,52,o),
(317,39,o),
(317,18,cs),
(317,1,o),
(339,-11,o),
(373,-11,cs)
);
}
);
width = 1344;
}
);
note = Y;
unicode = 89;
}
{
color = 4;
glyphname = Z;
kernRight = Z;
layers = (
{
anchors = (
{
name = bottom;
pos = (672,0);
},
{
name = center;
pos = (672,637);
},
{
name = top;
pos = (672,1274);
}
);
background = {
shapes = (
{
closed = 1;
nodes = (
(96,-15,qs),
(102,-15,o),
(134,-11,qs),
(227,2,o),
(281,2,qs),
(297,2,o),
(325,0,qs),
(378,-3,o),
(386,-3,qs),
(550,0,l),
(867,-7,l),
(1125,-3,ls),
(1153,-3,o),
(1194,-5,qs),
(1202,-5,o),
(1238,-2,q),
(1243,22,o),
(1243,49,qs),
(1241,111,l),
(1244,179,ls),
(1247,266,o),
(1247,316,qs),
(1247,334,o),
(1245,356,q),
(1241,359,l),
(1227,359,o),
(1216,349,q),
(1212,333,o),
(1205,302,qs),
(1175,163,o),
(1019,44,o),
(826,44,qs),
(774,44,o),
(687,45,qs),
(298,48,l),
(305,59,o),
(310,65,q),
(334,101,o),
(404,191,qs),
(606,458,l),
(751,649,ls),
(817,735,o),
(830,751,qs),
(853,780,o),
(895,837,qs),
(1082,1087,ls),
(1091,1100,o),
(1131,1148,qs),
(1207,1241,o),
(1207,1257,q),
(1206,1264,l),
(1185,1271,o),
(1166,1271,qs),
(1066,1266,l),
(858,1260,l),
(624,1254,l),
(570,1254,ls),
(501,1251,o),
(483,1249,qs),
(437,1244,o),
(392,1244,qs),
(285,1244,o),
(235,1277,o),
(235,1308,qs),
(235,1319,o),
(243,1346,q),
(230,1346,ls),
(222,1346,o),
(211,1343,q),
(202,1324,o),
(183,1264,o),
(160,1200,q),
(128,1082,o),
(92,991,o),
(89,971,q),
(106,973,l),
(126,986,o),
(159,1042,qs),
(184,1084,o),
(225,1127,qs),
(257,1160,o),
(281,1171,qs),
(326,1191,o),
(520,1201,o),
(635,1212,o),
(642,1212,qs),
(817,1215,o),
(896,1218,o),
(922,1218,qs),
(947,1218,o),
(983,1216,q),
(975,1203,o),
(968,1192,q),
(637,751,l),
(253,240,l),
(197,161,l),
(166,124,o),
(160,115,qs),
(140,86,o),
(72,13,q),
(74,-12,l),
(88,-15,o)
);
}
);
};
layerId = m01;
shapes = (
{
closed = 1;
nodes = (
(219,-6,ls),
(257,-6,o),
(295,-6,o),
(335,-5,cs),
(375,-4,o),
(414,-4,o),
(453,-4,cs),
(620,-4,o),
(817,-10,o),
(1045,-10,cs),
(1065,-10,o),
(1072,8,o),
(1080,24,cs),
(1093,52,o),
(1152,246,o),
(1152,310,cs),
(1152,327,o),
(1146,335,o),
(1135,335,cs),
(1116,335,o),
(1097,309,o),
(1092,294,cs),
(1042,161,o),
(960,89,o),
(849,80,cs),
(758,75,o),
(661,71,o),
(572,71,cs),
(487,71,o),
(408,75,o),
(351,80,c),
(337,83,o),
(329,98,o),
(329,114,cs),
(329,124,o),
(331,132,o),
(335,137,cs),
(457,324,o),
(558,474,o),
(657,613,cs),
(756,752,o),
(862,895,o),
(998,1078,cs),
(1117,1237,l),
(1125,1246,o),
(1108,1272,o),
(1096,1272,cs),
(953,1267,o),
(800,1266,o),
(643,1266,cs),
(598,1266,o),
(429,1266,o),
(396,1266,cs),
(331,1266,o),
(253,1288,o),
(227,1297,c),
(208,1307,o),
(176,1325,o),
(167,1325,cs),
(156,1325,o),
(140,1321,o),
(137,1292,cs),
(133,1209,o),
(101,1107,o),
(84,1060,cs),
(79,1045,o),
(71,1023,o),
(71,1007,cs),
(71,998,o),
(77,986,o),
(88,986,cs),
(117,986,o),
(132,1025,o),
(143,1048,c),
(180,1145,o),
(273,1189,o),
(335,1194,cs),
(388,1198,o),
(490,1197,o),
(535,1197,cs),
(639,1197,o),
(751,1195,o),
(821,1194,cs),
(834,1193,o),
(858,1191,o),
(858,1178,cs),
(858,1173,o),
(855,1167,o),
(851,1162,cs),
(725,975,o),
(621,825,o),
(516,679,cs),
(453,592,o),
(248,313,o),
(169,204,cs),
(103,114,o),
(55,41,o),
(55,22,c),
(57,12,o),
(59,-6,o),
(69,-6,cs)
);
}
);
width = 1344;
},
{
anchors = (
{
name = bottom;
pos = (683,0);
},
{
name = center;
pos = (683,637);
},
{
name = top;
pos = (683,1274);
}
);
layerId = "088BD936-56BA-4CBD-9590-2DD048370D9B";
shapes = (
{
closed = 1;
nodes = (
(220,-6,ls),
(267,-5,o),
(313,-4,o),
(358,-4,cs),
(405,-3,o),
(448,-2,o),
(494,-1,cs),
(687,-1,o),
(886,-9,o),
(1026,-9,cs),
(1052,-9,o),
(1067,6,o),
(1075,28,cs),
(1103,116,o),
(1142,265,o),
(1142,313,cs),
(1142,331,o),
(1134,340,o),
(1117,340,cs),
(1101,340,o),
(1087,330,o),
(1078,310,cs),
(1035,202,o),
(976,137,o),
(900,115,cs),
(830,94,o),
(744,88,o),
(640,88,cs),
(590,88,o),
(516,90,o),
(477,94,cs),
(449,97,o),
(438,106,o),
(438,121,cs),
(438,133,o),
(443,148,o),
(454,166,cs),
(550,314,o),
(635,451,o),
(720,588,cs),
(809,733,o),
(900,878,o),
(1004,1035,cs),
(1135,1236,l),
(1141,1247,o),
(1122,1280,o),
(1104,1280,cs),
(963,1277,o),
(776,1271,o),
(658,1271,cs),
(618,1271,o),
(460,1271,o),
(424,1271,cs),
(345,1271,o),
(270,1274,o),
(204,1321,c),
(187,1333,o),
(173,1340,o),
(163,1340,cs),
(139,1340,o),
(128,1328,o),
(124,1292,cs),
(117,1203,o),
(102,1119,o),
(67,1041,cs),
(60,1025,o),
(53,1004,o),
(53,988,cs),
(53,973,o),
(61,958,o),
(79,958,cs),
(117,958,o),
(139,996,o),
(155,1024,cs),
(209,1127,o),
(296,1184,o),
(393,1186,cs),
(417,1187,o),
(517,1187,o),
(545,1187,cs),
(609,1187,o),
(674,1187,o),
(727,1186,cs),
(744,1186,o),
(759,1183,o),
(759,1166,cs),
(759,1157,o),
(752,1144,o),
(749,1138,cs),
(648,978,o),
(551,830,o),
(455,682,cs),
(360,536,o),
(259,382,o),
(160,226,cs),
(117,161,o),
(77,98,o),
(46,42,c),
(40,34,o),
(49,-9,o),
(70,-9,cs)
);
}
);
width = 1365;
}
);
note = Z;
unicode = 90;
}
{
glyphname = bracketleft;
layers = (
{
background = {
shapes = (
{
closed = 1;
nodes = (
(215,1073,l),
(213,931,l),
(217,825,ls),
(217,807,o),
(212,732,o),
(212,641,qs),
(216,516,l),
(213,221,l),
(218,135,ls),
(219,119,o),
(219,80,qs),
(219,-2,o),
(218,-56,qs),
(208,-276,l),
(214,-475,l),
(603,-475,l),
(601,-432,l),
(576,-431,o),
(549,-431,qs),
(507,-432,ls),
(429,-432,o),
(383,-422,qs),
(361,-417,o),
(348,-402,o),
(347,-381,qs),
(341,-256,l),
(342,-240,ls),
(347,-178,o),
(347,-63,qs),
(342,203,l),
(346,297,l),
(344,428,l),
(345,563,ls),
(345,574,o),
(343,603,qs),
(341,662,o),
(341,669,qs),
(341,765,l),
(340,795,l),
(344,848,l),
(344,925,l),
(346,1022,l),
(345,1063,ls),
(345,1174,o),
(352,1220,q),
(356,1225,l),
(384,1243,o),
(467,1243,qs),
(605,1241,l),
(603,1283,l),
(215,1285,l),
(213,1251,l)
);
}
);
};
layerId = m01;
shapes = (
{
closed = 1;
nodes = (
(582,-392,o),
(610,-386,o),
(610,-363,cs),
(610,-339,o),
(585,-330,o),
(559,-327,cs),
(404,-302,ls),
(381,-297,o),
(359,-272,o),
(359,-237,cs),
(359,1258,ls),
(359,1279,o),
(385,1304,o),
(404,1307,c),
(559,1319,ls),
(585,1322,o),
(610,1331,o),
(610,1348,cs),
(610,1369,o),
(593,1374,o),
(574,1374,cs),
(290,1376,ls),
(249,1376,o),
(229,1374,o),
(222,1356,cs),
(218,1346,o),
(216,1331,o),
(216,1309,cs),
(216,-343,ls),
(216,-388,o),
(234,-392,o),
(276,-392,cs),
(559,-392,l),
(559,-392,l)
);
}
);
width = 555;
},
{
layerId = "088BD936-56BA-4CBD-9590-2DD048370D9B";
shapes = (
{
closed = 1;
nodes = (
(634,-392,o),
(656,-383,o),
(656,-355,cs),
(656,-331,o),
(621,-320,o),
(589,-316,cs),
(438,-292,ls),
(415,-287,o),
(400,-267,o),
(400,-242,cs),
(401,1238,ls),
(401,1259,o),
(416,1282,o),
(441,1285,cs),
(598,1304,ls),
(620,1308,o),
(661,1317,o),
(661,1342,cs),
(661,1370,o),
(638,1373,o),
(618,1373,cs),
(295,1375,ls),
(252,1375,o),
(229,1372,o),
(222,1347,cs),
(218,1333,o),
(216,1312,o),
(216,1280,cs),
(216,-305,ls),
(216,-358,o),
(220,-383,o),
(244,-389,cs),
(256,-392,o),
(271,-393,o),
(290,-393,cs),
(613,-392,l),
(613,-392,l)
);
}
);
width = 747;
}
);
note = bracketleft;
unicode = 91;
}
{
glyphname = backslash;
layers = (
{
background = {
shapes = (
{
closed = 1;
nodes = (
(911,-277,l),
(200,1426,l),
(113,1426,l),
(823,-277,l)
);
}
);
};
layerId = m01;
shapes = (
{
closed = 1;
nodes = (
(736,-122,o),
(749,-108,o),
(741,-92,cs),
(159,1270,ls),
(146,1299,o),
(117,1303,o),
(82,1303,cs),
(57,1303,o),
(49,1289,o),
(57,1270,cs),
(639,-92,l),
(652,-118,o),
(681,-122,o),
(709,-122,cs)
);
}
);
width = 1024;
},
{
layerId = "088BD936-56BA-4CBD-9590-2DD048370D9B";
shapes = (
{
closed = 1;
nodes = (
(749,-122,o),
(766,-103,o),
(758,-86,cs),
(158,1266,ls),
(141,1301,o),
(112,1306,o),
(71,1306,cs),
(40,1306,o),
(27,1285,o),
(35,1266,cs),
(636,-86,ls),
(651,-117,o),
(687,-122,o),
(721,-122,cs)
);
}
);
width = 1131;
}
);
note = backslash;
unicode = 92;
}
{
glyphname = bracketright;
kernLeft = parenright;
layers = (
{
background = {
shapes = (
{
closed = 1;
nodes = (
(153,1234,qs),
(176,1231,o),
(206,1220,q),
(212,1203,o),
(214,1195,q),
(215,1162,l),
(220,1060,l),
(214,972,o),
(214,945,qs),
(214,928,o),
(216,858,qs),
(222,656,o),
(222,609,qs),
(222,589,o),
(220,541,qs),
(218,506,o),
(218,494,qs),
(227,67,l),
(227,6,l),
(224,-32,o),
(224,-46,qs),
(224,-120,l),
(223,-223,l),
(224,-270,ls),
(224,-381,o),
(216,-415,q),
(184,-435,o),
(54,-435,qs),
(39,-435,o),
(-7,-434,o),
(-18,-434,qs),
(-36,-434,l),
(-35,-477,l),
(356,-476,l),
(357,-452,o),
(357,-434,qs),
(354,-316,l),
(355,-124,l),
(351,-25,o),
(351,-10,qs),
(351,5,o),
(354,70,o),
(354,93,qs),
(351,318,l),
(353,368,l),
(351,503,l),
(351,586,l),
(343,698,o),
(343,857,qs),
(343,875,o),
(351,976,o),
(351,1011,qs),
(351,1085,o),
(348,1151,qs),
(347,1171,l),
(349,1281,l),
(328,1285,o),
(312,1285,qs),
(41,1284,l),
(2,1284,l),
(-43,1282,l),
(-42,1240,l),
(142,1235,o)
);
}
);
};
layerId = m01;
shapes = (
{
closed = 1;
nodes = (
(416,-392,o),
(433,-388,o),
(433,-343,cs),
(433,1309,ls),
(433,1353,o),
(427,1369,o),
(406,1373,cs),
(396,1375,o),
(380,1376,o),
(359,1376,cs),
(74,1374,ls),
(57,1374,o),
(39,1369,o),
(39,1348,cs),
(39,1331,o),
(64,1322,o),
(90,1319,cs),
(245,1307,l),
(264,1304,o),
(290,1279,o),
(290,1258,cs),
(290,-237,ls),
(290,-272,o),
(268,-297,o),
(245,-302,cs),
(90,-327,ls),
(64,-330,o),
(39,-339,o),
(39,-363,cs),
(39,-386,o),
(67,-392,o),
(90,-392,cs),
(372,-392,l),
(372,-392,l)
);
}
);
width = 555;
},
{
layerId = "088BD936-56BA-4CBD-9590-2DD048370D9B";
shapes = (
{
closed = 1;
nodes = (
(439,-393,o),
(458,-391,o),
(466,-367,cs),
(470,-355,o),
(472,-334,o),
(472,-305,cs),
(472,1280,ls),
(472,1336,o),
(467,1364,o),
(443,1370,cs),
(431,1373,o),
(415,1375,o),
(393,1375,cs),
(70,1373,ls),
(51,1373,o),
(27,1370,o),
(27,1342,cs),
(27,1317,o),
(68,1308,o),
(90,1304,cs),
(248,1285,ls),
(271,1282,o),
(286,1259,o),
(286,1238,cs),
(287,-242,ls),
(287,-267,o),
(273,-287,o),
(250,-292,cs),
(99,-316,ls),
(68,-320,o),
(31,-331,o),
(31,-355,cs),
(31,-383,o),
(55,-392,o),
(75,-392,cs),
(398,-393,l),
(398,-393,l)
);
}
);
width = 747;
}
);
note = bracketright;
unicode = 93;
}
{
glyphname = asciicircum;
layers = (
{
background = {
shapes = (
{
closed = 1;
nodes = (
(129,783,l),
(513,1244,l),
(896,783,l),
(961,836,l),
(513,1374,l),
(66,836,l)
);
}
);
};
layerId = m01;
shapes = (
{
closed = 1;
nodes = (
(135,557,o),
(176,570,o),
(192,594,cs),
(478,1007,ls),
(482,1014,o),
(485,1017,o),
(487,1017,cs),
(489,1017,o),
(493,1013,o),
(498,1007,cs),
(788,592,ls),
(801,574,o),
(840,557,o),
(868,557,cs),
(887,557,o),
(890,583,o),
(880,598,cs),
(492,1182,l),
(486,1182,l),
(100,598,ls),
(96,593,o),
(94,586,o),
(94,578,cs),
(94,567,o),
(101,557,o),
(112,557,cs)
);
}
);
width = 1024;
},
{
layerId = "088BD936-56BA-4CBD-9590-2DD048370D9B";
shapes = (
{
closed = 1;
nodes = (
(141,504,o),
(177,530,o),
(200,564,cs),
(488,990,l),
(494,1001,o),
(498,1003,o),
(508,990,cs),
(801,563,ls),
(823,531,o),
(858,504,o),
(893,504,cs),
(927,504,o),
(937,531,o),
(926,549,cs),
(505,1190,l),
(492,1190,l),
(76,549,l),
(73,543,o),
(72,538,o),
(72,533,cs),
(72,512,o),
(89,504,o),
(108,504,cs)
);
}
);
width = 1195;
}
);
note = asciicircum;
unicode = 94;
}
{
glyphname = underscore;
layers = (
{
background = {
shapes = (
{
closed = 1;
nodes = (
(1036,-256,l),
(1036,-154,l),
(-12,-154,l),
(-12,-256,l)
);
}
);
};
layerId = m01;
shapes = (
{
closed = 1;
nodes = (
(16,-259,o),
(0,-305,o),
(0,-333,cs),
(0,-344,o),
(15,-357,o),
(27,-357,cs),
(919,-357,ls),
(951,-357,o),
(982,-307,o),
(982,-280,cs),
(982,-267,o),
(967,-259,o),
(954,-259,cs),
(47,-259,ls)
);
}
);
width = 1024;
},
{
layerId = "088BD936-56BA-4CBD-9590-2DD048370D9B";
shapes = (
{
closed = 1;
nodes = (
(19,-253,o),
(0,-305,o),
(0,-338,cs),
(0,-349,o),
(15,-364,o),
(31,-364,cs),
(1053,-364,ls),
(1087,-364,o),
(1118,-312,o),
(1118,-280,cs),
(1118,-264,o),
(1101,-253,o),
(1077,-253,cs),
(53,-253,ls)
);
}
);
width = 1024;
}
);
note = underscore;
unicode = 95;
}
{
glyphname = grave;
layers = (
{
background = {
shapes = (
{
closed = 1;
nodes = (
(499,1038,qs),
(484,1058,o),
(461,1092,qs),
(373,1223,o),
(288,1293,o),
(252,1293,qs),
(231,1293,o),
(199,1262,o),
(199,1242,qs),
(199,1224,o),
(231,1177,o),
(319,1117,qs),
(503,993,o),
(518,983,q),
(535,984,l),
(525,1004,o)
);
}
);
};
layerId = m01;
shapes = (
{
closed = 1;
nodes = (
(346,896,o),
(351,902,o),
(351,913,cs),
(351,921,o),
(348,934,o),
(343,949,cs),
(319,1012,o),
(218,1195,o),
(192,1237,cs),
(182,1256,o),
(160,1272,o),
(139,1272,cs),
(90,1272,o),
(43,1259,o),
(43,1231,cs),
(43,1223,o),
(45,1216,o),
(49,1211,cs),
(53,1206,o),
(58,1198,o),
(63,1190,cs),
(104,1129,o),
(215,996,o),
(274,937,cs),
(303,909,o),
(322,896,o),
(335,896,cs)
);
}
);
width = 683;
},
{
layerId = "088BD936-56BA-4CBD-9590-2DD048370D9B";
shapes = (
{
closed = 1;
nodes = (
(385,890,o),
(391,897,o),
(391,912,cs),
(391,921,o),
(389,935,o),
(382,952,cs),
(354,1028,o),
(269,1203,o),
(249,1240,cs),
(232,1276,o),
(209,1285,o),
(168,1285,cs),
(108,1285,o),
(57,1272,o),
(57,1239,cs),
(57,1226,o),
(63,1211,o),
(76,1193,c),
(153,1102,o),
(235,1008,o),
(317,923,cs),
(339,901,o),
(358,890,o),
(372,890,cs)
);
}
);
width = 683;
}
);
note = grave;
unicode = 96;
}
{
color = 2;
glyphname = a;
kernLeft = a;
kernRight = a;
layers = (
{
background = {
shapes = (
{
closed = 1;
nodes = (
(791,129,q),
(779,113,ls),
(752,75,o),
(714,75,qs),
(688,75,o),
(669,95,qs),
(650,115,o),
(650,148,qs),
(650,162,o),
(651,191,qs),
(652,207,o),
(652,230,qs),
(651,346,l),
(654,505,ls),
(654,640,o),
(650,662,qs),
(643,708,o),
(579,786,o),
(495,817,o),
(409,817,qs),
(346,817,o),
(177,726,o),
(66,543,o),
(66,517,qs),
(66,508,o),
(76,501,qs),
(94,488,o),
(116,488,qs),
(142,488,o),
(185,516,q),
(202,546,o),
(208,572,qs),
(227,666,o),
(264,700,qs),
(324,754,o),
(393,754,qs),
(459,754,o),
(530,664,o),
(530,537,qs),
(530,498,o),
(528,465,q),
(505,453,o),
(403,410,qs),
(258,349,o),
(89,157,o),
(89,88,qs),
(89,40,o),
(148,-21,o),
(199,-21,qs),
(269,-21,o),
(319,-8,qs),
(350,1,o),
(409,35,q),
(521,113,l),
(530,46,o),
(552,20,qs),
(588,-24,o),
(660,-24,qs),
(702,-24,o),
(726,-9,qs),
(764,14,o),
(795,64,qs),
(819,102,o),
(819,117,qs),
(819,123,o),
(813,136,q),
(796,132,o)
);
},
{
closed = 1;
nodes = (
(398,75,qs),
(354,53,o),
(323,53,qs),
(283,53,o),
(230,105,o),
(230,144,qs),
(230,185,o),
(262,231,qs),
(306,295,o),
(456,393,o),
(523,417,q),
(526,371,o),
(526,344,qs),
(526,292,o),
(519,165,q),
(456,104,o)
);
}
);
};
layerId = m01;
shapes = (
{
closed = 1;
nodes = (
(313,-27,o),
(389,4,o),
(474,76,c),
(480,76,l),
(515,8,o),
(563,-27,o),
(623,-27,cs),
(666,-27,o),
(717,0,o),
(758,42,cs),
(773,57,o),
(780,71,o),
(780,86,cs),
(780,99,o),
(771,108,o),
(758,108,cs),
(755,108,o),
(750,105,o),
(743,98,cs),
(728,84,o),
(703,76,o),
(670,76,cs),
(629,76,o),
(597,112,o),
(600,169,cs),
(610,646,ls),
(611,745,o),
(542,822,o),
(449,822,cs),
(369,822,o),
(244,762,o),
(157,681,cs),
(107,638,o),
(78,587,o),
(78,544,cs),
(78,533,o),
(87,526,o),
(100,526,cs),
(140,526,o),
(229,576,o),
(229,596,cs),
(229,601,o),
(229,607,o),
(228,614,cs),
(227,621,o),
(227,627,o),
(227,632,cs),
(227,655,o),
(232,679,o),
(247,689,c),
(273,710,o),
(315,725,o),
(355,725,cs),
(431,725,o),
(473,667,o),
(470,598,cs),
(466,471,ls),
(463,417,o),
(463,412,o),
(412,391,cs),
(212,308,ls),
(115,268,o),
(73,228,o),
(73,143,cs),
(73,72,o),
(158,-27,o),
(229,-27,cs)
);
},
{
closed = 1;
nodes = (
(274,68,o),
(225,104,o),
(225,173,cs),
(225,196,o),
(239,221,o),
(266,248,cs),
(293,275,o),
(341,301,o),
(410,326,c),
(419,330,o),
(439,336,o),
(449,336,cs),
(470,336,o),
(467,315,o),
(466,294,cs),
(463,197,ls),
(462,166,o),
(457,135,o),
(437,115,cs),
(408,87,o),
(374,68,o),
(321,68,cs)
);
}
);
width = 832;
},
{
layerId = "088BD936-56BA-4CBD-9590-2DD048370D9B";
shapes = (
{
closed = 1;
nodes = (
(327,-6,o),
(392,24,o),
(479,100,c),
(484,100,l),
(529,30,o),
(587,-6,o),
(657,-6,cs),
(713,-6,o),
(768,19,o),
(815,64,cs),
(837,85,o),
(848,103,o),
(848,117,cs),
(848,130,o),
(838,139,o),
(825,139,cs),
(821,139,o),
(816,137,o),
(812,133,cs),
(795,118,o),
(772,109,o),
(746,109,cs),
(709,109,o),
(681,152,o),
(684,209,cs),
(694,609,ls),
(698,743,o),
(610,832,o),
(482,832,cs),
(397,832,o),
(254,769,o),
(157,690,cs),
(95,641,o),
(68,602,o),
(68,561,cs),
(68,542,o),
(82,528,o),
(100,528,cs),
(157,528,o),
(264,578,o),
(264,601,cs),
(264,608,o),
(264,617,o),
(263,626,cs),
(262,635,o),
(261,644,o),
(261,651,cs),
(261,667,o),
(264,683,o),
(275,694,cs),
(294,712,o),
(334,728,o),
(368,728,cs),
(431,728,o),
(463,683,o),
(460,611,cs),
(458,501,ls),
(457,451,o),
(452,443,o),
(400,421,cs),
(220,347,ls),
(114,303,o),
(60,252,o),
(60,166,cs),
(60,78,o),
(149,-6,o),
(248,-6,cs)
);
},
{
closed = 1;
nodes = (
(324,110,o),
(282,135,o),
(282,206,cs),
(282,241,o),
(291,266,o),
(311,288,cs),
(331,311,o),
(364,329,o),
(410,349,c),
(421,355,o),
(431,357,o),
(436,357,cs),
(449,357,o),
(456,351,o),
(455,325,cs),
(450,199,ls),
(449,169,o),
(443,153,o),
(433,142,cs),
(414,121,o),
(393,110,o),
(359,110,cs)
);
}
);
width = 981;
}
);
note = a;
unicode = 97;
}
{
color = 3;
glyphname = b;
kernLeft = b;
kernRight = uni1EFC;
layers = (
{
background = {
shapes = (
{
closed = 1;
nodes = (
(159,1183,qs),
(177,1156,o),
(174,982,qs),
(174,922,ls),
(175,846,o),
(175,835,qs),
(174,799,l),
(174,711,l),
(170,608,l),
(172,566,l),
(170,348,l),
(171,272,l),
(169,123,ls),
(169,25,o),
(173,-42,q),
(202,-43,l),
(250,39,o),
(281,39,qs),
(291,39,o),
(453,-29,o),
(544,-29,qs),
(643,-29,o),
(819,53,o),
(917,169,o),
(951,269,qs),
(965,311,o),
(965,420,qs),
(965,489,o),
(925,584,qs),
(902,636,o),
(806,729,o),
(757,749,qs),
(677,781,o),
(577,781,qs),
(562,781,o),
(469,766,q),
(396,744,o),
(383,740,qs),
(301,709,l),
(299,738,o),
(299,743,qs),
(301,829,l),
(300,935,l),
(301,1030,l),
(301,1328,ls),
(301,1333,o),
(296,1349,q),
(281,1349,o),
(274,1348,q),
(151,1309,o),
(42,1290,q),
(34,1272,o),
(34,1262,qs),
(34,1257,l),
(130,1226,o)
);
},
{
closed = 1;
nodes = (
(371,69,qs),
(326,96,o),
(309,158,qs),
(299,198,o),
(299,433,qs),
(299,631,o),
(308,663,o),
(347,682,qs),
(412,713,o),
(508,713,qs),
(640,713,o),
(820,521,o),
(820,366,qs),
(820,197,o),
(661,26,o),
(509,26,qs),
(442,26,o)
);
}
);
};
layerId = m01;
shapes = (
{
closed = 1;
nodes = (
(680,-27,o),
(813,54,o),
(886,192,cs),
(923,262,o),
(941,341,o),
(941,431,cs),
(941,579,o),
(874,702,o),
(768,771,cs),
(715,805,o),
(655,822,o),
(588,822,cs),
(501,822,o),
(383,774,o),
(302,705,c),
(296,706,o),
(291,711,o),
(288,720,cs),
(285,729,o),
(284,746,o),
(284,771,cs),
(284,1178,ls),
(284,1233,o),
(285,1281,o),
(287,1320,cs),
(289,1359,o),
(290,1381,o),
(290,1386,cs),
(290,1394,o),
(283,1400,o),
(278,1400,cs),
(274,1400,o),
(268,1398,o),
(261,1394,cs),
(242,1386,o),
(118,1333,o),
(55,1318,cs),
(44,1315,o),
(31,1312,o),
(31,1299,cs),
(31,1283,o),
(47,1274,o),
(57,1269,cs),
(109,1245,o),
(147,1193,o),
(147,1124,cs),
(147,161,ls),
(147,136,o),
(145,109,o),
(140,80,cs),
(135,50,o),
(133,30,o),
(133,18,cs),
(133,5,o),
(150,-6,o),
(161,-6,cs),
(166,-6,o),
(172,-3,o),
(178,4,cs),
(191,17,o),
(206,30,o),
(221,30,cs),
(228,30,o),
(241,27,o),
(264,20,cs),
(284,14,o),
(310,6,o),
(339,-2,cs),
(390,-15,o),
(449,-27,o),
(508,-27,cs)
);
},
{
closed = 1;
nodes = (
(405,34,o),
(284,130,o),
(284,262,cs),
(284,647,l),
(341,700,o),
(419,739,o),
(523,739,cs),
(704,739,o),
(794,555,o),
(794,387,cs),
(794,255,o),
(753,143,o),
(681,81,cs),
(645,50,o),
(602,34,o),
(553,34,cs)
);
}
);
width = 1045;
},
{
layerId = "088BD936-56BA-4CBD-9590-2DD048370D9B";
shapes = (
{
closed = 1;
nodes = (
(719,-27,o),
(861,51,o),
(941,188,cs),
(981,257,o),
(1000,334,o),
(1000,423,cs),
(1000,571,o),
(931,691,o),
(823,759,cs),
(769,793,o),
(708,810,o),
(639,810,cs),
(560,810,o),
(463,777,o),
(381,720,c),
(376,720,o),
(371,725,o),
(368,734,cs),
(365,743,o),
(364,757,o),
(364,775,cs),
(365,1177,ls),
(365,1208,o),
(366,1236,o),
(369,1264,cs),
(372,1292,o),
(373,1309,o),
(373,1316,cs),
(373,1327,o),
(368,1336,o),
(354,1336,cs),
(348,1336,o),
(340,1335,o),
(328,1330,cs),
(280,1313,o),
(149,1260,o),
(54,1241,cs),
(41,1238,o),
(31,1230,o),
(31,1216,cs),
(31,1199,o),
(43,1190,o),
(56,1186,cs),
(115,1172,o),
(134,1117,o),
(134,1049,cs),
(141,187,ls),
(141,145,o),
(139,107,o),
(132,75,cs),
(125,42,o),
(122,21,o),
(122,10,cs),
(122,-2,o),
(135,-14,o),
(156,-14,cs),
(163,-14,o),
(172,-10,o),
(182,-2,cs),
(200,12,o),
(223,23,o),
(245,23,cs),
(265,23,o),
(302,13,o),
(345,1,cs),
(397,-13,o),
(460,-27,o),
(533,-27,cs)
);
},
{
closed = 1;
nodes = (
(499,48,o),
(433,84,o),
(393,150,cs),
(373,183,o),
(364,220,o),
(364,261,cs),
(364,657,l),
(407,691,o),
(480,711,o),
(540,711,cs),
(639,711,o),
(702,631,o),
(731,528,cs),
(746,475,o),
(754,425,o),
(754,375,cs),
(754,256,o),
(723,153,o),
(668,93,cs),
(640,62,o),
(608,48,o),
(569,48,cs)
);
}
);
width = 1131;
}
);
note = b;
unicode = 98;
}
{
color = 3;
glyphname = c;
kernLeft = c;
kernRight = c;
layers = (
{
background = {
shapes = (
{
closed = 1;
nodes = (
(597,63,o),
(519,63,qs),
(407,63,o),
(239,255,o),
(239,417,qs),
(239,574,o),
(321,678,qs),
(380,751,o),
(469,751,qs),
(506,751,o),
(566,722,o),
(603,684,qs),
(663,622,o),
(713,622,qs),
(746,622,o),
(788,664,o),
(788,696,qs),
(788,740,o),
(747,768,qs),
(674,816,o),
(534,816,qs),
(388,816,o),
(195,717,o),
(78,516,o),
(78,403,qs),
(78,300,o),
(175,86,o),
(355,-31,o),
(467,-31,qs),
(570,-31,o),
(722,35,o),
(800,118,q),
(799,183,l),
(718,114,o)
);
}
);
};
layerId = m01;
shapes = (
{
closed = 1;
nodes = (
(540,-29,o),
(633,12,o),
(700,96,cs),
(720,123,o),
(729,141,o),
(729,157,cs),
(729,176,o),
(722,185,o),
(707,185,cs),
(703,185,o),
(693,180,o),
(688,175,cs),
(626,112,o),
(578,90,o),
(502,90,cs),
(391,90,o),
(297,153,o),
(244,253,cs),
(217,304,o),
(204,359,o),
(204,421,cs),
(204,617,o),
(291,749,o),
(419,749,cs),
(467,749,o),
(547,700,o),
(604,655,c),
(612,650,o),
(618,646,o),
(625,641,cs),
(632,636,o),
(638,634,o),
(645,634,cs),
(682,634,o),
(729,680,o),
(729,715,cs),
(729,728,o),
(721,741,o),
(706,753,cs),
(642,799,o),
(567,822,o),
(482,822,cs),
(330,822,o),
(199,732,o),
(125,592,cs),
(88,522,o),
(69,444,o),
(69,358,cs),
(69,213,o),
(135,89,o),
(240,22,cs),
(293,-12,o),
(352,-29,o),
(417,-29,cs)
);
}
);
width = 853;
},
{
layerId = "088BD936-56BA-4CBD-9590-2DD048370D9B";
shapes = (
{
closed = 1;
nodes = (
(520,-28,o),
(607,15,o),
(672,73,cs),
(703,101,o),
(727,129,o),
(741,154,cs),
(755,178,o),
(759,196,o),
(759,208,cs),
(759,227,o),
(752,237,o),
(737,237,cs),
(727,237,o),
(716,229,o),
(707,222,cs),
(643,170,o),
(593,147,o),
(515,147,cs),
(356,147,o),
(252,261,o),
(252,450,cs),
(252,632,o),
(311,719,o),
(416,719,cs),
(466,719,o),
(541,680,o),
(608,626,cs),
(627,611,o),
(646,596,o),
(667,596,cs),
(701,596,o),
(759,655,o),
(759,682,cs),
(759,693,o),
(753,705,o),
(741,717,cs),
(673,779,o),
(586,810,o),
(483,810,cs),
(324,810,o),
(187,726,o),
(109,593,cs),
(70,527,o),
(51,452,o),
(51,370,cs),
(51,221,o),
(119,95,o),
(229,25,cs),
(284,-10,o),
(346,-28,o),
(415,-28,cs)
);
}
);
width = 960;
}
);
note = c;
unicode = 99;
}
{
color = 3;
glyphname = d;
kernLeft = c;
kernRight = d;
layers = (
{
background = {
shapes = (
{
closed = 1;
nodes = (
(689,744,qs),
(602,784,o),
(467,784,qs),
(437,784,o),
(348,761,qs),
(312,752,o),
(202,685,o),
(172,651,qs),
(125,599,o),
(67,442,o),
(67,356,qs),
(67,260,o),
(155,76,o),
(319,-27,o),
(398,-27,qs),
(529,-27,o),
(685,39,qs),
(721,54,o),
(738,59,q),
(738,-37,l),
(757,-37,o),
(789,-31,qs),
(934,-3,ls),
(967,3,o),
(998,10,q),
(999,18,o),
(999,25,qs),
(999,43,l),
(975,45,o),
(961,45,qs),
(893,46,o),
(873,66,qs),
(863,75,o),
(863,146,qs),
(866,377,l),
(859,811,l),
(863,1196,ls),
(863,1280,o),
(859,1348,q),
(808,1347,l),
(710,1314,o),
(574,1300,q),
(572,1288,o),
(572,1278,qs),
(572,1267,l),
(587,1263,o),
(594,1261,qs),
(691,1235,o),
(731,1185,o),
(731,1093,qs),
(730,872,l),
(731,755,l),
(730,726,l),
(716,731,o)
);
},
{
closed = 1;
nodes = (
(589,50,o),
(515,50,qs),
(386,50,o),
(213,232,o),
(213,385,qs),
(213,559,o),
(373,737,o),
(488,737,qs),
(570,737,o),
(702,654,o),
(735,561,o),
(735,384,qs),
(735,175,o),
(731,108,q),
(711,90,o)
);
}
);
};
layerId = m01;
shapes = (
{
closed = 1;
nodes = (
(704,-40,o),
(707,-40,o),
(711,-38,cs),
(713,-37,o),
(721,-33,o),
(731,-28,cs),
(824,11,o),
(886,28,o),
(960,39,c),
(973,39,o),
(988,56,o),
(988,75,cs),
(988,88,o),
(975,94,o),
(952,93,cs),
(936,92,o),
(918,90,o),
(903,89,cs),
(887,88,o),
(875,87,o),
(868,87,cs),
(854,87,o),
(844,97,o),
(837,118,cs),
(830,139,o),
(827,171,o),
(827,216,cs),
(827,1113,ls),
(827,1269,o),
(841,1356,o),
(841,1383,c),
(840,1390,o),
(835,1395,o),
(827,1395,cs),
(822,1395,o),
(811,1394,o),
(802,1389,c),
(765,1373,o),
(705,1344,o),
(590,1316,c),
(579,1312,o),
(574,1304,o),
(574,1292,cs),
(574,1277,o),
(579,1269,o),
(592,1266,cs),
(655,1255,o),
(690,1229,o),
(690,1121,cs),
(690,839,ls),
(690,808,o),
(685,792,o),
(676,792,cs),
(671,792,o),
(662,794,o),
(651,797,cs),
(621,808,o),
(562,819,o),
(510,819,cs),
(326,819,o),
(192,726,o),
(122,591,cs),
(87,524,o),
(69,452,o),
(69,375,cs),
(69,242,o),
(130,109,o),
(238,30,cs),
(292,-10,o),
(356,-30,o),
(431,-30,cs),
(562,-30,o),
(648,50,o),
(688,111,c),
(688,99,ls),
(688,82,o),
(686,60,o),
(683,36,cs),
(680,12,o),
(678,-7,o),
(678,-20,cs),
(678,-25,o),
(695,-40,o),
(700,-40,cs)
);
},
{
closed = 1;
nodes = (
(459,73,o),
(387,87,o),
(322,135,cs),
(258,182,o),
(208,269,o),
(208,420,cs),
(208,597,o),
(272,685,o),
(347,722,cs),
(386,741,o),
(419,750,o),
(449,750,cs),
(545,750,o),
(619,701,o),
(660,633,cs),
(680,598,o),
(690,563,o),
(690,527,cs),
(688,170,l),
(639,113,o),
(570,73,o),
(502,73,cs)
);
}
);
width = 1024;
},
{
layerId = "088BD936-56BA-4CBD-9590-2DD048370D9B";
shapes = (
{
closed = 1;
nodes = (
(705,-14,o),
(708,-14,o),
(714,-12,cs),
(720,-10,o),
(727,-7,o),
(735,-3,c),
(829,33,o),
(926,55,o),
(1017,65,c),
(1030,65,o),
(1050,90,o),
(1050,110,cs),
(1050,124,o),
(1039,130,o),
(1020,129,cs),
(992,127,o),
(975,126,o),
(965,125,cs),
(955,124,o),
(948,124,o),
(941,124,cs),
(925,124,o),
(914,132,o),
(907,152,cs),
(901,169,o),
(898,201,o),
(898,244,cs),
(905,1178,ls),
(908,1276,o),
(916,1346,o),
(916,1339,c),
(916,1351,o),
(909,1358,o),
(896,1358,cs),
(895,1358,o),
(890,1357,o),
(885,1356,cs),
(878,1354,o),
(868,1350,o),
(855,1344,cs),
(793,1319,o),
(693,1286,o),
(591,1263,cs),
(578,1260,o),
(571,1251,o),
(571,1237,cs),
(571,1221,o),
(579,1212,o),
(593,1209,cs),
(652,1198,o),
(675,1165,o),
(675,1072,cs),
(675,836,ls),
(675,817,o),
(671,807,o),
(664,807,c),
(664,807,o),
(655,809,o),
(639,812,c),
(607,822,o),
(557,829,o),
(514,829,cs),
(330,829,o),
(186,745,o),
(109,613,cs),
(70,546,o),
(51,472,o),
(51,389,cs),
(51,248,o),
(119,122,o),
(233,49,cs),
(289,13,o),
(353,-5,o),
(426,-5,cs),
(539,-5,o),
(634,55,o),
(685,130,c),
(685,118,ls),
(684,91,o),
(679,49,o),
(674,14,c),
(674,6,o),
(694,-14,o),
(701,-14,cs)
);
},
{
closed = 1;
nodes = (
(470,117,o),
(414,142,o),
(369,194,cs),
(325,245,o),
(295,326,o),
(295,439,cs),
(295,577,o),
(336,666,o),
(395,712,cs),
(425,735,o),
(455,746,o),
(486,746,cs),
(580,746,o),
(673,661,o),
(673,585,cs),
(674,183,l),
(635,142,o),
(566,117,o),
(521,117,cs)
);
}
);
width = 1131;
}
);
note = d;
unicode = 100;
}
